SplineFontDB: 3.2
FontName: LibertinusSerif-Semibold
FullName: Libertinus Serif Semibold
FamilyName: Libertinus Serif Semibold
Weight: Semibold
UComments: "2003-08-29: Created.+AAoA-2004-07-25: v(1.0) release candidate+AAoA-2005-12-28: v(1.1.0) stable+AAoA-2006-01-01: v(2.0.0) stable+AAoA-2006-09-05: v(2.2.0) stable+AAoA-2006-12-04: v(2.3.0) stable+AAoA-2007-03-11: v(2.4.0) stable+AAoA-2007-06-11: v(2.6.0) stable+AAoA-2007-12-00: v(2.7.0) stable+AAoA-2008-06-00: v(2.8.14) stable+AAoA"
Version: 5.1.2
ItalicAngle: 0
UnderlinePosition: -98
UnderlineWidth: 40
Ascent: 754
Descent: 246
InvalidEm: 0
LayerCount: 2
Layer: 0 0 "Back" 1
Layer: 1 0 "Fore" 0
XUID: [1021 993 1524925707 4740893]
FSType: 0
OS2Version: 0
OS2_WeightWidthSlopeOnly: 0
OS2_UseTypoMetrics: 1
CreationTime: 1156455862
PfmFamily: 17
TTFWeight: 600
TTFWidth: 5
LineGap: 0
VLineGap: 0
OS2TypoAscent: 894
OS2TypoAOffset: 0
OS2TypoDescent: -246
OS2TypoDOffset: 0
OS2TypoLinegap: 0
OS2WinAscent: 894
OS2WinAOffset: 0
OS2WinDescent: 246
OS2WinDOffset: 0
HheadAscent: 894
HheadAOffset: 0
HheadDescent: -246
HheadDOffset: 0
OS2CapHeight: 645
OS2XHeight: 463
OS2FamilyClass: 261
OS2Vendor: 'QUE '
Lookup: 257 0 0 "'cpsp' Versalabstaende" { "'cpsp' Versalabstaende 1"  } ['cpsp' ('DFLT' <'dflt' > 'cyrl' <'dflt' > 'grek' <'dflt' > 'latn' <'AZE ' 'CRT ' 'TRK ' 'dflt' > ) ]
Lookup: 260 0 0 "'mark' Mark positioning" { "'mark' Mark Positioning in Hebrew lookup 0"  "'mark' Mark Positioning lookup 1"  "'mark' Mark Positioning lookup 2"  "'mark' Mark Positioning lookup 3"  "'mark' Mark Positioning lookup 4"  } ['mark' ('DFLT' <'dflt' > 'cyrl' <'dflt' > 'grek' <'dflt' > 'latn' <'AZE ' 'CRT ' 'TRK ' 'dflt' > ) ]
Lookup: 258 0 0 "'kern' Kerning" { "'kern' Kerning 1" [150,0,0] } ['kern' ('DFLT' <'dflt' > 'cyrl' <'dflt' > 'grek' <'dflt' > 'latn' <'AZE ' 'CRT ' 'TRK ' 'dflt' > ) ]
MarkAttachClasses: 1
DEI: 91125
KernClass2: 22 20 "'kern' Kerning 1"
 19 f longs uni1E1F f_f

StartChar: exclam
Encoding: 33 33 0
Width: 244
GlyphClass: 2
Flags: MW
LayerCount: 2
Fore
SplineSet
122 658 m 0
 159 658 194 634 194 583 c 0
 194 548 186 510 180 477 c 0
 163.7 379.1 151 279 150 230 c 0
 149.6 211 145.1 188 122 188 c 0
 95.9 188 93 208 92 242 c 0
 90.7 289.7 76.8 409.6 64 480 c 0
 57 515 50 544 50 583 c 0
 50 639 91 658 122 658 c 0
EndSplineSet
Refer: 256 46 N 1 0 0 1 -1 0 2
EndChar

StartChar: numbersign
Encoding: 35 35 2
Width: 463
GlyphClass: 2
Flags: MW
LayerCount: 2
Fore
SplineSet
256 237 m 1
 272 337 l 1
 202 337 l 1
 196 302 191 272 185 237 c 1
 256 237 l 1
340 337 m 1
 324 237 l 1
 421 237 l 1
 413 181 l 1
 316 181 l 1
 307 125 298 67 289 13 c 1
 221 13 l 1
 248 181 l 1
 177 181 l 1
 167 125 159 67 149 13 c 1
 79 13 l 1
 105 181 l 1
 17 181 l 1
 25 237 l 1
 114 237 l 1
 120 272 125 302 130 337 c 1
 41 337 l 1
 50 394 l 1
 139 394 l 1
 148 448 157 507 166 561 c 1
 237 561 l 1
 209 394 l 1
 281 394 l 1
 290 448 298 507 307 561 c 1
 375 561 l 1
 349 394 l 1
 445 394 l 1
 437 337 l 1
 340 337 l 1
EndSplineSet
EndChar

StartChar: dollar
Encoding: 36 36 3
Width: 438
GlyphClass: 2
Flags: MW
LayerCount: 2
Fore
SplineSet
91 10 m 0
 75 10 78 -1 57 -1 c 1
 57 36 49 90 41 146 c 1
 85 149 l 1
 100.5 88.6 129.5 34.9 194 26.2 c 1
 194 258.9 l 1
 129.5 282.5 42 325.6 42 434 c 0
 42 519.2 127.4 563.3 194 570.8 c 1
 194 627 l 1
 234 627 l 1
 234 571.5 l 1
 282.2 569.3 322.3 560.5 347 564 c 1
 350 519 359 470 367 421 c 1
 324 417 l 1
 318 435 l 1
 299.3 499.1 283.8 529.9 234 535.9 c 1
 234 333.1 l 1
 294 314.3 402 256.1 402 156 c 0
 402 78.1 363.2 -3.5 234 -11.4 c 1
 234 -81 l 1
 194 -81 l 1
 194 -11.4 l 1
 140.8 -7.8 109.9 10 91 10 c 0
234 26.8 m 1
 269.1 33 310 56.8 310 127 c 0
 310 178.1 280.7 217 234 242 c 1
 234 26.8 l 1
194 535.3 m 1
 151.7 527.8 126 495.4 126 438 c 0
 126 402.3 160.7 367.7 194 348.8 c 1
 194 535.3 l 1
EndSplineSet
EndChar

StartChar: percent
Encoding: 37 37 4
Width: 637
GlyphClass: 2
Flags: MW
LayerCount: 2
Fore
SplineSet
443 77 m 0
 443 38 458 14 477 14 c 0
 529 14 562 102 562 157 c 0
 562 209 537 214 523 214 c 0
 480 214 443 134 443 77 c 0
375 91 m 0
 375 171 423 250 512 250 c 0
 560 250 604 231 604 159 c 0
 604 60 550 -19 471 -19 c 0
 409 -19 375 26 375 91 c 0
364 519 m 0
 406 519 473 525 514 569 c 1
 561 548 l 1
 150 -16 l 1
 96 -4 l 1
 462 497 l 1
 423 481 384 474 354 474 c 0
 331 474 299 484 280 495 c 1
 282 487 283 482 283 474 c 0
 283 390 231 297 144 297 c 0
 82 297 53 339 53 406 c 0
 53 491 108 565 190 565 c 0
 218 565 247 556 257 544 c 1
 311 519 346 519 364 519 c 0
122 392 m 0
 122 353 137 330 155 330 c 0
 201 330 240 415 240 473 c 0
 240 522 219 529 201 529 c 0
 152 529 122 450 122 392 c 0
EndSplineSet
EndChar

StartChar: parenleft
Encoding: 40 40 5
Width: 315
GlyphClass: 2
Flags: MW
LayerCount: 2
Fore
SplineSet
36 253 m 0
 36 435 139 607 270 720 c 1
 298 686 l 1
 268 651 151 517 151 253 c 0
 151 -11 266 -145 298 -181 c 1
 268 -213 l 1
 41 -17 36 208 36 253 c 0
EndSplineSet
EndChar

StartChar: parenright
Encoding: 41 41 6
Width: 315
GlyphClass: 2
Flags: MW
LayerCount: 2
Fore
SplineSet
279 251 m 0
 279 69 176 -103 45 -216 c 1
 17 -182 l 1
 47 -147 164 -13 164 251 c 0
 164 515 49 649 17 685 c 1
 47 717 l 1
 274 521 279 296 279 251 c 0
EndSplineSet
EndChar

StartChar: asterisk
Encoding: 42 42 7
Width: 433
GlyphClass: 2
Flags: MW
LayerCount: 2
Fore
SplineSet
197 566 m 1
 184 568 171 573 156 571 c 0
 111 563 75 563 75 608 c 0
 75 622 84 640 108 640 c 0
 142 640 159 607 203 588 c 1
 199 628 173 653 173 679 c 0
 173 700 193 718 211 718 c 0
 229 718 251 707 251 683 c 0
 251 656 228 618 226 588 c 1
 271 607 282 642 315 642 c 0
 346 642 354 618 354 608 c 0
 354 578 320 568 285 568 c 0
 266 568 249 568 231 565 c 1
 265 529 316 531 316 480 c 0
 316 462 298 451 284 451 c 0
 235 451 238 513 213 552 c 1
 188 507 202 451 143 451 c 0
 126 451 114 464 114 479 c 0
 114 533 164 528 197 566 c 1
EndSplineSet
EndChar

StartChar: plus
Encoding: 43 43 8
Width: 537
GlyphClass: 2
Flags: MW
LayerCount: 2
Fore
SplineSet
306 269 m 1
 477 269 l 1
 477 195 l 1
 306 195 l 1
 306 32 l 1
 232 32 l 1
 232 195 l 1
 61 195 l 1
 61 269 l 1
 232 269 l 1
 232 433 l 1
 306 433 l 1
 306 269 l 1
EndSplineSet
EndChar

StartChar: slash
Encoding: 47 47 9
Width: 316
GlyphClass: 2
Flags: MW
LayerCount: 2
Fore
SplineSet
302 682 m 1
 65 -21 l 1
 2 -21 l 1
 239 682 l 1
 302 682 l 1
EndSplineSet
EndChar

StartChar: one
Encoding: 49 49 10
Width: 490
GlyphClass: 2
Flags: MW
LayerCount: 2
Fore
SplineSet
207 81 m 2
 207 430 l 2
 207 478 204 480 192 480 c 0
 180 480 126 464 81 441 c 1
 72 451 65 464 63 477 c 1
 136 516 214 564 265 593 c 0
 284 604 299 610 307 610 c 0
 314 610 320 606 320 593 c 1
 320 593 317 530 317 477 c 2
 317 81 l 2
 317 35 348 36 397 32 c 1
 403 26 403 4 397 -2 c 1
 365 -1 305 0 262 0 c 0
 219 0 138 -1 106 -2 c 1
 100 4 100 26 106 32 c 1
 149 35 207 35 207 81 c 2
EndSplineSet
EndChar

StartChar: two
Encoding: 50 50 11
Width: 490
GlyphClass: 2
Flags: MW
LayerCount: 2
Fore
SplineSet
51 465 m 0
 51 526 116 610 235 610 c 0
 324 610 425 578 425 455 c 0
 425 380 362 316 277 233 c 0
 240 196 154 128 154 79 c 1
 318 79 l 2
 356 79 370 96 388 164 c 1
 405 164 416 162 429 155 c 1
 417 102 411 42 407 0 c 1
 50 0 l 1
 50 59 70 104 169 210 c 1
 241 286 l 2
 292 341 306 385 306 451 c 0
 306 543 265 570 228 570 c 0
 175 570 141 534 141 511 c 0
 141 500 142 492 145 485 c 0
 148 477 148 469 148 464 c 0
 148 433 121 422 100 422 c 0
 73 422 51 441 51 465 c 0
EndSplineSet
EndChar

StartChar: three
Encoding: 51 51 12
Width: 490
GlyphClass: 2
Flags: MW
LayerCount: 2
Fore
SplineSet
234 570 m 0
 204 570 144 556 144 495 c 0
 144 475 138 440 97 440 c 0
 55 440 54 474 54 477 c 0
 54 511 95 610 253 610 c 0
 367 610 399 543 399 500 c 0
 399 476 379 402 290 364 c 1
 354 357 431 303 431 204 c 0
 431 64 323 -11 197 -11 c 0
 131 -11 43 16 43 58 c 0
 43 75 65 95 95 95 c 0
 122 95 137 82 145 69 c 0
 155 52 177 30 210 30 c 0
 237 30 315 61 315 190 c 0
 315 299 253 315 208 315 c 0
 201 315 183 311 156 305 c 1
 150 345 l 1
 267 372 296 437 296 484 c 0
 296 541 263 570 234 570 c 0
EndSplineSet
EndChar

StartChar: four
Encoding: 52 52 13
Width: 490
GlyphClass: 2
Flags: MW
LayerCount: 2
Fore
SplineSet
271 493 m 1
 202 399 141 301 90 219 c 1
 271 219 l 1
 271 493 l 1
467 219 m 2
 478 219 482 213 482 203 c 0
 482 191 467 169 453 169 c 2
 374 169 l 1
 374 81 l 2
 374 34 395 36 444 32 c 1
 450 26 450 4 444 -2 c 1
 412 -1 347 0 308 0 c 0
 262 0 222 -1 190 -2 c 1
 184 4 184 26 190 32 c 1
 233 35 271 35 271 81 c 2
 271 169 l 1
 67 169 l 2
 37 169 31 199 28 214 c 1
 120 357 236 521 299 599 c 0
 303 603 308 610 315 610 c 2
 374 610 l 1
 376 608 l 1
 374 600 374 561 374 511 c 2
 374 219 l 1
 467 219 l 2
EndSplineSet
EndChar

StartChar: five
Encoding: 53 53 14
Width: 490
GlyphClass: 2
Flags: MW
LayerCount: 2
Fore
SplineSet
316 186 m 0
 316 285 269 344 219 344 c 0
 177 344 144 336 83 310 c 1
 118 607 l 1
 166 603 207 601 242 601 c 0
 292 601 337 604 398 611 c 1
 417 601 l 1
 402 532 l 1
 351 528 321 526 291 526 c 0
 255 526 187 528 160 531 c 1
 144 393 l 1
 163 397 218 401 244 401 c 0
 365 401 431 307 431 208 c 0
 431 90 339 -13 211 -13 c 0
 145 -13 46 22 46 65 c 0
 46 87 64 107 94 107 c 0
 125 107 141 89 151 69 c 0
 164 45 191 31 207 31 c 0
 259 31 316 89 316 186 c 0
EndSplineSet
EndChar

StartChar: six
Encoding: 54 54 15
Width: 490
GlyphClass: 2
Flags: MW
LayerCount: 2
Fore
SplineSet
154 280 m 1
 153 269 153 251 153 240 c 0
 153 68 215 28 257 28 c 0
 293 28 330 67 330 174 c 0
 330 221 312 319 233 319 c 0
 218 319 190 317 154 280 c 1
419 575 m 1
 371 572 310 572 241 502 c 0
 206 466 177 410 163 340 c 1
 191 353 224 361 252 361 c 0
 421 361 443 231 443 182 c 0
 443 109 404 -10 248 -10 c 0
 164 -10 40 32 40 243 c 0
 40 338 73 431 146 508 c 0
 212 577 291 605 415 612 c 1
 421 601 421 586 419 575 c 1
EndSplineSet
EndChar

StartChar: seven
Encoding: 55 55 16
Width: 490
GlyphClass: 2
Flags: MW
LayerCount: 2
Fore
SplineSet
128 594 m 2
 437 594 l 1
 441 586 l 1
 334 317 271 167 216 -2 c 1
 122 -13 l 1
 117 0 l 1
 185 151 299 385 352 517 c 1
 159 517 l 2
 127 517 110 513 94 444 c 1
 79 444 68 446 55 452 c 1
 71 519 79 553 81 597 c 1
 81 601 82 601 86 601 c 1
 103 599 106 594 128 594 c 2
EndSplineSet
EndChar

StartChar: nine
Encoding: 57 57 17
Width: 490
GlyphClass: 2
Flags: MW
LayerCount: 2
Fore
SplineSet
332 320 m 1
 333 331 333 349 333 360 c 0
 333 532 271 572 229 572 c 0
 193 572 156 533 156 426 c 0
 156 379 174 281 253 281 c 0
 268 281 296 283 332 320 c 1
67 25 m 1
 115 28 176 28 245 98 c 0
 280 134 309 190 323 260 c 1
 295 247 262 239 234 239 c 0
 65 239 43 369 43 418 c 0
 43 491 82 610 238 610 c 0
 322 610 446 568 446 357 c 0
 446 262 413 169 340 92 c 0
 274 23 195 -5 71 -12 c 1
 65 -1 65 14 67 25 c 1
EndSplineSet
EndChar

StartChar: less
Encoding: 60 60 19
Width: 512
GlyphClass: 2
Flags: MW
LayerCount: 2
Fore
SplineSet
153 240 m 1
 471 124 l 1
 471 62 l 1
 42 218 l 1
 42 262 l 1
 471 418 l 1
 471 356 l 1
 153 240 l 1
EndSplineSet
EndChar

StartChar: equal
Encoding: 61 61 20
Width: 551
GlyphClass: 2
Flags: MW
LayerCount: 2
Fore
SplineSet
493 198 m 1
 493 142 l 1
 59 142 l 1
 59 198 l 1
 493 198 l 1
493 323 m 1
 493 266 l 1
 59 266 l 1
 59 323 l 1
 493 323 l 1
EndSplineSet
EndChar

StartChar: greater
Encoding: 62 62 21
Width: 512
GlyphClass: 2
Flags: MW
LayerCount: 2
Fore
SplineSet
359 238 m 1
 42 354 l 1
 42 416 l 1
 471 259 l 1
 471 215 l 1
 42 60 l 1
 42 122 l 1
 359 238 l 1
EndSplineSet
EndChar

StartChar: question
Encoding: 63 63 22
Width: 430
GlyphClass: 2
Flags: MW
LayerCount: 2
Fore
SplineSet
127 571 m 0
 127 550 136 544 136 517 c 0
 136 492 113 476 83 476 c 0
 59 476 26 496 26 534 c 0
 26 569 45 592 79 620 c 0
 109 645 155 659 216 659 c 0
 330 659 401 598 401 506 c 0
 401 432 338 385 288 348 c 0
 260 328 227 301 227 229 c 2
 227 206 l 2
 227 184 223 172 192 172 c 0
 161 172 158 184 158 206 c 2
 158 231 l 2
 158 272 160 329 231 394 c 0
 266 425 286 463 286 513 c 0
 286 571 262.1 623 206 623 c 0
 162 623 127 599 127 571 c 0
EndSplineSet
Refer: 256 46 N 1 0 0 1 70 0 2
EndChar

StartChar: at
Encoding: 64 64 23
Width: 988
GlyphClass: 2
Flags: MW
LayerCount: 2
Fore
SplineSet
606 320 m 0
 606 355 582 382 557 382 c 0
 543 382 511 381 476 343 c 0
 431 295 414 227 414 164 c 0
 414 117 423 72 470 72 c 0
 500 72 550 107 577 193 c 0
 587 226 606 296 606 320 c 0
640 75 m 0
 640 62 647 61 658 61 c 0
 695 61 805 129 805 273 c 0
 805 494 621 584 504 584 c 0
 349 584 186 459 186 228 c 0
 186 80 277 -121 521 -121 c 0
 598 -121 669 -97 731 -46 c 1
 752 -75 l 1
 688 -124 625 -160 502 -160 c 0
 265 -160 92 -7 92 221 c 0
 92 428 260 621 513 621 c 0
 739 621 890 476 890 287 c 0
 890 147 772 19 638 19 c 0
 568 19 550 55 550 76 c 1
 509 38 468 30 444 30 c 0
 328 30 317 117 317 158 c 0
 317 303 439 415 554 415 c 0
 602 415 631 398 648 377 c 1
 685 410 l 1
 712 399 l 1
 653 141 l 2
 647 115 640 86 640 75 c 0
EndSplineSet
EndChar

StartChar: A
Encoding: 65 65 24
Width: 699
GlyphClass: 2
Flags: MW
LayerCount: 2
Fore
SplineSet
253 288 m 2
 403 288 l 1
 320 514 l 1
 234 300 l 1
 234 291 235 288 253 288 c 2
148 79 m 2
 137 50 136 33 195 33 c 0
 211 33 216 31 216 23 c 2
 216 3 l 1
 211 -1 l 1
 211 -1 119 1 95 1 c 0
 70 1 10 -1 10 -1 c 1
 2 2 l 1
 2 23 l 2
 2 33 10 33 22 33 c 0
 42 33 72 50 89 91 c 2
 312 627 l 2
 322 651 343 658 354 658 c 0
 375 658 391 648 399 627 c 2
 601 91 l 2
 615 54 629 33 654 33 c 2
 682 33 l 2
 697 33 697 31 697 23 c 2
 697 3 l 1
 692 -1 l 1
 692 -1 596 1 558 1 c 0
 522 1 414 -1 414 -1 c 1
 406 4 l 1
 406 23 l 2
 406 31 414 33 432 33 c 2
 459 33 l 2
 476 33 484 44 484 59 c 0
 484 64 484 70 482 73 c 2
 420 241 l 1
 236 241 l 2
 216 241 211 240 205 227 c 2
 148 79 l 2
EndSplineSet
Position2: "'cpsp' Versalabstaende 1" dx=2 dy=0 dh=5 dv=0
EndChar

StartChar: B
Encoding: 66 66 25
Width: 620
GlyphClass: 2
Flags: MW
LayerCount: 2
Fore
SplineSet
221 562 m 2
 221 376 l 1
 277 376 l 2
 348 376 403 409 403 489 c 0
 403 587 337 605 291 605 c 0
 226 605 221 591 221 562 c 2
221 334 m 1
 221 84 l 2
 221 55 227 40 287 40 c 0
 419 40 450 127 450 187 c 0
 450 273 395 334 292 334 c 2
 221 334 l 1
22 21 m 2
 22 28 25 33 40 33 c 2
 69 33 l 2
 92 33 99 42 99 74 c 2
 99 572 l 2
 99 602 93 613 69 613 c 2
 36 613 l 2
 25 613 22 616 22 623 c 2
 22 645 l 1
 24 647 l 1
 24 647 124.7 645 154.7 645 c 0
 184.7 645 234 647 284 647 c 0
 485.8 647 523 560 523 491 c 0
 523 440 481 385 427 361 c 1
 427 359 l 1
 533 331 577 264 577 176 c 0
 577 89 511 0 306 0 c 2
 23 0 l 1
 22 1 l 1
 22 21 l 2
EndSplineSet
Position2: "'cpsp' Versalabstaende 1" dx=2 dy=0 dh=5 dv=0
EndChar

StartChar: C
Encoding: 67 67 26
Width: 666
GlyphClass: 2
Flags: MW
LayerCount: 2
Fore
SplineSet
371 -10 m 0
 143 -10 34 154 34 315 c 0
 34 512 187 658 372 658 c 0
 505 658 539 614 590 614 c 1
 594 556 602 500 612 445 c 1
 574 437 l 1
 543 532 500 617 372 617 c 0
 275 617 164 532 164 334 c 0
 164 192 231 34 370 34 c 0
 451 34 524 66 601 153 c 1
 631 129 l 1
 563 39 477 -10 371 -10 c 0
EndSplineSet
Position2: "'cpsp' Versalabstaende 1" dx=2 dy=0 dh=5 dv=0
EndChar

StartChar: D
Encoding: 68 68 27
Width: 718
GlyphClass: 2
Flags: MW
LayerCount: 2
Fore
SplineSet
221 75 m 2
 221 46 230 40 308 40 c 0
 436 40 549 88 549 284 c 0
 549 435 480 606 283 606 c 0
 247 606 221 603 221 571 c 2
 221 75 l 2
24 0 m 1
 22 2 l 1
 22 24 l 2
 22 30 26 33 30 33 c 2
 44 33 l 2
 84 33 99 45 99 77 c 2
 99 569 l 2
 99 601 84 613 44 613 c 2
 30 613 l 2
 26 613 22 616 22 621 c 2
 22 644 l 1
 24 646 l 1
 320 646 l 2
 523 646 681 494 681 309 c 0
 681 63 487 0 338 0 c 2
 24 0 l 1
EndSplineSet
Position2: "'cpsp' Versalabstaende 1" dx=2 dy=0 dh=5 dv=0
EndChar

StartChar: E
Encoding: 69 69 28
Width: 562
GlyphClass: 2
Flags: MW
LayerCount: 2
Fore
SplineSet
27 0 m 1
 24 2 l 1
 24 24 l 2
 24 30 28 33 32 33 c 2
 46 33 l 2
 86 33 101 45 101 77 c 2
 101 569 l 2
 101 601 86 613 46 613 c 2
 32 613 l 2
 28 613 24 616 24 621 c 2
 24 644 l 1
 27 646 l 1
 493 646 l 1
 497 588 504 535 514 484 c 1
 474 475 l 1
 460 526 435 600 368 600 c 2
 238 600 l 2
 229 600 224 592 224 571 c 2
 224 365 l 1
 337 365 l 2
 362 365 366 396 372 436 c 0
 372 440 378 447 388 447 c 2
 409 447 l 1
 415 437 l 1
 413 421 408 381 408 344 c 0
 408 308 413 268 415 251 c 1
 409 242 l 1
 388 242 l 2
 378 242 372 248 372 252 c 0
 366 293 362 323 337 323 c 2
 224 323 l 1
 224 75 l 2
 224 52 229 46 238 46 c 2
 391 46 l 2
 446 46 482 105 499 179 c 1
 542 169 l 1
 532 116 522 54 515 0 c 1
 27 0 l 1
EndSplineSet
Position2: "'cpsp' Versalabstaende 1" dx=2 dy=0 dh=5 dv=0
EndChar

StartChar: F
Encoding: 70 70 29
Width: 513
GlyphClass: 2
Flags: MW
LayerCount: 2
Fore
SplineSet
223 76 m 2
 223 48 237 32 278 32 c 2
 292 32 l 2
 297 32 300 29 300 23 c 2
 300 0 l 1
 298 -2 l 1
 298 -2 198 0 162 0 c 0
 123 0 26 -2 26 -2 c 1
 24 0 l 1
 24 23 l 2
 24 29 28 32 32 32 c 2
 46 32 l 2
 86 32 101 44 101 76 c 2
 101 569 l 2
 101 601 86 613 46 613 c 2
 32 613 l 2
 28 613 24 616 24 621 c 2
 24 644 l 1
 27 646 l 1
 492 646 l 1
 496 588 503 535 513 484 c 1
 473 475 l 1
 459 526 434 600 367 600 c 2
 237 600 l 2
 228 600 223 592 223 571 c 2
 223 365 l 1
 336 365 l 2
 361 365 365 396 371 436 c 0
 371 440 377 447 387 447 c 2
 408 447 l 1
 414 437 l 1
 412 421 407 380.4 407 344 c 0
 407 307.6 412 268 414 251 c 1
 408 242 l 1
 387 242 l 2
 377 242 371 248 371 252 c 0
 365 293 361 323 336 323 c 2
 223 323 l 1
 223 76 l 2
EndSplineSet
Position2: "'cpsp' Versalabstaende 1" dx=2 dy=0 dh=5 dv=0
EndChar

StartChar: G
Encoding: 71 71 30
Width: 727
GlyphClass: 2
Flags: MW
AnchorPoint: "top_punkt" 385 720 basechar 0
LayerCount: 2
Fore
SplineSet
649 229 m 2
 649 114 l 2
 649 99 653 92 661 85 c 1
 591 26 512 -10 386 -10 c 0
 173 -10 29 134 29 308 c 0
 29 528 205 658 383 658 c 0
 518 658 551 614 602 614 c 1
 605 556 614 500 624 445 c 1
 585 437 l 1
 557 531 509 617 382 617 c 0
 261 617 159 498 159 327 c 0
 159 176 243 34 404 34 c 0
 447 34 498 46 532 74 c 1
 532 229 l 2
 532 260 500 272 460 272 c 2
 446 272 l 2
 442 272 438 275 438 281 c 2
 438 304 l 1
 440 306 l 1
 440 306 537 304 576 304 c 0
 612 304 706 306 706 306 c 1
 708 304 l 1
 708 281 l 2
 708 275 705 272 700 272 c 2
 694 272 l 2
 653 272 649 256 649 229 c 2
EndSplineSet
Position2: "'cpsp' Versalabstaende 1" dx=2 dy=0 dh=5 dv=0
EndChar

StartChar: divide
Encoding: 247 247 37
Width: 537
GlyphClass: 2
Flags: MW
LayerCount: 2
Fore
SplineSet
221.3 367.7 m 0
 221.3 393.7 242.3 414.6 268.3 414.6 c 0
 294.3 414.6 315.2 393.7 315.2 367.7 c 0
 315.2 342.6 294.3 321.6 268.3 321.6 c 0
 242.3 321.6 221.3 342.6 221.3 367.7 c 0
221.3 99.7 m 0
 221.3 125.7 242.3 146.6 268.3 146.6 c 0
 294.3 146.6 315.2 125.7 315.2 99.7 c 0
 315.2 74.6 294.3 53.6 268.3 53.6 c 0
 242.3 53.6 221.3 74.6 221.3 99.7 c 0
EndSplineSet
Refer: 1205 8722 N 1 0 0 1 0 0 2
EndChar

StartChar: Eogonek
Encoding: 280 280 44
Width: 562
GlyphClass: 2
UnlinkRmOvrlpSave: 1
Flags: MW
LayerCount: 2
Fore
SplineSet
506 10 m 25
 506 0 l 17
 426 0 371 -75 371 -126 c 0
 371 -158 393 -185 429 -185 c 0
 459 -185 479 -170 499 -149 c 1
 514 -157 l 1
 490 -204 440 -224 404 -224 c 0
 351 -224 311 -193 311 -139 c 0
 311 -81.3195447711 368.25 -15.75 432 10 c 9
 506 10 l 25
EndSplineSet
Refer: 28 69 N 1 0 0 1 0 0 2
Position2: "'cpsp' Versalabstaende 1" dx=2 dy=0 dh=5 dv=0
EndChar

StartChar: eogonek
Encoding: 281 281 45
Width: 461
GlyphClass: 2
Flags: MW
LayerCount: 2
Fore
SplineSet
154 285 m 1
 314 285 l 1
 316 287 316 290 316 296 c 0
 316 376 275 402 248 402 c 0
 227 402 168 387 154 285 c 1
397 109 m 1
 422 88 l 1
 400.7 44.8 368.4 18.8 331.7 4.6 c 1
 292.6 -31.4 256 -70.1 256 -126 c 0
 256 -152 280 -178 311 -178 c 0
 328 -178 346 -164 367 -140 c 1
 389 -156 l 1
 361 -197 326 -218 287 -218 c 0
 231 -218 184 -187 184 -132 c 0
 184 -88.1 217.9 -45.3 258.4 -9.7 c 1
 254.3 -9.9 250.1 -10 246 -10 c 0
 94 -10 34 88 34 198 c 0
 34 351 144 444 249 444 c 0
 396 444 431 351 431 266 c 0
 431 252 416 245 392 245 c 2
 149 245 l 1
 149 240 149 226 149 219 c 0
 149 121 207 46 285 46 c 0
 323 46 360 64 397 109 c 1
EndSplineSet
EndChar

StartChar: Hbar
Encoding: 294 294 58
Width: 723
GlyphClass: 2
UnlinkRmOvrlpSave: 1
Flags: MW
LayerCount: 2
Fore
SplineSet
41 510 m 1
 41 549 l 1
 656 549 l 1
 656 510 l 1
 41 510 l 1
EndSplineSet
Refer: 2193 72 N 1 0 0 1 0 0 2
Position2: "'cpsp' Versalabstaende 1" dx=2 dy=0 dh=5 dv=0
EndChar

StartChar: hbar
Encoding: 295 295 59
Width: 550
GlyphClass: 2
UnlinkRmOvrlpSave: 1
Flags: MW
LayerCount: 2
Fore
SplineSet
26 530 m 1
 26 569 l 1
 341 569 l 1
 341 530 l 1
 26 530 l 1
EndSplineSet
Refer: 288 104 N 1 0 0 1 0 0 2
EndChar

StartChar: itilde
Encoding: 297 297 61
Width: 286
GlyphClass: 2
Flags: MW
LayerCount: 2
Fore
SplineSet
197.6 574 m 0
 217.4 574 229.1 583 241.7 632 c 1
 266.9 622 l 1
 255.2 554 228.2 514 185 514 c 0
 164.3 514 144.5 529 126.5 544 c 1
 108.5 557 90.5 570 74.3 570 c 0
 50 570 40.1 555 30.2 517 c 1
 6.8 525 l 1
 19.4 593 41 631 81.5 631 c 0
 109.4 631 130.1 615 148.1 599 c 0
 164.3 585 179.6 574 197.6 574 c 0
EndSplineSet
Refer: 419 305 N 1 0 0 1 0 0 2
EndChar

StartChar: imacron
Encoding: 299 299 63
Width: 286
GlyphClass: 2
Flags: MW
LayerCount: 2
Fore
SplineSet
253.2 535 m 2
 6.6 535 l 2
 -3.3 535 -6.9 544 -6.9 553 c 0
 -6.9 565 3.9 585 15.6 585 c 2
 264 585 l 2
 273 585 276.6 576 276.6 568 c 0
 276.6 555 265.8 535 253.2 535 c 2
EndSplineSet
Refer: 419 305 N 1 0 0 1 0 0 2
EndChar

StartChar: ibreve
Encoding: 301 301 65
Width: 286
GlyphClass: 2
Flags: MW
LayerCount: 2
Fore
SplineSet
39.9 655 m 1
 41.7 601 80.4 561 137.1 561 c 0
 179.4 561 230.7 591 233.4 655 c 1
 262.2 640 l 1
 253.2 535 183 497 137.1 497 c 0
 64.2 497 16.5 559 10.2 640 c 1
 39.9 655 l 1
EndSplineSet
Refer: 419 305 N 1 0 0 1 0 0 2
EndChar

StartChar: Iogonek
Encoding: 302 302 66
Width: 319
GlyphClass: 2
Flags: MW
LayerCount: 2
Fore
SplineSet
172 -225 m 0
 119 -225 79 -194 79 -140 c 0
 79 -92.1 119.7 -33.3 180.8 -0.1 c 1
 172.7 0 165.6 0 160 0 c 0
 121 0 24 -2 24 -2 c 1
 22 0 l 1
 22 23 l 2
 22 29 26 32 30 32 c 2
 44 32 l 2
 84 32 99 44 99 76 c 2
 99 569 l 2
 99 601 84 613 44 613 c 2
 30 613 l 2
 26 613 22 616 22 621 c 2
 22 645 l 1
 24 647 l 1
 24 647 121 645 160 645 c 0
 196 645 296 647 296 647 c 1
 298 645 l 1
 298 621 l 2
 298 616 295 613 290 613 c 2
 276 613 l 2
 235 613 221 597 221 569 c 2
 221 76 l 2
 221 48 235 32 276 32 c 2
 290 32 l 2
 295 32 298 29 298 23 c 2
 298 0 l 1
 296 -2 l 1
 296 -2 282.7 -1.7 264 -1.4 c 1
 189.5 -7.3 139 -78.2 139 -127 c 0
 139 -159 161 -186 197 -186 c 0
 227 -186 248 -171 267 -150 c 1
 282 -158 l 1
 258 -205 208 -225 172 -225 c 0
EndSplineSet
Position2: "'cpsp' Versalabstaende 1" dx=2 dy=0 dh=5 dv=0
EndChar

StartChar: iogonek
Encoding: 303 303 67
Width: 286
GlyphClass: 2
Flags: MW
LayerCount: 2
Fore
SplineSet
139 -225 m 0
 85 -225 46 -194 46 -140 c 0
 46 -92 86.3 -33.2 147.2 -0 c 1
 108.7 -0.2 37 -2 37 -2 c 2
 35 0 l 1
 35 23 l 2
 35 29 38.1 31.3 42 32 c 2
 54 34 l 2
 85 39.2 101 49 101 77 c 2
 101 321 l 2
 101 371 93 382 79 383 c 2
 38 387 l 1
 36 417 l 1
 105.5 426.5 175.5 437 207 447 c 0
 209.4 447 214 446.4 214 444 c 2
 214 444 211 371.3 211 321.3 c 2
 211 77 l 2
 211 49 228.4 39.9 258 34 c 2
 268 32 l 2
 271.9 31.1 276 29 276 23 c 2
 276 0 l 1
 274 -2 l 1
 274 -2 256.8 -1.6 234.5 -1.1 c 1
 157.5 -4.4 106 -77.2 106 -127 c 0
 106 -159 128 -186 164 -186 c 0
 194 -186 214 -171 233 -150 c 1
 249 -158 l 1
 225 -205 174 -225 139 -225 c 0
95 571 m 0
 95 604 122 631 155 631 c 0
 188 631 215 604 215 571 c 0
 215 538 188 511 155 511 c 0
 122 511 95 538 95 571 c 0
EndSplineSet
EndChar

StartChar: uni0408
Encoding: 1032 1032 69
Width: 421
GlyphClass: 2
Flags: MW
LayerCount: 2
Fore
SplineSet
152 33 m 0
 201 33 208 88 208 181 c 2
 208 559 l 2
 208 589 186 618 146 618 c 2
 110 618 l 2
 105 618 102 621 102 626 c 2
 102 645 l 1
 104 646 l 1
 104 646 249 645 288 645 c 0
 323 645 407 646 407 646 c 1
 409 645 l 1
 409 626 l 2
 409 621 406 618 401 618 c 2
 384 618 l 2
 343 618 330 602 330 574 c 2
 330 203 l 2
 330 24 236 -12 173 -12 c 0
 108 -12 27 23 27 67 c 0
 27 91 39 121 72 121 c 0
 104 121 121 98 124 74 c 0
 126 57 130 33 152 33 c 0
EndSplineSet
EndChar

StartChar: uni0414
Encoding: 1044 1044 74
Width: 696
GlyphClass: 2
Flags: MW
LayerCount: 2
Fore
SplineSet
112 52 m 0
 136 80 156 145 188 301 c 1
 210 415 222 512 222 576 c 0
 222 600 213 611 187 611 c 2
 157 611 l 2
 152 611 149 616 149 620 c 2
 149 637 l 2
 149 641 155 646 162 646 c 2
 655 646 l 2
 658 646 660 642 660 639 c 2
 660 620 l 2
 660 614 656 611 652 611 c 2
 623 611 l 2
 591 611 586 595 586 560 c 2
 586 83 l 2
 586 46 609 33 626 33 c 0
 648 33 656 20 656 8 c 2
 663 -141 l 1
 620 -141 l 1
 608 -85 567 0 487 0 c 2
 202 0 l 2
 118 0 88 -89 77 -141 c 1
 34 -141 l 1
 41 8 l 2
 41 20 52 33 62 33 c 0
 82 33 95 33 112 52 c 0
426 600 m 2
 324 600 l 2
 297 600 286 586 284 561 c 0
 276 459 262 361 249 293 c 0
 227 176 203 82 203 61 c 0
 203 49 215 44 230 44 c 2
 427 44 l 2
 451 44 464 47 464 83 c 2
 464 561 l 2
 464 591 458 600 426 600 c 2
EndSplineSet
EndChar

StartChar: uni0416
Encoding: 1046 1046 75
Width: 897
GlyphClass: 2
Flags: MW
LayerCount: 2
Fore
SplineSet
889 -1 m 1
 803 0 l 2
 731 1 702 70 664 180 c 1
 627.6 280.4 611.5 318.8 510 320 c 1
 510 76 l 2
 510 48 524 32 565 32 c 2
 579 32 l 2
 584 32 587 29 587 23 c 2
 587 0 l 1
 585 -2 l 1
 585 -2 485 0 449 0 c 0
 410 0 313 -2 313 -2 c 1
 311 0 l 1
 311 23 l 2
 311 29 315 32 319 32 c 2
 333 32 l 2
 373 32 388 44 388 76 c 2
 388 320 l 1
 285.5 318.8 269.4 280.4 234 180 c 0
 195 70 167 1 95 0 c 2
 9 -1 l 1
 7 1 l 1
 7 24 l 2
 7 30 11 33 15 33 c 2
 24 33 l 2
 57 33 108 103 160 236 c 0
 184 296 202 345 264 345 c 1
 192 371 176 470 167 533 c 0
 162 562 144 585 123 585 c 0
 111 585 100 578 90 567 c 0
 83 559 69 554 57 554 c 0
 38 554 13 564 13 601 c 0
 13 624 44 651 91 651 c 0
 154 651 213 602 220 544 c 1
 228 488 238 416 291 383 c 0
 313.8 369.7 354.8 368.1 388 368 c 1
 388 569 l 2
 388 601 373 613 333 613 c 2
 319 613 l 2
 315 613 311 616 311 621 c 2
 311 645 l 1
 313 647 l 1
 313 647 410 645 449 645 c 0
 485 645 585 647 585 647 c 1
 587 645 l 1
 587 621 l 2
 587 616 584 613 579 613 c 2
 565 613 l 2
 524 613 510 597 510 569 c 2
 510 368 l 1
 542.4 368.1 584.1 369.7 606 383 c 0
 660 416 670 488 677 544 c 0
 685 602 743 651 806 651 c 0
 854 651 885 624 885 601 c 0
 885 564 859 554 840 554 c 0
 829 554 815 559 807 567 c 1
 798 578 786 585 774 585 c 0
 754 585 735 562 731 533 c 0
 721 470 705 371 633 345 c 1
 695 345 714 296 738 236 c 0
 790 103 841 33 874 33 c 2
 883 33 l 2
 887 33 890 30 890 24 c 2
 890 1 l 1
 889 -1 l 1
EndSplineSet
EndChar

StartChar: uni0417
Encoding: 1047 1047 76
Width: 573
GlyphClass: 2
Flags: MW
LayerCount: 2
Fore
SplineSet
242 30 m 0
 312 30 395 56 395 176 c 0
 395 227 376 335 259 335 c 2
 176 335 l 2
 165 335 160 342 160 354 c 0
 160 365 165 374 176 374 c 2
 223 374 l 2
 342 374 367 451 367 506 c 0
 367 579 323 624 266 624 c 0
 132 624 105 538 105 463 c 1
 66 463 l 1
 71 646 l 1
 201 646 229 662 270 662 c 0
 389 662 486 618 486 522 c 0
 486 435 388 367 371 360 c 1
 441 340 527 299 527 192 c 0
 527 50 397 -12 259 -12 c 0
 178 -12 107 19 76 43 c 0
 49 64 30 91 30 118 c 0
 30 144 47 165 70 165 c 0
 98 165 124 152 134 120 c 0
 158 48 166 30 242 30 c 0
EndSplineSet
EndChar

StartChar: uni0418
Encoding: 1048 1048 77
Width: 783
GlyphClass: 2
Flags: MW
LayerCount: 2
Fore
SplineSet
677 569 m 2
 677 76 l 2
 677 45 692 33 732 33 c 2
 758 33 l 2
 763 33 767 30 767 24 c 2
 767 1 l 1
 765 -1 l 1
 765 -1 660 1 621 1 c 0
 585 1 468 -1 468 -1 c 1
 466 1 l 1
 466 24 l 2
 466 30 469 33 474 33 c 2
 500 33 l 2
 542 33 555 48 555 76 c 2
 555 493 l 1
 229 78 l 1
 229 77 l 2
 229 46 243 33 283 33 c 2
 310 33 l 2
 313 33 317 30 317 24 c 2
 317 1 l 1
 315 -1 l 1
 315 -1 208 1 169 1 c 0
 134 1 20 -1 20 -1 c 1
 18 1 l 1
 18 24 l 2
 18 30 21 33 25 33 c 2
 52 33 l 2
 93 33 106 49 106 77 c 2
 106 570 l 2
 106 601 92 613 52 613 c 2
 25 613 l 2
 21 613 18 616 18 621 c 2
 18 645 l 1
 20 646 l 1
 20 646 127 644 167 644 c 0
 202 644 315 646 315 646 c 1
 317 645 l 1
 317 621 l 2
 317 616 314 613 310 613 c 2
 283 613 l 2
 242 613 229 598 229 570 c 2
 229 146 l 1
 555 561 l 1
 555 569 l 2
 555 600 540 613 500 613 c 2
 474 613 l 2
 470 613 466 616 466 621 c 2
 466 645 l 1
 468 646 l 1
 468 646 578 644 617 644 c 0
 653 644 764 647 764 647 c 1
 766 645 l 1
 766 622 l 2
 766 616 763 613 758 613 c 2
 732 613 l 2
 691 613 677 597 677 569 c 2
EndSplineSet
EndChar

StartChar: uni0423
Encoding: 1059 1059 83
Width: 621
GlyphClass: 2
Flags: MW
LayerCount: 2
Fore
SplineSet
216 42 m 0
 246 42 265 50 293 115 c 1
 88 559 l 2
 79 579 59 613 10 613 c 0
 4 613 0 616 0 621 c 2
 0 645 l 1
 1 646 l 1
 1 646 64 645 105 645 c 0
 155 645 277 646 277 646 c 1
 279 645 l 1
 279 621 l 2
 279 616 276 613 272 613 c 2
 234 613 l 2
 201 613 201 602 212 575 c 1
 358 254 l 1
 479 575 l 2
 493 610 487 613 446 613 c 2
 416 613 l 2
 413 613 410 616 410 621 c 2
 410 645 l 1
 412 646 l 1
 412 646 498 645 540 645 c 0
 572 645 620 646 620 646 c 1
 622 645 l 1
 622 621 l 2
 622 615 615 613 611 613 c 0
 565 613 555 606 540 566 c 2
 383 161 l 2
 340 52 285 -22 195 -22 c 0
 135 -22 84 8 84 40 c 0
 84 68 97 88 129 88 c 0
 154 88 170 77 179 65 c 1
 187 56 201 42 216 42 c 0
EndSplineSet
EndChar

StartChar: uni0426
Encoding: 1062 1062 85
Width: 722
GlyphClass: 2
Flags: MW
LayerCount: 2
Fore
SplineSet
525 0 m 2
 525 0 306 0 166 0 c 2
 20 -1 l 1
 17 1 l 1
 17 22 l 2
 17 28 21 33 26 33 c 2
 52 33 l 2
 84 33 92 40 92 80 c 2
 92 567 l 2
 92 606 86 613 52 613 c 2
 22 613 l 2
 19 613 17 614 17 618 c 2
 17 645 l 1
 19 646 l 1
 159 645 l 1
 286 646 l 1
 288 645 l 1
 288 618 l 2
 288 615 286 613 283 613 c 2
 253 613 l 2
 221 613 214 607 214 567 c 2
 214 88 l 2
 214 47 222 42 253 42 c 2
 465 42 l 2
 501 42 504 57 504 89 c 2
 504 567 l 2
 504 599 503 613 465 613 c 2
 436 613 l 2
 432 613 430 614 430 618 c 2
 430 645 l 1
 433 646 l 1
 552 645 l 1
 697 646 l 1
 700 645 l 1
 700 623 l 2
 700 620 698 613 694 613 c 2
 665 613 l 1
 628 612 626 601 626 567 c 2
 626 82 l 2
 626 57 643 33 667 33 c 0
 692 33 696 21 697 13 c 2
 703 -136 l 1
 662 -136 l 1
 647 -65 603 0 525 0 c 2
EndSplineSet
EndChar

StartChar: uni0427
Encoding: 1063 1063 86
Width: 687
GlyphClass: 2
Flags: MW
LayerCount: 2
Fore
SplineSet
430 33 m 2
 466 33 470 46 470 80 c 2
 470 314 l 1
 397 263 329 248 271 248 c 0
 157 248 97 327 97 426 c 2
 97 572 l 2
 97 606 92 613 53 613 c 2
 36 613 l 2
 31 613 29 615 29 619 c 2
 29 646 l 1
 178 645 l 1
 287 646 l 1
 287 618 l 2
 287 615 285 613 281 613 c 2
 263 613 l 2
 221 613 219 603 219 572 c 2
 219 420 l 2
 219 338 241 311 313 311 c 0
 342 311 406 315 470 357 c 1
 470 571 l 2
 470 605 466 613 430 613 c 2
 400 613 l 2
 397 613 396 614 396 618 c 2
 396 646 l 1
 552 644 l 1
 666 646 l 1
 666 619 l 2
 666 615 664 613 661 613 c 2
 631 613 l 2
 597 613 592 608 592 571 c 2
 592 80 l 2
 592 43 597 33 631 33 c 2
 661 33 l 2
 664 33 666 30 666 27 c 2
 666 -1 l 1
 552 1 l 1
 386 -1 l 1
 386 27 l 2
 386 31 387 33 391 33 c 2
 430 33 l 2
EndSplineSet
EndChar

StartChar: uni0428
Encoding: 1064 1064 87
Width: 1087
GlyphClass: 2
Flags: MW
LayerCount: 2
Fore
SplineSet
981 569 m 2
 981 75 l 2
 981 40 990 33 1021 33 c 2
 1051 33 l 2
 1054 33 1056 31 1056 28 c 2
 1056 1 l 1
 1054 -1 l 1
 939 2 l 1
 221 2 l 1
 34 -1 l 1
 32 1 l 1
 32 28 l 2
 32 31 34 33 37 33 c 2
 67 33 l 2
 101 33 106 41 106 80 c 2
 106 569 l 2
 106 600 91 613 52 613 c 2
 25 613 l 2
 21 613 17 616 17 621 c 2
 17 645 l 1
 19 646 l 1
 19 646 127 645 167 645 c 0
 202 645 313 646 313 646 c 1
 315 645 l 1
 315 621 l 2
 315 616 312 613 307 613 c 2
 283 613 l 2
 242 613 229 597 229 569 c 2
 229 88 l 2
 229 56 229 42 268 42 c 2
 448 42 l 2
 479 42 482 57 482 88 c 2
 482 569 l 2
 482 600 467 613 427 613 c 2
 403 613 l 2
 399 613 395 616 395 621 c 2
 395 645 l 1
 397 646 l 1
 397 646 503 645 542 645 c 0
 578 645 668 646 668 646 c 1
 690 645 l 1
 690 621 l 2
 690 616 688 613 683 613 c 2
 659 613 l 2
 618 613 604 597 604 569 c 2
 604 88 l 2
 604 58 608 42 641 42 c 2
 820 42 l 2
 853 42 859 49 859 88 c 2
 859 569 l 2
 859 600 844 613 805 613 c 2
 781 613 l 2
 776 613 772 616 772 621 c 2
 772 645 l 1
 774 646 l 1
 774 646 880 645 919 645 c 0
 955 645 1068 646 1068 646 c 1
 1070 645 l 1
 1070 621 l 2
 1070 616 1067 613 1062 613 c 2
 1036 613 l 2
 995 613 981 597 981 569 c 2
EndSplineSet
EndChar

StartChar: uni0429
Encoding: 1065 1065 88
Width: 1089
GlyphClass: 2
Flags: MW
LayerCount: 2
Fore
SplineSet
229 569 m 2
 229 88 l 2
 229 58 231 41 268 41 c 2
 440 41 l 2
 478 41 482 52 482 88 c 2
 482 569 l 2
 482 600 467 613 427 613 c 2
 403 613 l 2
 399 613 395 616 395 621 c 2
 395 645 l 1
 397 646 l 1
 397 646 509 645 548 645 c 0
 584 645 688 646 688 646 c 1
 690 645 l 1
 690 621 l 2
 690 616 688 613 683 613 c 2
 659 613 l 2
 618 613 604 597 604 569 c 2
 604 88 l 2
 604 52 609 41 652 41 c 2
 820 41 l 2
 855 41 859 52 859 88 c 2
 859 569 l 2
 859 600 844 613 805 613 c 2
 781 613 l 2
 776 613 772 616 772 621 c 2
 772 645 l 1
 774 646 l 1
 774 646 884 645 923 645 c 0
 958 645 1068 646 1068 646 c 1
 1070 645 l 1
 1070 621 l 2
 1070 616 1067 613 1062 613 c 2
 1036 613 l 2
 995 613 981 597 981 569 c 2
 981 85 l 2
 981 46 1006 33 1021 33 c 0
 1039 33 1051 23 1052 6 c 2
 1058 -141 l 1
 1014 -141 l 1
 1007 -97 944 1 858 1 c 2
 188 1 l 1
 34 -1 l 1
 32 0 l 1
 32 26 l 2
 32 30 34 31 37 31 c 2
 67 31 l 2
 100 31 106 35 106 74 c 2
 106 569 l 2
 106 600 91 613 52 613 c 2
 25 613 l 2
 21 613 17 616 17 621 c 2
 17 645 l 1
 19 646 l 1
 19 646 134 645 173 645 c 0
 208 645 313 646 313 646 c 1
 315 645 l 1
 315 621 l 2
 315 616 312 613 307 613 c 2
 283 613 l 2
 242 613 229 597 229 569 c 2
EndSplineSet
EndChar

StartChar: uni042A
Encoding: 1066 1066 89
Width: 780
GlyphClass: 2
Flags: MW
LayerCount: 2
Fore
SplineSet
387 331 m 1
 387 84 l 2
 387 51 392 34 447 34 c 0
 599 34 613 121 613 183 c 0
 613 243 603 331 475 331 c 2
 387 331 l 1
324 645 m 2
 360 645 474 646 474 646 c 1
 476 645 l 1
 476 621 l 2
 476 616 473 613 468 613 c 2
 442 613 l 2
 401 613 387 597 387 569 c 2
 387 375 l 1
 448 375 l 2
 693 375 744 272 744 183 c 0
 744 16 566 -1 445 -1 c 0
 409 -1 357 1 328 1 c 0
 292 1 178 -1 178 -1 c 1
 176 1 l 1
 176 24 l 2
 176 30 179 33 184 33 c 2
 210 33 l 2
 251 33 265 49 265 77 c 2
 265 559 l 2
 265 586 254 602 226 602 c 2
 181 602 l 2
 115 602 82 512 73 469 c 1
 26 474 l 1
 35 530 40 584 42 646 c 1
 265 646 l 1
 324 645 l 2
EndSplineSet
EndChar

StartChar: uni042C
Encoding: 1068 1068 91
Width: 617
GlyphClass: 2
Flags: MW
LayerCount: 2
Fore
SplineSet
106 569 m 2
 106 597 92 613 51 613 c 2
 25 613 l 2
 20 613 17 616 17 621 c 2
 17 645 l 1
 19 646 l 1
 19 646 130 645 166 645 c 0
 205 645 315 646 315 646 c 1
 317 645 l 1
 317 621 l 2
 317 616 313 613 309 613 c 2
 283 613 l 2
 243 613 228 600 228 569 c 2
 228 376 l 1
 306 376 l 2
 551 376 581 272 581 183 c 0
 581 16 424 -1 303 -1 c 0
 267 -1 195 1 166 1 c 0
 137 1 19 -1 19 -1 c 1
 17 1 l 1
 17 24 l 2
 17 30 20 33 25 33 c 2
 51 33 l 2
 92 33 106 49 106 77 c 2
 106 569 l 2
228 331 m 1
 228 84 l 2
 228 51 233 34 288 34 c 0
 439 34 454 121 454 183 c 0
 454 243 444 331 315 331 c 2
 228 331 l 1
EndSplineSet
EndChar

StartChar: uni042D
Encoding: 1069 1069 92
Width: 625
GlyphClass: 2
Flags: MW
LayerCount: 2
Fore
SplineSet
451 295 m 1
 406 273 371 273 360 273 c 0
 298 273 255 311 196 311 c 0
 158 311 142 295 134 295 c 0
 130 295 125 303 125 312 c 0
 125 336 188 370 247 370 c 0
 313 370 342 339 400 339 c 0
 419 339 436 342 451 346 c 1
 442 550 351 616 271 616 c 0
 176 616 106 540 81 454 c 1
 42 458 l 1
 53 511 61 558 63 613 c 1
 121 616 174 658 279 658 c 0
 444 658 582 550 582 333 c 0
 582 113 445 -12 275 -12 c 0
 189 -12 133 19 102 43 c 0
 75 64 54 95 54 122 c 0
 54 148 70 165 88 165 c 0
 117 165 132 152 143 120 c 0
 167 48 214 26 286 26 c 0
 409 26 449 161 451 295 c 1
EndSplineSet
EndChar

StartChar: uni042E
Encoding: 1070 1070 93
Width: 937
GlyphClass: 2
Flags: MW
LayerCount: 2
Fore
SplineSet
593 619 m 0
 509 619 443 537 443 327 c 0
 443 135 516 27 624 27 c 0
 727 27 771 131 771 310 c 0
 771 518 718 619 593 619 c 0
221 77 m 2
 221 49 235 33 276 33 c 2
 290 33 l 2
 295 33 298 30 298 24 c 2
 298 1 l 1
 296 -1 l 1
 296 -1 196 1 160 1 c 0
 121 1 24 -1 24 -1 c 1
 22 1 l 1
 22 24 l 2
 22 30 26 33 30 33 c 2
 44 33 l 2
 84 33 99 45 99 77 c 2
 99 569 l 2
 99 601 84 613 44 613 c 2
 30 613 l 2
 26 613 22 616 22 621 c 2
 22 645 l 1
 24 646 l 1
 24 646 121 645 160 645 c 0
 196 645 296 646 296 646 c 1
 298 645 l 1
 298 621 l 2
 298 616 295 613 290 613 c 2
 276 613 l 2
 235 613 221 597 221 569 c 2
 221 349 l 1
 318 349 l 1
 333 526 450 658 605 658 c 0
 772 658 898 527 898 329 c 0
 898 129 784 -12 606 -12 c 0
 448 -12 321 109 317 300 c 1
 221 300 l 1
 221 77 l 2
EndSplineSet
EndChar

StartChar: uni042F
Encoding: 1071 1071 94
Width: 612
GlyphClass: 2
Flags: MW
LayerCount: 2
Fore
SplineSet
383 320 m 1
 277 320 283 282 247 180 c 0
 208 70 179 1 107 0 c 2
 11 -1 l 1
 10 1 l 1
 10 24 l 2
 10 30 13 33 17 33 c 2
 26 33 l 2
 59 33 109 103 162 236 c 0
 178 277 192 311 218 329 c 1
 150 339 69 385 69 487 c 0
 69 556 113 646 299 646 c 0
 334 646 415 645 447 645 c 0
 479 645 596 646 596 646 c 1
 596 620 l 2
 596 616 594 613 588 613 c 2
 559 613 l 2
 517 613 505 603 505 569 c 2
 505 76 l 2
 505 45 521 33 560 33 c 2
 586 33 l 2
 591 33 595 30 595 24 c 2
 595 1 l 1
 593 -1 l 1
 593 -1 486 1 447 1 c 0
 411 1 296 -1 296 -1 c 1
 294 1 l 1
 294 24 l 2
 294 30 297 33 302 33 c 2
 329 33 l 2
 370 33 383 48 383 76 c 2
 383 320 l 1
383 570 m 2
 383 603 379 606 292 606 c 0
 236 606 177 595 177 502 c 0
 177 396 223 368 306 368 c 2
 383 368 l 1
 383 570 l 2
EndSplineSet
EndChar

StartChar: uni0447
Encoding: 1095 1095 95
Width: 581
GlyphClass: 2
Flags: MW
LayerCount: 2
Fore
SplineSet
370 354 m 2
 370 393 365 402 330 402 c 2
 314 402 l 2
 311 402 309 403 309 407 c 2
 309 434 l 1
 310 436 l 1
 420 434 l 1
 550 436 l 1
 552 434 l 1
 552 407 l 2
 552 404 550 402 546 402 c 2
 521 402 l 2
 487 402 480 395 480 354 c 2
 480 81 l 2
 480 43 484 33 521 33 c 2
 537 33 l 2
 541 33 542 31 542 28 c 2
 542 1 l 1
 540 -1 l 1
 540 -1 449 1 412 1 c 0
 372 1 310 -1 310 -1 c 1
 308 1 l 1
 308 27 l 2
 308 31 310 33 313 33 c 2
 330 33 l 2
 366 33 370 42 370 81 c 2
 370 189 l 1
 331 160 299 146 239 146 c 0
 141 146 71 191 71 297 c 2
 71 355 l 2
 71 393 65 402 30 402 c 2
 22 402 l 2
 19 402 17 403 17 407 c 2
 17 434 l 1
 18 436 l 1
 121 433 l 1
 241 436 l 1
 242 434 l 1
 242 408 l 2
 242 404 240 402 236 402 c 2
 221 402 l 2
 188 402 181 392 181 360 c 2
 181 293 l 2
 181 215 188 186 250 186 c 0
 299 186 338 198 370 229 c 1
 370 354 l 2
EndSplineSet
EndChar

StartChar: uni0448
Encoding: 1096 1096 96
Width: 923
GlyphClass: 2
Flags: MW
LayerCount: 2
Fore
SplineSet
815 355 m 2
 815 74 l 2
 815 34 822 33 856 33 c 2
 886 33 l 2
 890 33 892 30 892 27 c 2
 892 1 l 1
 890 -1 l 1
 758 0 l 1
 154 0 l 1
 43 -1 l 1
 42 1 l 1
 42 28 l 2
 42 31 43 33 47 33 c 2
 63 33 l 2
 98 33 104 36 104 75 c 2
 104 355 l 2
 104 393 98 402 63 402 c 2
 37 402 l 2
 34 402 32 403 32 407 c 2
 32 434 l 1
 33 436 l 1
 154 433 l 1
 277 436 l 1
 279 434 l 1
 279 408 l 2
 279 404 277 402 273 402 c 2
 254 402 l 2
 220 402 213 396 213 355 c 2
 213 90 l 2
 213 50 219 41 254 41 c 2
 364 41 l 2
 399 41 404 52 404 89 c 2
 404 354 l 2
 404 393 399 402 364 402 c 2
 344 402 l 2
 341 402 339 403 339 407 c 2
 339 434 l 1
 340 436 l 1
 454 434 l 1
 583 436 l 1
 584 434 l 1
 584 407 l 2
 584 404 583 402 579 402 c 2
 555 402 l 2
 521 402 514 395 514 354 c 2
 514 90 l 2
 514 48 526 41 555 41 c 2
 665 41 l 2
 702 41 705 59 705 90 c 2
 705 355 l 2
 705 393 700 402 665 402 c 2
 640 402 l 2
 637 402 635 403 635 407 c 2
 635 434 l 1
 636 436 l 1
 755 433 l 1
 880 436 l 1
 882 434 l 1
 882 408 l 2
 882 404 880 402 876 402 c 2
 855 402 l 2
 822 402 815 396 815 355 c 2
EndSplineSet
EndChar

StartChar: uni0449
Encoding: 1097 1097 97
Width: 917
GlyphClass: 2
Flags: MW
LayerCount: 2
Fore
SplineSet
815 355 m 2
 815 79 l 2
 815 54 828 33 851 33 c 0
 865 33 879 26 880 8 c 2
 886 -128 l 1
 843 -128 l 1
 831 -79 804 0 724 0 c 2
 155 0 l 1
 43 -1 l 1
 42 1 l 1
 42 27 l 2
 42 31 43 33 47 33 c 2
 63 33 l 2
 98 33 104 37 104 75 c 2
 104 355 l 2
 104 393 98 402 63 402 c 2
 37 402 l 2
 34 402 32 403 32 407 c 2
 32 434 l 1
 33 436 l 1
 154 433 l 1
 277 436 l 1
 279 434 l 1
 279 408 l 2
 279 404 277 402 273 402 c 2
 254 402 l 2
 220 402 213 396 213 355 c 2
 213 88 l 2
 213 49 219 40 254 40 c 2
 364 40 l 2
 399 40 404 51 404 88 c 2
 404 354 l 2
 404 393 399 402 364 402 c 2
 344 402 l 2
 341 402 339 403 339 407 c 2
 339 434 l 1
 340 436 l 1
 454 434 l 1
 583 436 l 1
 584 434 l 1
 584 407 l 2
 584 404 583 402 579 402 c 2
 555 402 l 2
 521 402 514 395 514 354 c 2
 514 88 l 2
 514 46 526 40 555 40 c 2
 665 41 l 2
 702 41 705 56 705 89 c 2
 705 355 l 2
 705 393 700 402 665 402 c 2
 640 402 l 2
 637 402 635 403 635 407 c 2
 635 434 l 1
 636 436 l 1
 755 433 l 1
 880 436 l 1
 882 434 l 1
 882 408 l 2
 882 404 880 402 876 402 c 2
 855 402 l 2
 822 402 815 396 815 355 c 2
EndSplineSet
EndChar

StartChar: uni044A
Encoding: 1098 1098 98
Width: 590
GlyphClass: 2
Flags: MW
LayerCount: 2
Fore
SplineSet
196 77 m 2
 196 347 l 2
 196 384 189 393 167 393 c 0
 85 393 78 357 61 275 c 1
 26 280 l 1
 33 326 37 377 38 435 c 1
 251 434 l 1
 380 436 l 1
 382 434 l 1
 382 406 l 2
 382 402 380 402 377 402 c 2
 346 402 l 2
 310 402 306 394 306 359 c 2
 306 261 l 1
 372 261 l 2
 468 261 559 230 559 136 c 0
 559 52 488 0 376 0 c 2
 249 1 l 2
 213 1 128 -1 128 -1 c 1
 126 1 l 1
 126 24 l 2
 126 30 129 33 134 33 c 2
 153 33 l 2
 187 33 196 48 196 77 c 2
449 126 m 0
 449 179 444 224 373 224 c 2
 306 224 l 1
 306 83 l 2
 306 47 323 36 369 36 c 0
 419 36 449 44 449 126 c 0
EndSplineSet
EndChar

StartChar: uni044C
Encoding: 1100 1100 100
Width: 500
GlyphClass: 2
Flags: MW
LayerCount: 2
Fore
SplineSet
359 126 m 0
 359 179 354 224 283 224 c 2
 216 224 l 1
 216 79 l 2
 216 43 233 36 279 36 c 0
 329 36 359 44 359 126 c 0
106 77 m 2
 106 357 l 2
 106 386 97 401 63 401 c 2
 44 401 l 2
 39 401 36 404 36 410 c 2
 36 433 l 1
 38 435 l 1
 38 435 124 433 159 433 c 0
 198 433 284 435 284 435 c 1
 286 433 l 1
 286 410 l 2
 286 404 282 401 278 401 c 2
 259 401 l 2
 226 401 216 386 216 357 c 2
 216 261 l 1
 282 261 l 2
 378 261 469 230 469 136 c 0
 469 52 398 0 287 0 c 2
 159 1 l 2
 124 1 38 -1 38 -1 c 1
 36 1 l 1
 36 24 l 2
 36 30 39 33 44 33 c 2
 63 33 l 2
 97 33 106 48 106 77 c 2
EndSplineSet
EndChar

StartChar: uni044D
Encoding: 1101 1101 101
Width: 452
GlyphClass: 2
Flags: MW
LayerCount: 2
Fore
SplineSet
297 231 m 1
 295 304 283 406 191 406 c 0
 110 406 89 354 75 293 c 1
 40 297 l 1
 46 341 49 375 51 430 c 1
 121 430 129 442 201 442 c 0
 324 442 408 335 408 225 c 0
 408 68 293 -12 187 -12 c 0
 104 -12 37 32 37 84 c 0
 37 98 53 113 71 113 c 0
 82 113 109 109 114 76 c 0
 120 42 151 23 193 23 c 0
 284 23 296 122 297 199 c 1
 277 189 252 180 228 180 c 0
 184 180 155 207 120 207 c 0
 108 207 98 202 90 202 c 0
 84 202 83 211 83 215 c 0
 83 230 128 248 171 248 c 0
 216 248 233 229 271 229 c 0
 281 229 289 230 297 231 c 1
EndSplineSet
EndChar

StartChar: uni044E
Encoding: 1102 1102 102
Width: 774
GlyphClass: 2
Flags: MW
LayerCount: 2
Fore
SplineSet
97 358 m 2
 97 386 87 402 54 402 c 2
 35 402 l 2
 30 402 27 405 27 410 c 2
 27 434 l 1
 29 436 l 1
 29 436 114 434 150 434 c 0
 189 434 275 436 275 436 c 1
 277 434 l 1
 277 410 l 2
 277 405 273 402 269 402 c 2
 250 402 l 2
 217 402 207 386 207 358 c 2
 207 240 l 1
 312.9 240 l 1
 324.4 359.8 399.6 444 526 444 c 0
 680.8 444 739.8 321 739.8 216 c 0
 739.8 115 672.2 -10 525 -10 c 0
 390.3 -10 316.7 96.1 311.6 196 c 1
 207 196 l 1
 207 77 l 2
 207 48 217 33 250 33 c 2
 269 33 l 2
 273 33 277 30 277 24 c 2
 277 1 l 1
 275 -1 l 1
 275 -1 189 1 150 1 c 0
 114 1 29 -1 29 -1 c 1
 27 1 l 1
 27 24 l 2
 27 30 30 33 35 33 c 2
 54 33 l 2
 87 33 97 48 97 77 c 2
 97 358 l 2
516.5 403 m 0
 455.7 403 427.2 314 427.2 229 c 0
 427.2 155 462.3 33 540.2 33 c 0
 574.4 33 624.8 57 624.8 184 c 0
 624.8 327 581.1 403 516.5 403 c 0
EndSplineSet
EndChar

StartChar: uni044F
Encoding: 1103 1103 103
Width: 479
GlyphClass: 2
Flags: MW
LayerCount: 2
Fore
SplineSet
287 235 m 1
 287 366 l 2
 287 398 280 402 241 402 c 0
 154 402 152 368 152 321 c 0
 152 271 163 235 219 235 c 2
 287 235 l 1
109 136 m 0
 125 177 146 198 174 204 c 1
 119 204 42 239 42 310 c 0
 42 384 132 435 206 435 c 2
 283 435 l 1
 343 434 l 1
 448 436 l 1
 450 434 l 1
 450 405 l 2
 450 403 449 402 446 402 c 2
 421 402 l 2
 396 402 379 393 379 372 c 2
 379 81 l 2
 379 55 399 33 418 33 c 2
 439 33 l 2
 447 33 450 25 450 24 c 2
 450 -1 l 1
 450 -1 384 1 341 1 c 0
 298 1 231 -1 231 -1 c 1
 231 26 l 2
 231 30 233 33 237 33 c 2
 251 33 l 2
 285 33 287 42 287 81 c 2
 287 195 l 1
 259 195 l 2
 220 195 196 145 175 84 c 1
 162 43 132 0 100 0 c 2
 19 -1 l 1
 16 1 l 1
 16 20 l 2
 16 27 22 28 26 28 c 2
 34 28 l 2
 63 28 95 98 109 136 c 0
EndSplineSet
EndChar

StartChar: uni04AE
Encoding: 1198 1198 104
Width: 541
GlyphClass: 2
Flags: MW
LayerCount: 2
Fore
SplineSet
232 75 m 2
 232 282 l 1
 235 280 l 1
 179 376 123 473 67 569 c 0
 54 592 47 604 42 607 c 0
 38 609 32 611 25 611 c 2
 10 611 l 1
 1 612 -19 615 -19 622 c 2
 -19 638 l 1
 -9 647 l 1
 -9 647 96 645 109 645 c 0
 115 645 236 647 236 647 c 1
 246 638 l 1
 246 623 l 2
 246 617 237 611 218 611 c 2
 189 611 l 2
 187 611 186 608 186 602 c 0
 186 594 189 585 195 575 c 0
 240 500 268 454 313 377 c 1
 350 443 386 509 421 575 c 0
 427 586 430 595 430 602 c 0
 430 609 429 611 426 611 c 2
 396 611 l 1
 374 613 370 618 370 622 c 2
 370 638 l 1
 379 647 l 1
 379 647 471 645 484 645 c 0
 492 645 584 647 584 647 c 1
 593 638 l 1
 593 623 l 2
 593 614 582 611 562 611 c 2
 541 611 l 2
 526 611 517 600 500 569 c 2
 353 292 l 1
 355 293 l 1
 355 75 l 2
 355 47 365 35 388 35 c 2
 414 35 l 2
 430 35 444 31 444 23 c 2
 444 8 l 1
 435 -1 l 1
 435 -1 334 1 296 1 c 0
 261 1 154 -1 154 -1 c 1
 145 8 l 1
 145 23 l 2
 145 31 156 35 174 35 c 2
 200 35 l 2
 224 35 232 50 232 75 c 2
EndSplineSet
EndChar

StartChar: uni1E08
Encoding: 7688 7688 137
Width: 666
GlyphClass: 2
Flags: MW
LayerCount: 2
Fore
SplineSet
348 -87 m 0
 329 -87 319 -88 303 -93 c 1
 297 -87 l 1
 339.5 -8.9 l 1
 132.9 5.5 34 161.6 34 315 c 0
 34 512 187 658 372 658 c 0
 505 658 539 614 590 614 c 1
 594 556 602 500 612 445 c 1
 574 437 l 1
 543 532 500 617 372 617 c 0
 275 617 164 532 164 334 c 0
 164 192 231 34 370 34 c 0
 451 34 524 66 601 153 c 1
 631 129 l 1
 563.9 40.2 479.2 -8.8 375.1 -10 c 1
 358.4 -54 l 1
 366.4 -52 381.4 -52 390.4 -52 c 0
 430.4 -52 463 -72 463 -110 c 0
 463 -163 403.4 -192.5 342.4 -192.5 c 0
 310.4 -192.5 295.4 -186.5 270.4 -175.5 c 1
 282 -149 l 1
 309 -159 320 -163 340 -163 c 0
 370 -163 390 -149 390 -122 c 0
 390 -103 366.9 -87 348 -87 c 0
EndSplineSet
Refer: 1681 857 N 1 0 0 1 565 126 2
EndChar

StartChar: uni1E09
Encoding: 7689 7689 138
Width: 435
GlyphClass: 2
Flags: MW
LayerCount: 2
Fore
SplineSet
200 -81 m 0
 181 -81 171 -82 155 -87 c 1
 149 -81 l 1
 190.5 -4.7 l 1
 87.7 15.2 37 90.3 37 201 c 0
 37 344 135 444 253 444 c 0
 362 444 411 394 411 340 c 0
 411 309 393 284 361 284 c 0
 329 284 307 304 304 331 c 0
 301 363 287 402 249 402 c 0
 196 402 151 337 151 226 c 0
 151 118 209 41 275 41 c 0
 312 41 343 58 386 106 c 1
 406 87 l 1
 376 26 320 -10 249 -10 c 0
 240.8 -10 232.8 -9.7 225.1 -9.2 c 1
 210.4 -48 l 1
 218.4 -46 233.4 -46 242.4 -46 c 0
 282.4 -46 315 -66 315 -104 c 0
 315 -157 255.4 -186.5 194.4 -186.5 c 0
 162.4 -186.5 147.4 -180.5 122.4 -169.5 c 1
 134 -143 l 1
 161 -153 172 -157 192 -157 c 0
 222 -157 242 -143 242 -116 c 0
 242 -97 218.9 -81 200 -81 c 0
EndSplineSet
Refer: 670 769 N 1 0 0 1 438 -37 2
EndChar

StartChar: uni1E10
Encoding: 7696 7696 145
Width: 718
GlyphClass: 2
Flags: MW
LayerCount: 2
Fore
SplineSet
165 -83 m 0
 146 -83 136 -84 120 -89 c 1
 114 -83 l 1
 159.2 0 l 1
 24 0 l 1
 22 2 l 1
 22 24 l 2
 22 30 26 33 30 33 c 2
 44 33 l 2
 84 33 99 45 99 77 c 2
 99 569 l 2
 99 601 84 613 44 613 c 2
 30 613 l 2
 26 613 22 616 22 621 c 2
 22 644 l 1
 24 646 l 1
 320 646 l 2
 523 646 681 494 681 309 c 0
 681 63 487 0 338 0 c 2
 194.3 0 l 1
 175.4 -50 l 1
 183.4 -48 198.4 -48 207.4 -48 c 0
 247.4 -48 280 -68 280 -106 c 0
 280 -159 220.4 -188.5 159.4 -188.5 c 0
 127.4 -188.5 112.4 -182.5 87.4 -171.5 c 1
 99 -145 l 1
 126 -155 137 -159 157 -159 c 0
 187 -159 207 -145 207 -118 c 0
 207 -99 183.9 -83 165 -83 c 0
221 75 m 2
 221 46 230 40 308 40 c 0
 436 40 549 88 549 284 c 0
 549 435 480 606 283 606 c 0
 247 606 221 603 221 571 c 2
 221 75 l 2
EndSplineSet
EndChar

StartChar: uni1E11
Encoding: 7697 7697 146
Width: 527
GlyphClass: 2
Flags: MW
LayerCount: 2
Fore
SplineSet
211 -79 m 0
 192 -79 182 -80 166 -85 c 1
 160 -79 l 1
 199.1 -7.2 l 1
 107.9 9 37 93.7 37 205 c 0
 37 276 59 338 105 384 c 1
 146 422 192 444 269 444 c 0
 285 444 320 433 334 419 c 1
 334 563 l 2
 334 628 324 636 304 636 c 1
 272 638 l 2
 268.8 638.2 266.3 640 266 643 c 2
 263 672 l 1
 303.5 675 405.9 688 431 698 c 1
 440 698 447 695 447 688 c 2
 447 688 444 648 444 583 c 2
 444 115 l 2
 444 85 455 64 508 59 c 1
 510 28 l 1
 444 21 401 5 368 -12 c 1
 334 -12 l 1
 336 35 l 1
 299.2 3.1 274.7 -9.2 235.1 -10 c 1
 221.4 -46 l 1
 229.4 -44 244.4 -44 253.4 -44 c 0
 293.4 -44 326 -64 326 -102 c 0
 326 -155 266.4 -184.5 205.4 -184.5 c 0
 173.4 -184.5 158.4 -178.5 133.4 -167.5 c 1
 145 -141 l 1
 172 -151 183 -155 203 -155 c 0
 233 -155 253 -141 253 -114 c 0
 253 -95 229.9 -79 211 -79 c 0
334 343 m 1
 312 376 286 402 255 402 c 0
 214 402 152 367 152 222 c 0
 152 96 199 40 256 40 c 0
 276 40 298 50 334 84 c 1
 334 343 l 1
EndSplineSet
EndChar

StartChar: uni1E14
Encoding: 7700 7700 149
Width: 562
GlyphClass: 2
Flags: MW
LayerCount: 2
Fore
SplineSet
20.9 831.1 m 1
 114.1 757.2 l 2
 122.6 750.2 125.6 744.9 125.6 738.7 c 0
 125.6 729.9 121.8 725.5 114.1 725.5 c 0
 107.9 725.5 97.9 728.1 81 736 c 2
 -37.6 791.5 l 1
 20.9 831.1 l 1
EndSplineSet
Refer: 1418 772 N 1 0 0 1 515 227 2
Refer: 28 69 N 1 0 0 1 0 0 2
EndChar

StartChar: uni1E15
Encoding: 7701 7701 150
Width: 461
GlyphClass: 2
Flags: MW
LayerCount: 2
Fore
SplineSet
228.2 767.9 m 1
 283.4 656.3 l 2
 286.6 650 290.6 640.1 290.6 632.9 c 0
 290.6 624.8 284.2 618.5 277 618.5 c 0
 270.6 618.5 262.6 623 249 636.5 c 2
 152.2 731 l 1
 153.8 740.9 l 1
 160.2 749 183.4 769.7 212.2 769.7 c 0
 216.2 769.7 225 768.8 228.2 767.9 c 1
EndSplineSet
Refer: 417 275 N 1 0 0 1 0 0 2
EndChar

StartChar: uni1E16
Encoding: 7702 7702 151
Width: 562
GlyphClass: 2
Flags: MW
LayerCount: 2
Fore
SplineSet
535.1 831.8 m 1
 582.8 786.1 l 1
 472 735 l 2
 455.8 727.1 445.8 724.5 438.9 724.5 c 0
 432 724.5 428.1 728.9 428.1 737.7 c 0
 428.1 743.9 429.6 748.3 439.6 756.2 c 2
 535.1 831.8 l 1
EndSplineSet
Refer: 1418 772 N 1 0 0 1 458 227 2
Refer: 28 69 N 1 0 0 1 0 0 2
EndChar

StartChar: uni1E17
Encoding: 7703 7703 152
Width: 461
GlyphClass: 2
Flags: MW
LayerCount: 2
Fore
SplineSet
274 761.9 m 1
 276.4 762.8 282.8 763.7 286.8 763.7 c 0
 310.8 763.7 326 751.1 332.4 742.1 c 1
 340.4 721.4 l 1
 244.4 624.2 l 2
 233.2 613.4 222 609.8 214 609.8 c 0
 207.6 609.8 201.2 617 201.2 622.4 c 0
 201.2 627.8 202.8 635.9 207.6 644 c 2
 274 761.9 l 1
EndSplineSet
Refer: 417 275 N 1 0 0 1 0 0 2
EndChar

StartChar: uni1E27
Encoding: 7719 7719 168
Width: 550
GlyphClass: 2
Flags: MW
LayerCount: 2
Fore
SplineSet
359 573 m 0
 359 602 383 626 413 626 c 0
 442 626 467 602 467 573 c 0
 467 543 442 519 413 519 c 0
 383 519 359 543 359 573 c 0
219 571 m 0
 219 600 244 625 273 625 c 0
 303 625 327 600 327 571 c 0
 327 542 303 517 273 517 c 0
 244 517 219 542 219 571 c 0
EndSplineSet
Refer: 288 104 N 1 0 0 1 0 0 2
EndChar

StartChar: uni1E28
Encoding: 7720 7720 169
Width: 723
GlyphClass: 2
Flags: MW
LayerCount: 2
Fore
SplineSet
502 569 m 2
 502 601 487 613 447 613 c 2
 433 613 l 2
 429 613 425 616 425 621 c 2
 425 645 l 1
 427 647 l 1
 427 647 524 645 563 645 c 0
 599 645 700 647 700 647 c 1
 702 645 l 1
 702 621 l 2
 702 616 699 613 694 613 c 2
 680 613 l 2
 639 613 625 597 625 569 c 2
 625 76 l 2
 625 48 639 32 680 32 c 2
 694 32 l 2
 699 32 702 29 702 23 c 2
 702 0 l 1
 700 -2 l 1
 700 -2 599 0 563 0 c 0
 524 0 427 -2 427 -2 c 1
 425 0 l 1
 425 23 l 2
 425 29 429 32 433 32 c 2
 447 32 l 2
 487 32 502 44 502 76 c 2
 502 321 l 1
 222 321 l 1
 222 76 l 2
 222 48 236 32 277 32 c 2
 291 32 l 2
 296 32 299 29 299 23 c 2
 299 0 l 1
 297 -2 l 1
 297 -2 215.5 -0.4 172.8 -0.1 c 1
 155.4 -46 l 1
 163.4 -44 178.4 -44 187.4 -44 c 0
 227.4 -44 260 -64 260 -102 c 0
 260 -155 200.4 -184.5 139.4 -184.5 c 0
 107.4 -184.5 92.4 -178.5 67.4 -167.5 c 1
 79 -141 l 1
 106 -151 117 -155 137 -155 c 0
 167 -155 187 -141 187 -114 c 0
 187 -95 163.9 -79 145 -79 c 0
 126 -79 116 -80 100 -85 c 1
 94 -79 l 1
 136.9 -0.1 l 1
 91.9 -0.6 24 -2 24 -2 c 2
 22 0 l 1
 22 23 l 2
 22 29 26 32 30 32 c 2
 44 32 l 2
 84 32 99 44 99 76 c 2
 99 569 l 2
 99 601 84 613 44 613 c 2
 30 613 l 2
 26 613 22 616 22 621 c 2
 22 645 l 1
 24 647 l 1
 24 647 121 645 160 645 c 0
 196 645 297 647 297 647 c 1
 299 645 l 1
 299 621 l 2
 299 616 296 613 291 613 c 2
 277 613 l 2
 236 613 222 597 222 569 c 2
 222 367 l 1
 502 367 l 1
 502 569 l 2
EndSplineSet
EndChar

StartChar: uni1E29
Encoding: 7721 7721 170
Width: 550
GlyphClass: 2
Flags: MW
LayerCount: 2
Fore
SplineSet
116 -77 m 0
 97 -77 87 -78 71 -83 c 1
 65 -77 l 1
 106.8 -0.3 l 1
 68.1 -0.9 19 -2 19 -2 c 1
 17 0 l 1
 17 23 l 2
 17 29 20.1 31.2 25 32 c 2
 37 34 l 2
 68.6 39.3 85 49 85 77 c 2
 85 563 l 2
 85 628 75 636 55 636 c 1
 23 638 l 2
 19.8 638.2 17.3 640 17 643 c 2
 14 672 l 1
 54.5 675 156.9 688 182 698 c 1
 191 698 198 695 198 688 c 2
 198 688 195 648 195 583 c 2
 195 381 l 1
 250 422 313 445 350 445 c 0
 436 445 468 389 468 284 c 2
 468 77 l 2
 468 49 484.4 39.9 517 34 c 2
 528 32 l 2
 531.9 31.3 536 29 536 23 c 2
 536 0 l 1
 534 -2 l 1
 534 -2 450 0 411 0 c 0
 376 0 297 -2 297 -2 c 1
 295 0 l 1
 295 23 l 2
 295 29 298.1 31.2 303 32 c 2
 310 34 l 2
 340.8 42.8 358 49 358 77 c 2
 358 295 l 2
 358 373 348 390 308 390 c 0
 290 390 241 374 195 341 c 1
 195 77 l 2
 195 49 212.1 43.1 244 34 c 2
 251 32 l 2
 254.9 31.3 259 29 259 23 c 2
 259 0 l 1
 257 -2 l 1
 257 -2 183.5 -0.2 143.1 -0 c 1
 126.4 -44 l 1
 134.4 -42 149.4 -42 158.4 -42 c 0
 198.4 -42 231 -62 231 -100 c 0
 231 -153 171.4 -182.5 110.4 -182.5 c 0
 78.4 -182.5 63.4 -176.5 38.4 -165.5 c 1
 50 -139 l 1
 77 -149 88 -153 108 -153 c 0
 138 -153 158 -139 158 -112 c 0
 158 -93 134.9 -77 116 -77 c 0
EndSplineSet
EndChar

StartChar: uni1E2E
Encoding: 7726 7726 175
Width: 319
GlyphClass: 2
Flags: MW
LayerCount: 2
Fore
SplineSet
225.1 889.8 m 1
 272.8 844.1 l 1
 162 793 l 2
 145.8 785.1 135.8 782.5 128.9 782.5 c 0
 122 782.5 118.1 786.9 118.1 795.7 c 0
 118.1 801.9 119.6 806.3 129.6 814.2 c 2
 225.1 889.8 l 1
EndSplineSet
Refer: 358 207 N 1 0 0 1 0 0 2
EndChar

StartChar: uni1E2F
Encoding: 7727 7727 176
Width: 286
GlyphClass: 2
Flags: MW
LayerCount: 2
Fore
SplineSet
186.2 742.7 m 1
 188.5 743.6 194.7 744.4 198.5 744.4 c 0
 221.6 744.4 236.2 732.1 242.4 723.3 c 1
 250.1 703.1 l 1
 157.7 608 l 2
 146.9 597.4 136.2 594 128.5 594 c 0
 122.3 594 116.1 601 116.1 606.3 c 0
 116.1 611.6 117.7 619.5 122.3 627.4 c 2
 186.2 742.7 l 1
EndSplineSet
Refer: 390 239 N 1 0 0 1 0 0 2
EndChar

StartChar: uni1E4C
Encoding: 7756 7756 205
Width: 730
GlyphClass: 2
Flags: MW
LayerCount: 2
Fore
SplineSet
413.4 749.2 m 0
 432.1 749.2 443.1 759.1 455 813 c 1
 478.8 802 l 1
 467.8 727.2 442.3 683.2 401.5 683.2 c 0
 382 683.2 363.2 699.7 346.2 716.2 c 1
 329.2 730.5 312.3 744.8 297 744.8 c 0
 274 744.8 264.7 728.3 255.3 686.5 c 1
 233.2 695.3 l 1
 245.1 770.1 265.6 811.9 303.8 811.9 c 0
 330.1 811.9 349.7 794.3 366.7 776.7 c 0
 382 761.3 396.4 749.2 413.4 749.2 c 0
608.1 804.8 m 1
 655.8 759.1 l 1
 545 708 l 2
 528.8 700.1 518.8 697.5 511.9 697.5 c 0
 505 697.5 501.1 701.9 501.1 710.7 c 0
 501.1 716.9 502.6 721.3 512.6 729.2 c 2
 608.1 804.8 l 1
EndSplineSet
Refer: 264 79 N 1 0 0 1 0 0 2
EndChar

StartChar: uni1E4D
Encoding: 7757 7757 206
Width: 519
GlyphClass: 2
Flags: MW
LayerCount: 2
Fore
SplineSet
350.2 752.7 m 1
 352.5 753.6 358.7 754.4 362.5 754.4 c 0
 385.6 754.4 400.2 742.1 406.4 733.3 c 1
 414.1 713.1 l 1
 321.7 618 l 2
 310.9 607.4 300.2 604 292.5 604 c 0
 286.3 604 280.1 611 280.1 616.3 c 0
 280.1 621.6 281.7 629.5 286.3 637.4 c 2
 350.2 752.7 l 1
EndSplineSet
Refer: 295 111 N 1 0 0 1 0 0 2
Refer: 672 771 N 1 0 0 1 388 -70 2
EndChar

StartChar: uni1E4E
Encoding: 7758 7758 207
Width: 730
GlyphClass: 2
Flags: MW
LayerCount: 2
Fore
SplineSet
413.4 749.2 m 0
 432.1 749.2 443.1 759.1 455 813 c 1
 478.8 802 l 1
 467.8 727.2 442.3 683.2 401.5 683.2 c 0
 382 683.2 363.2 699.7 346.2 716.2 c 1
 329.2 730.5 312.3 744.8 297 744.8 c 0
 274 744.8 264.7 728.3 255.3 686.5 c 1
 233.2 695.3 l 1
 245.1 770.1 265.6 811.9 303.8 811.9 c 0
 330.1 811.9 349.7 794.3 366.7 776.7 c 0
 382 761.3 396.4 749.2 413.4 749.2 c 0
EndSplineSet
Refer: 365 -1 N 1 0 0 1 0 0 2
EndChar

StartChar: uni1E50
Encoding: 7760 7760 209
Width: 730
GlyphClass: 2
Flags: MW
LayerCount: 2
Fore
SplineSet
473.8 730 m 2
 240.9 730 l 2
 231.5 730 228.2 739 228.2 748 c 0
 228.2 760 238.3 780 249.4 780 c 2
 484 780 l 2
 492.5 780 495.9 771 495.9 763 c 0
 495.9 750 485.7 730 473.8 730 c 2
95.9 805.1 m 1
 189.1 731.2 l 2
 197.6 724.2 200.6 718.9 200.6 712.7 c 0
 200.6 703.9 196.8 699.5 189.1 699.5 c 0
 182.9 699.5 172.9 702.1 156 710 c 2
 37.4 765.5 l 1
 95.9 805.1 l 1
EndSplineSet
Refer: 264 79 N 1 0 0 1 0 0 2
EndChar

StartChar: uni1E51
Encoding: 7761 7761 210
Width: 519
GlyphClass: 2
Flags: MW
LayerCount: 2
Fore
SplineSet
229.3 760.7 m 1
 282.4 651.6 l 2
 285.5 645.4 289.3 635.7 289.3 628.7 c 0
 289.3 620.8 283.1 614.6 276.2 614.6 c 0
 270 614.6 262.4 619 249.3 632.2 c 2
 156.1 724.6 l 1
 157.7 734.3 l 1
 163.9 742.2 186.2 762.4 213.9 762.4 c 0
 217.8 762.4 226.2 761.6 229.3 760.7 c 1
EndSplineSet
Refer: 447 333 N 1 0 0 1 0 0 2
EndChar

StartChar: uni1E52
Encoding: 7762 7762 211
Width: 730
GlyphClass: 2
Flags: MW
LayerCount: 2
Fore
SplineSet
451.8 730 m 2
 218.9 730 l 2
 209.5 730 206.2 739 206.2 748 c 0
 206.2 760 216.3 780 227.4 780 c 2
 462 780 l 2
 470.5 780 473.9 771 473.9 763 c 0
 473.9 750 463.7 730 451.8 730 c 2
603.1 804.8 m 1
 650.8 759.1 l 1
 540 708 l 2
 523.8 700.1 513.8 697.5 506.9 697.5 c 0
 500 697.5 496.1 701.9 496.1 710.7 c 0
 496.1 716.9 497.6 721.3 507.6 729.2 c 2
 603.1 804.8 l 1
EndSplineSet
Refer: 264 79 N 1 0 0 1 0 0 2
EndChar

StartChar: uni1E53
Encoding: 7763 7763 212
Width: 519
GlyphClass: 2
Flags: MW
LayerCount: 2
Fore
SplineSet
282.2 769.7 m 1
 284.5 770.6 290.7 771.4 294.5 771.4 c 0
 317.6 771.4 332.2 759.1 338.4 750.3 c 1
 346.1 730.1 l 1
 253.7 635 l 2
 242.9 624.4 232.2 621 224.5 621 c 0
 218.3 621 212.1 628 212.1 633.3 c 0
 212.1 638.6 213.7 646.5 218.3 654.4 c 2
 282.2 769.7 l 1
EndSplineSet
Refer: 447 333 N 1 0 0 1 0 0 2
EndChar

StartChar: uni1E65
Encoding: 7781 7781 230
Width: 401
GlyphClass: 2
Flags: MW
LayerCount: 2
Fore
SplineSet
52.4 630.9 m 0
 52.4 661.5 77.6 686.7 108.2 686.7 c 0
 138.8 686.7 164 661.5 164 630.9 c 0
 164 600.3 138.8 575.1 108.2 575.1 c 0
 77.6 575.1 52.4 600.3 52.4 630.9 c 0
EndSplineSet
Refer: 1981 115 N 1 0 0 1 0 0 2
Refer: 670 769 N 1 0 0 1 392 -37 2
EndChar

StartChar: uni1E67
Encoding: 7783 7783 232
Width: 401
GlyphClass: 2
Flags: MW
LayerCount: 2
Fore
SplineSet
150.4 685.9 m 0
 150.4 716.5 175.6 741.7 206.2 741.7 c 0
 236.8 741.7 262 716.5 262 685.9 c 0
 262 655.3 236.8 630.1 206.2 630.1 c 0
 175.6 630.1 150.4 655.3 150.4 685.9 c 0
EndSplineSet
Refer: 467 353 N 1 0 0 1 0 0 2
EndChar

StartChar: uni1E78
Encoding: 7800 7800 249
Width: 678
GlyphClass: 2
Flags: MW
LayerCount: 2
Fore
SplineSet
419.3 746.2 m 0
 438 746.2 449.1 756.1 461 810 c 1
 484.8 799 l 1
 473.8 724.2 448.3 680.2 407.5 680.2 c 0
 388 680.2 369.2 696.7 352.2 713.2 c 1
 335.2 727.5 318.2 741.8 302.9 741.8 c 0
 279.9 741.8 270.5 725.3 261.2 683.5 c 1
 239.2 692.3 l 1
 251.1 767.1 271.5 808.9 309.7 808.9 c 0
 336 808.9 355.6 791.3 372.6 773.7 c 0
 387.9 758.3 402.3 746.2 419.3 746.2 c 0
595.1 831.8 m 1
 642.8 786.1 l 1
 532 735 l 2
 515.8 727.1 505.8 724.5 498.9 724.5 c 0
 492 724.5 488.1 728.9 488.1 737.7 c 0
 488.1 743.9 489.6 748.3 499.6 756.2 c 2
 595.1 831.8 l 1
EndSplineSet
Refer: 270 85 N 1 0 0 1 0 0 2
EndChar

StartChar: uni1E79
Encoding: 7801 7801 250
Width: 550
GlyphClass: 2
Flags: MW
LayerCount: 2
Fore
SplineSet
320.2 781.7 m 1
 322.5 782.6 328.7 783.4 332.5 783.4 c 0
 355.6 783.4 370.2 771.1 376.4 762.3 c 1
 384.1 742.1 l 1
 291.7 647 l 2
 280.9 636.4 270.2 633 262.5 633 c 0
 256.3 633 250.1 640 250.1 645.3 c 0
 250.1 650.6 251.7 658.5 256.3 666.4 c 2
 320.2 781.7 l 1
EndSplineSet
Refer: 475 361 N 1 0 0 1 0 0 2
EndChar

StartChar: ampersand
Encoding: 38 38 252
Width: 729
GlyphClass: 2
Flags: MW
LayerCount: 2
Fore
SplineSet
-33 -84 m 1049
270 523 m 0
 270 502 285 458 311 420 c 1
 354 454 397 488 397 527 c 0
 397 581.1 376.1 613 337 613 c 0
 304 613 270 586 270 523 c 0
396 122 m 1
 347 187 276 286 253 322 c 1
 178 274 157 232 157 170 c 0
 157 82 205 31 256 31 c 0
 310 31 349 56 396 122 c 1
554 355 m 0
 568.5 390.1 544 400 514 402 c 0
 509 402.3 506 406 506 409 c 2
 506 433 l 1
 510 436 l 1
 510 436 573 434 613 434 c 0
 645 434 696 436 696 436 c 1
 698 434 l 1
 698 411 l 2
 698 406 693 402.4 687 402 c 0
 657 400 638.6 381.7 612 341 c 2
 612 341 529 217 491 156 c 1
 519 111 550 51 581 51 c 0
 609.1 51 627 61 652 109 c 1
 684 86 l 1
 637 1 600 -10 555 -10 c 0
 508 -10 480 6 431 78 c 1
 386 28 336 -10 247 -10 c 0
 128 -10 39 36 39 150 c 0
 39 224 80 277 232 364 c 1
 192 426 170 474 170 521 c 0
 170 581 233 654 347 654 c 0
 439 654 490 613.1 490 537 c 0
 490 486 428 421 342 372 c 1
 358 344 386 298.8 447.1 214 c 0
 451 207.2 459 205 463 210 c 0
 503 263 542 326 554 355 c 0
EndSplineSet
EndChar

StartChar: quotesingle
Encoding: 39 39 253
Width: 215
GlyphClass: 2
Flags: MW
LayerCount: 2
Fore
SplineSet
98 421 m 1
 83 425 l 1
 83 425 51 585 51 591 c 0
 51 614 73 645 116 645 c 0
 158 645 161 626 161 608 c 0
 161 593 124 427 124 427 c 1
 98 421 l 1
EndSplineSet
EndChar

StartChar: comma
Encoding: 44 44 254
Width: 244
GlyphClass: 2
Flags: MW
LayerCount: 2
Fore
SplineSet
124 102 m 0
 158.6 102 187 82 187 -6 c 0
 187 -57 137 -124 61 -137 c 1
 49.9 -129.5 48.8 -118.8 54 -106 c 1
 105 -93 138 -47 138 -27 c 0
 138 -5 113 0 104 1 c 0
 79 6 61 17 61 50 c 0
 61 79 86 102 124 102 c 0
EndSplineSet
EndChar

StartChar: hyphen
Encoding: 45 45 255
Width: 358
GlyphClass: 2
Flags: MW
LayerCount: 2
Fore
SplineSet
275 220 m 2
 75 220 l 2
 51 220 38 230 38 241 c 0
 38 258 61 289 82 289 c 2
 284 289 l 2
 312 289 320 279 320 268 c 0
 320 255 298 220 275 220 c 2
EndSplineSet
EndChar

StartChar: period
Encoding: 46 46 256
Width: 244
GlyphClass: 2
Flags: MW
LayerCount: 2
Fore
SplineSet
61.984375 48.9638671875 m 0
 61.984375 82.1875 88.77734375 108.98046875 122 108.98046875 c 0
 155.22265625 108.98046875 182.015625 82.1875 182.015625 48.9638671875 c 0
 182.015625 16.8125 155.22265625 -9.98046875 122 -9.98046875 c 0
 88.77734375 -9.98046875 61.984375 16.8125 61.984375 48.9638671875 c 0
EndSplineSet
EndChar

StartChar: zero
Encoding: 48 48 257
Width: 490
GlyphClass: 2
Flags: MW
LayerCount: 2
Fore
SplineSet
247 566 m 0
 213 566 158 525 158 284 c 0
 158 200 175 33 244 33 c 0
 310 33 333 210 333 323 c 0
 333 457 304 528 277 551 c 0
 267 560 255 566 247 566 c 0
243 -10 m 0
 122 -10 40 131 40 294 c 0
 40 491 140 610 247 610 c 0
 390 610 450 449 450 304 c 0
 450 69 326 -10 243 -10 c 0
EndSplineSet
EndChar

StartChar: I
Encoding: 73 73 258
Width: 319
GlyphClass: 2
Flags: MW
LayerCount: 2
Fore
SplineSet
221 76 m 2
 221 48 235 32 276 32 c 2
 290 32 l 2
 295 32 298 29 298 23 c 2
 298 0 l 1
 296 -2 l 1
 296 -2 196 0 160 0 c 0
 121 0 24 -2 24 -2 c 1
 22 0 l 1
 22 23 l 2
 22 29 26 32 30 32 c 2
 44 32 l 2
 84 32 99 44 99 76 c 2
 99 569 l 2
 99 601 84 613 44 613 c 2
 30 613 l 2
 26 613 22 616 22 621 c 2
 22 645 l 1
 24 647 l 1
 24 647 121 645 160 645 c 0
 196 645 296 647 296 647 c 1
 298 645 l 1
 298 621 l 2
 298 616 295 613 290 613 c 2
 276 613 l 2
 235 613 221 597 221 569 c 2
 221 76 l 2
EndSplineSet
Position2: "'cpsp' Versalabstaende 1" dx=2 dy=0 dh=5 dv=0
EndChar

StartChar: J
Encoding: 74 74 259
Width: 380
GlyphClass: 2
Flags: MW
AnchorPoint: "below" 109 -319 basechar 0
AnchorPoint: "above" 203 806 basechar 0
LayerCount: 2
Fore
SplineSet
70 -122 m 0
 103 -122 144 -99 144 81 c 2
 144 554 l 2
 144 603 124 609 73 612 c 2
 53 613 l 2
 48 613 44 616 44 621 c 2
 44 645 l 1
 46 647 l 1
 93 646 145 645 184 645 c 0
 224 645 296 646 343 647 c 1
 345 645 l 1
 345 621 l 2
 345 616 342 613 337 613 c 2
 320 612 l 2
 279 610 266 597 266 569 c 2
 266 103 l 2
 266 -25 224 -92 166 -138 c 1
 121 -176 52 -182 27 -182 c 0
 -27 -182 -83 -167 -83 -119 c 0
 -83 -90 -51 -71 -32 -71 c 0
 9 -71 24 -89 37 -107 c 0
 47 -120 56 -122 70 -122 c 0
EndSplineSet
Position2: "'cpsp' Versalabstaende 1" dx=2 dy=0 dh=5 dv=0
EndChar

StartChar: K
Encoding: 75 75 260
Width: 660
GlyphClass: 2
Flags: MW
LayerCount: 2
Fore
SplineSet
221 76 m 2
 221 48 235 32 276 32 c 2
 290 32 l 2
 295 32 298 29 298 23 c 2
 298 0 l 1
 296 -2 l 1
 296 -2 196 0 160 0 c 0
 121 0 24 -2 24 -2 c 1
 22 0 l 1
 22 23 l 2
 22 29 26 32 30 32 c 2
 44 32 l 2
 84 32 99 44 99 76 c 2
 99 569 l 2
 99 601 84 613 44 613 c 2
 30 613 l 2
 26 613 22 616 22 621 c 2
 22 645 l 1
 24 647 l 1
 24 647 121 645 160 645 c 0
 196 645 295 647 295 647 c 1
 297 645 l 1
 297 621 l 2
 297 616 294 613 290 613 c 2
 275 613 l 2
 234 613 221 597 221 569 c 2
 221 368 l 1
 429 563 l 2
 443 576 468 611 430 611 c 0
 409 611 390 613 390 623 c 2
 390 644 l 1
 394 647 l 1
 394 647 489 645 528 645 c 0
 563 645 645 647 645 647 c 1
 650 644 l 1
 650 623 l 2
 650 614 637 612 620 611 c 1
 589 606 551 587 506 544 c 1
 351 404 l 2
 308 364 303.6 352.7 324 331 c 2
 563 77 l 2
 588 51 607 34 624 34 c 2
 642 34 l 2
 657 34 658 30 658 22 c 2
 658 0 l 1
 655 -2 l 1
 655 -2 563 0 525 0 c 0
 489 0 446 -2 446 -2 c 1
 442 2 l 1
 442 28 l 2
 442 47 442 57 427 72 c 2
 221 294 l 1
 221 76 l 2
EndSplineSet
Position2: "'cpsp' Versalabstaende 1" dx=2 dy=0 dh=5 dv=0
EndChar

StartChar: L
Encoding: 76 76 261
Width: 538
GlyphClass: 2
Flags: MW
LayerCount: 2
Fore
SplineSet
100 569 m 2
 100 601 84 613 45 613 c 2
 31 613 l 2
 26 613 22 616 22 621 c 2
 22 645 l 1
 24 647 l 1
 24 647 122 645 161 645 c 0
 196 645 296 647 296 647 c 1
 298 645 l 1
 298 621 l 2
 298 616 295 613 291 613 c 2
 276 613 l 2
 235 613 222 597 222 569 c 2
 222 92 l 2
 222 62 235 46 256 46 c 2
 342 46 l 2
 421 46 457 120 473 181 c 1
 512 173 l 1
 501 119 490 56 488 0 c 1
 144.8 0 l 2
 104.8 0 26 -2 26 -2 c 1
 22 0 l 1
 22 20 l 2
 22 27 26 32 38 32 c 2
 70 32 l 2
 94 32 100 41 100 72 c 2
 100 569 l 2
EndSplineSet
Position2: "'cpsp' Versalabstaende 1" dx=2 dy=0 dh=5 dv=0
EndChar

StartChar: M
Encoding: 77 77 262
Width: 853
GlyphClass: 2
Flags: MW
LayerCount: 2
Fore
SplineSet
711 569 m 2
 754 76 l 2
 757 48 768 32 809 32 c 2
 823 32 l 2
 828 32 831 29 831 23 c 2
 831 0 l 1
 829 -2 l 1
 829 -2 730 0 695 0 c 0
 656 0 573 -2 573 -2 c 1
 571 0 l 1
 571 23 l 2
 571 29 575 32 579 32 c 2
 593 32 l 2
 633 32 646 45 643 76 c 2
 612 446 l 1
 552 300 433 7 433 7 c 2
 428 -3 420 -12 404 -12 c 0
 395 -12 379 -7 374 7 c 2
 374 7 262 278 189 449 c 1
 168 76 l 2
 166 44 179 32 220 32 c 2
 234 32 l 2
 239 32 242 29 242 23 c 2
 242 0 l 1
 240 -2 l 1
 240 -2 167 0 132 0 c 0
 93 0 26 -2 26 -2 c 1
 24 0 l 1
 24 23 l 2
 24 29 28 32 32 32 c 2
 42 32 l 2
 82 32 103 44 105 76 c 2
 133 569 l 2
 134.9 602 127 613 88 613 c 2
 74 613 l 2
 69 613 65 616 65 621 c 2
 65 645 l 1
 67 646 l 1
 67 646 197 646 236 646 c 1
 441 158 l 1
 504 315 569 491 631 646 c 1
 786 646 l 1
 788 645 l 1
 788 621 l 2
 788 616 785 613 780 613 c 2
 766 613 l 2
 725 613 708.6 597 711 569 c 2
EndSplineSet
Position2: "'cpsp' Versalabstaende 1" dx=2 dy=0 dh=5 dv=0
EndChar

StartChar: N
Encoding: 78 78 263
Width: 710
GlyphClass: 2
Flags: MW
LayerCount: 2
Fore
SplineSet
546 569 m 2
 546 601 531 613 492 613 c 2
 478 613 l 2
 473 613 469 616 469 621 c 2
 469 645 l 1
 471 646 l 1
 471 646 539 645 578 645 c 0
 613 645 685 646 685 646 c 1
 687 645 l 1
 687 621 l 2
 687 616 684 613 679 613 c 2
 665 613 l 2
 624 613 610 597 610 569 c 2
 610 25 l 2
 610 3 601 -12 572 -12 c 0
 547 -12 535 2 525 15 c 2
 175 470 l 1
 175 76 l 2
 175 48 189 32 230 32 c 2
 244 32 l 2
 249 32 252 29 252 23 c 2
 252 0 l 1
 250 -2 l 1
 250 -2 177 0 142 0 c 0
 103 0 29 -2 29 -2 c 1
 27 0 l 1
 27 23 l 2
 27 29 31 32 35 32 c 2
 49 32 l 2
 89 32 112 44 112 76 c 2
 112 560 l 1
 94 585 74 613 42 613 c 0
 25 613 22 617 22 624 c 2
 22 643 l 1
 25 646 l 1
 170 646 l 1
 546 168 l 1
 546 569 l 2
EndSplineSet
Position2: "'cpsp' Versalabstaende 1" dx=2 dy=0 dh=5 dv=0
EndChar

StartChar: O
Encoding: 79 79 264
Width: 730
GlyphClass: 2
Flags: MW
LayerCount: 2
Fore
SplineSet
351 617 m 0
 266 617 168 532 168 328 c 0
 168 140 266 31 384 31 c 0
 485 31 562 136 562 310 c 0
 562 513 464 617 351 617 c 0
694 329 m 0
 694 129 566 -10 364 -10 c 0
 182 -10 37 113 37 311 c 0
 37 507 173 658 363 658 c 0
 540 658 694 528 694 329 c 0
EndSplineSet
Position2: "'cpsp' Versalabstaende 1" dx=2 dy=0 dh=5 dv=0
EndChar

StartChar: P
Encoding: 80 80 265
Width: 550
GlyphClass: 2
Flags: MW
LayerCount: 2
Fore
SplineSet
221 558 m 2
 221 322 l 1
 235 320 256 319 271 319 c 0
 353 319 406 363 406 467 c 0
 406 589 339 613 281 613 c 0
 228 613 221 593 221 558 c 2
99 89 m 2
 99 560 l 2
 99 595 87 610 65 611 c 2
 33 613 l 2
 25 613 22 617 22 621 c 2
 22 645 l 1
 24 647 l 1
 83 647 208 654 289 654 c 0
 490 654 533 548 533 484 c 0
 533 388 473 279 276 279 c 0
 252 279 235 280 221 282 c 1
 221 89 l 2
 221 51 241.2 38.2 281 34 c 2
 300 32 l 2
 306 31.4 308 29 308 23 c 2
 308 0 l 1
 306 -2 l 1
 269 -1 198 0 160 0 c 0
 122 0 61 -1 24 -2 c 1
 22 0 l 1
 22 23 l 2
 22 29 26.1 31.4 30 32 c 2
 44 34 l 2
 84.7 39.8 99 51 99 89 c 2
EndSplineSet
Position2: "'cpsp' Versalabstaende 1" dx=2 dy=0 dh=5 dv=0
EndChar

StartChar: Q
Encoding: 81 81 266
Width: 730
GlyphClass: 2
Flags: MW
AnchorPoint: "above" 347 802 basechar 0
AnchorPoint: "top_punkt" 346 719 basechar 0
LayerCount: 2
Fore
SplineSet
351 617 m 0
 266 617 168 532 168 328 c 0
 168 140 266 31 384 31 c 0
 485 31 562 136 562 310 c 0
 562 513 464 617 351 617 c 0
156.6 -129.9 m 0
 192.9 -86.3 249.5 -38.3 311.2 -6.4 c 1
 154.7 15.1 37 132.6 37 311 c 0
 37 507 173 658 363 658 c 0
 540 658 694 528 694 329 c 0
 694 141.1 580.9 7 399.7 -8.5 c 1
 370 -19 329.7 -39.5 288.3 -70.4 c 1
 291.7 -70.1 294.9 -70 298 -70 c 0
 408 -70 489 -152 577 -152 c 0
 606 -152 642 -142 664 -115 c 1
 681 -137 l 1
 642 -193 600 -219 537 -219 c 0
 407 -219 344 -124 251 -124 c 0
 243.1 -124 228.8 -127.6 214.2 -137.7 c 1
 201.5 -151.7 189.4 -166.8 178 -183 c 1
 139 -153 l 1
 143.8 -144.7 149.8 -137 156.6 -129.9 c 0
EndSplineSet
Position2: "'cpsp' Versalabstaende 1" dx=2 dy=0 dh=5 dv=0
EndChar

StartChar: R
Encoding: 82 82 267
Width: 609
GlyphClass: 2
Flags: MW
AnchorPoint: "cedilla" 183 0 basechar 0
AnchorPoint: "below" 292 -111 basechar 0
AnchorPoint: "above" 304 808 basechar 0
AnchorPoint: "top_punkt" 302 725 basechar 0
LayerCount: 2
Fore
SplineSet
412 468 m 0
 412 567 362 613 302 613 c 0
 266 613 245 610 221 605 c 1
 221 322 l 1
 270 322 l 2
 367 322 412 368 412 468 c 0
532 482 m 0
 532 381 489 332 418 294 c 1
 521 98 l 2
 543 54 574 35 614 40 c 1
 618 5 l 1
 589 -4 551 -6 536 -6 c 0
 477 -6 432 32 406 79 c 2
 316 247 l 2
 302 272 273 276 221 276 c 1
 221 77 l 2
 221 46 236 33 276 33 c 2
 290 33 l 2
 294 33 298 30 298 24 c 2
 298 1 l 1
 296 -1 l 1
 296 -1 222 1 183 1 c 0
 147 1 24 -1 24 -1 c 1
 22 1 l 1
 22 24 l 2
 22 30 25 33 30 33 c 2
 44 33 l 2
 85 33 99 49 99 77 c 2
 99 559 l 2
 99 587 95 604 69 604 c 0
 66 604 64 604 62 604 c 2
 32 601 l 2
 27 601 24 604 24 608 c 2
 24 642 l 1
 45 647 180 654 297 654 c 0
 417 654 532 604 532 482 c 0
EndSplineSet
Position2: "'cpsp' Versalabstaende 1" dx=2 dy=0 dh=5 dv=0
EndChar

StartChar: S
Encoding: 83 83 268
Width: 475
GlyphClass: 2
Flags: MW
AnchorPoint: "cedilla" 234 2 basechar 0
AnchorPoint: "below" 234 -111 basechar 0
AnchorPoint: "above" 252 802 basechar 0
AnchorPoint: "top_punkt" 251 719 basechar 0
LayerCount: 2
Fore
SplineSet
382 631 m 1
 386 578 394 528 403 479 c 1
 363 474 l 1
 345 540 312 619 227 619 c 0
 161 619 137 573 137 517 c 0
 137 453 216 403 258 388 c 0
 342 358 441 305 441 184 c 0
 441 51 355 -10 241 -10 c 0
 143 -10 123 5 99 5 c 0
 79 5 70 0 53 0 c 1
 51 51 44 99 34 175 c 1
 74 178 l 1
 94 87 153 31 220 31 c 0
 296 31 334 71 334 145 c 0
 334 203 304 254 243 278 c 0
 171 306 42 368 42 485 c 0
 42 605 142 658 228 658 c 0
 321 658 327 639 382 631 c 1
EndSplineSet
Position2: "'cpsp' Versalabstaende 1" dx=2 dy=0 dh=5 dv=0
EndChar

StartChar: T
Encoding: 84 84 269
Width: 597
GlyphClass: 2
Flags: MW
AnchorPoint: "cedilla" 292 3 basechar 0
AnchorPoint: "below" 301 -107 basechar 0
AnchorPoint: "above" 298 802 basechar 0
AnchorPoint: "top_punkt" 296 719 basechar 0
LayerCount: 2
Fore
SplineSet
87 645 m 2
 510 645 l 2
 531 645 532 663 532 669 c 1
 568 673 l 1
 572 624 579 572 590 519 c 1
 550 514 l 1
 530 594 517 599 462 599 c 2
 408 599 l 2
 372 599 360 590 360 557 c 2
 360 76 l 2
 360 45 375 32 415 32 c 2
 441 32 l 2
 445 32 449 29 449 23 c 2
 449 0 l 1
 447 -2 l 1
 447 -2 328 0 289 0 c 0
 253 0 151 -2 151 -2 c 1
 149 0 l 1
 149 23 l 2
 149 29 152 32 157 32 c 2
 183 32 l 2
 224 32 238 48 238 76 c 2
 238 560 l 2
 238 590 226 599 189 599 c 2
 136 599 l 2
 81 599 67 594 47 514 c 1
 8 519 l 1
 19 572 26 624 30 673 c 1
 66 669 l 1
 66 663 66 645 87 645 c 2
EndSplineSet
Position2: "'cpsp' Versalabstaende 1" dx=2 dy=0 dh=5 dv=0
EndChar

StartChar: U
Encoding: 85 85 270
Width: 678
GlyphClass: 2
Flags: MW
LayerCount: 2
Fore
SplineSet
521 569 m 2
 521 601 505 613 466 613 c 2
 452 613 l 2
 447 613 443 616 443 621 c 2
 443 645 l 1
 445 646 l 1
 445 646 518 645 557 645 c 0
 593 645 669 646 669 646 c 1
 671 645 l 1
 671 621 l 2
 671 616 668 613 663 613 c 2
 649 613 l 2
 608 613 594 597 594 569 c 2
 594 295 l 2
 594 117 555 -10 334 -10 c 0
 237 -10 84 47 84 237 c 2
 84 569 l 2
 84 601 69 613 30 613 c 2
 16 613 l 2
 11 613 7 616 7 621 c 2
 7 645 l 1
 9 646 l 1
 9 646 106 645 146 645 c 0
 181 645 281 646 281 646 c 1
 283 645 l 1
 283 621 l 2
 283 616 280 613 275 613 c 2
 261 613 l 2
 220 613 207 597 207 569 c 2
 207 270 l 2
 207 204 207 127 253 80 c 1
 282 52 318 31 355 31 c 0
 502 31 521 170 521 278 c 2
 521 569 l 2
EndSplineSet
Position2: "'cpsp' Versalabstaende 1" dx=2 dy=0 dh=5 dv=0
EndChar

StartChar: V
Encoding: 86 86 271
Width: 636
GlyphClass: 2
Flags: MW
AnchorPoint: "cedilla" 303 3 basechar 0
AnchorPoint: "below" 303 -108 basechar 0
AnchorPoint: "above" 331 805 basechar 0
AnchorPoint: "top_punkt" 329 722 basechar 0
LayerCount: 2
Fore
SplineSet
427 613 m 0
 423 613 419 616 419 621 c 2
 419 645 l 1
 421 646 l 1
 421 646 508 645 547 645 c 0
 583 645 635 646 635 646 c 1
 637 645 l 1
 637 621 l 2
 637 616 634 613 629 613 c 0
 573 613 566 602 546 549 c 2
 345 11 l 2
 339 -4 321 -12 311 -12 c 0
 300 -12 283 -4 278 11 c 2
 88 554 l 2
 71 600 59 613 8 613 c 0
 4 613 0 616 0 621 c 2
 0 645 l 1
 2 646 l 1
 2 646 99 645 138 645 c 0
 174 645 282 646 282 646 c 1
 284 645 l 1
 284 621 l 2
 284 616 281 613 276 613 c 0
 213 613 194 603 205 572 c 2
 330 216 l 1
 341 185 l 1
 353 213 l 1
 483 562 l 2
 499 604 492 613 427 613 c 0
EndSplineSet
Position2: "'cpsp' Versalabstaende 1" dx=2 dy=0 dh=5 dv=0
EndChar

StartChar: W
Encoding: 87 87 272
Width: 998
GlyphClass: 2
Flags: MW
AnchorPoint: "cedilla" 316 0 basechar 0
AnchorPoint: "below" 470 -107 basechar 0
AnchorPoint: "above" 493 805 basechar 0
AnchorPoint: "top_punkt" 491 722 basechar 0
LayerCount: 2
Fore
SplineSet
312 -12 m 0
 279 -12 265 5 254 35 c 1
 80 562 l 2
 71 587 53 613 25 613 c 2
 12 613 l 2
 5 613 0 616 0 621 c 2
 0 644 l 1
 2 646 l 1
 2 646 75 645 113 645 c 0
 164 645 254 646 254 646 c 1
 257 644 l 1
 257 622 l 2
 257 616 253 613 248 613 c 0
 209 613 191 609 204 572 c 2
 321 218 l 1
 344 146 l 1
 367 216 l 1
 441 442 l 2
 445 454 448 467 448 480 c 0
 448 489 447 498 443 508 c 2
 422 572 l 2
 414 599 396 613 357 613 c 2
 354 613 l 2
 347 613 342 616 342 621 c 2
 342 644 l 1
 344 646 l 1
 344 646 400 645 440 645 c 0
 489 645 610 646 610 646 c 1
 612 644 l 1
 612 620 l 2
 612 615 607 613 604 613 c 0
 568 613 534 611 553 554 c 2
 667 207 l 1
 688 139 l 1
 714 215 l 1
 832 569 l 2
 844 605 822 613 774 613 c 0
 770 613 766 617 766 620 c 2
 766 644 l 1
 769 646 l 1
 769 646 850 645 892 645 c 0
 924 645 976 646 976 646 c 1
 978 645 l 1
 978 621 l 2
 978 613 967 613 966 613 c 2
 955 613 l 2
 916 613 905 601 891 560 c 2
 720 44 l 2
 707 4 691 -12 663 -12 c 0
 621 -12 608 7 598 39 c 2
 489 367 l 2
 486 376 485 380 483 380 c 0
 482 380 480 375 479 370 c 2
 368 33 l 2
 359 4 337 -12 312 -12 c 0
EndSplineSet
Position2: "'cpsp' Versalabstaende 1" dx=2 dy=0 dh=5 dv=0
EndChar

StartChar: X
Encoding: 88 88 273
Width: 708
GlyphClass: 2
Flags: MW
AnchorPoint: "cedilla" 104 -1 basechar 0
AnchorPoint: "below" 318 -107 basechar 0
AnchorPoint: "above" 364 804 basechar 0
AnchorPoint: "top_punkt" 363 721 basechar 0
LayerCount: 2
Fore
SplineSet
24 620 m 2
 24 645 l 1
 29 646 l 1
 55 646 119 645 130 645 c 0
 135 645 260 646 291 646 c 1
 291 646 294 645 295 645 c 1
 295 620 l 2
 295 615 293 613 290 613 c 0
 239 613 233 603 253 572 c 2
 360 414 l 2
 373 396 375 397 388 412 c 0
 428 461 479 524 506 572 c 0
 526 609 492 613 469 613 c 0
 466 613 462 615 462 620 c 2
 462 645 l 1
 464 646 l 1
 486 646 573 645 584 645 c 0
 589 645 664 646 682 646 c 1
 684 645 l 1
 684 620 l 2
 684 617 684 613 675 613 c 0
 624 613 594 586 565 552 c 2
 421 383 l 2
 403 362 404 358 438 312 c 2
 591 102 l 2
 619 63 653 32 697 32 c 0
 702 32 704 28 704 24 c 2
 704 0 l 1
 703 -2 l 1
 675 -1 609 0 597 0 c 0
 591 0 431 -2 431 -2 c 1
 428 0 l 1
 428 25 l 2
 428 29 431 32 434 32 c 0
 494 32 492 38 467 73 c 2
 345 246 l 2
 324 277 321 277 307 258 c 0
 263 201 219 136 183 77 c 0
 158 35 195 32 218 32 c 0
 222 32 224 28 224 24 c 2
 224 0 l 1
 221 -2 l 1
 221 -2 104 0 90 0 c 0
 85 0 6 -2 6 -2 c 1
 5 0 l 1
 5 25 l 2
 5 30 10 32 16 32 c 0
 75 32 100 65 131 104 c 2
 277 291 l 1
 294 311 293 316 273 344 c 2
 129 549 l 2
 90 605 52 613 35 613 c 0
 28 613 24 615 24 620 c 2
EndSplineSet
Position2: "'cpsp' Versalabstaende 1" dx=2 dy=0 dh=5 dv=0
EndChar

StartChar: Y
Encoding: 89 89 274
Width: 617
GlyphClass: 2
Flags: MW
AnchorPoint: "cedilla" 315 2 basechar 0
AnchorPoint: "below" 316 -109 basechar 0
AnchorPoint: "above" 316 805 basechar 0
AnchorPoint: "top_punkt" 315 722 basechar 0
LayerCount: 2
Fore
SplineSet
254 72 m 2
 254 281 l 1
 97 553 l 2
 63 610 50 613 23 613 c 2
 11 613 l 2
 5 613 0 615 0 620 c 2
 0 645 l 1
 2 647 l 1
 2 647 116 645 129 645 c 0
 135 645 243 647 243 647 c 1
 245 645 l 1
 245 621 l 2
 245 617 243 613 238 613 c 0
 187 613 177 609 197 576 c 2
 336 334 l 1
 464 576 l 2
 475 596 457 613 421 613 c 0
 416 613 415 617 415 620 c 2
 415 645 l 1
 417 647 l 1
 417 647 496 645 508 645 c 0
 517 645 615 647 615 647 c 1
 617 645 l 1
 617 621 l 2
 617 615 613 613 607 613 c 2
 586 613 l 2
 556 613 542 606 525 574 c 2
 376 293 l 1
 376 72 l 2
 376 41 392 33 431 33 c 2
 458 33 l 2
 462 33 466 30 466 24 c 2
 466 1 l 1
 464 -1 l 1
 464 -1 355 1 316 1 c 0
 280 1 167 -1 167 -1 c 1
 166 1 l 1
 166 24 l 2
 166 30 168 33 173 33 c 2
 200 33 l 2
 241 33 254 44 254 72 c 2
EndSplineSet
Position2: "'cpsp' Versalabstaende 1" dx=2 dy=0 dh=5 dv=0
EndChar

StartChar: Z
Encoding: 90 90 275
Width: 624
GlyphClass: 2
Flags: MW
AnchorPoint: "cedilla" 308 4 basechar 0
AnchorPoint: "below" 308 -107 basechar 0
AnchorPoint: "above" 321 803 basechar 0
AnchorPoint: "top_punkt" 319 720 basechar 0
LayerCount: 2
Fore
SplineSet
572 0 m 1
 39 0 l 2
 25 0 20 5 20 15 c 0
 20 22 22 30 28 38 c 2
 417 579 l 2
 424 589 433 602 415 602 c 2
 200 602 l 2
 125 602 107 555 85 486 c 1
 46 491 l 1
 54 532 64 604 68 658 c 1
 105 655 102 645 149 645 c 2
 506 645 l 1
 537 648 556 650 569 650 c 0
 588 650 591 647 591 640 c 0
 591 629 587 619 567 591 c 2
 193 72 l 2
 180 53 178 44 209 44 c 2
 432 44 l 2
 508 44 537 98 557 170 c 1
 598 165 l 1
 587 113 576 56 572 0 c 1
EndSplineSet
Position2: "'cpsp' Versalabstaende 1" dx=2 dy=0 dh=5 dv=0
EndChar

StartChar: bracketleft
Encoding: 91 91 276
Width: 375
GlyphClass: 2
Flags: MW
LayerCount: 2
Fore
SplineSet
343 689 m 1
 343 638 l 1
 198 638 l 1
 198 -147 l 1
 343 -147 l 1
 343 -198 l 1
 88 -198 l 1
 88 689 l 1
 343 689 l 1
EndSplineSet
EndChar

StartChar: backslash
Encoding: 92 92 277
Width: 307
GlyphClass: 2
Flags: MW
LayerCount: 2
Fore
SplineSet
76 698 m 1
 306 -48 l 1
 241 -48 l 1
 11 698 l 1
 76 698 l 1
EndSplineSet
EndChar

StartChar: bracketright
Encoding: 93 93 278
Width: 375
GlyphClass: 2
Flags: MW
LayerCount: 2
Fore
SplineSet
-9 -200 m 1
 -9 -149 l 1
 136 -149 l 1
 136 636 l 1
 -9 636 l 1
 -9 687 l 1
 246 687 l 1
 246 -200 l 1
 -9 -200 l 1
EndSplineSet
EndChar

StartChar: underscore
Encoding: 95 95 280
Width: 486
GlyphClass: 2
Flags: MW
LayerCount: 2
Fore
SplineSet
482 -103 m 1
 482 -154 l 1
 5 -154 l 1
 5 -103 l 1
 482 -103 l 1
EndSplineSet
EndChar

StartChar: a
Encoding: 97 97 281
Width: 476
GlyphClass: 2
Flags: MW
AnchorPoint: "ogonek" 435 19 basechar 0
LayerCount: 2
Fore
SplineSet
281 48 m 1
 242.5 14.5 198 -10 156 -10 c 0
 69 -10 36 26 36 95 c 0
 36 174 106.9 205.9 210 236 c 2
 282 257 l 1
 282 384 254 406 212 406 c 0
 174 406 141 393 141 371 c 0
 141 351 147 340 147 328 c 0
 147 314 123 290 95 290 c 0
 59 290 48 306 48 332 c 0
 48 392 153 444 226 444 c 0
 308 444 390 415 390 271 c 2
 390 126 l 2
 390 80 391 42 430 42 c 0
 454.2 42 455.2 58 461 58 c 0
 465 58 474 45 474 38 c 0
 474 33 436 -10 381 -10 c 0
 321 -10 295 9.5 283 48 c 1
 281 48 l 1
282 85 m 1
 282 219 l 1
 225 202 l 2
 154.7 181 141 151 141 110 c 0
 141 75 156 45 204 45 c 0
 222 45 257 65 282 85 c 1
EndSplineSet
EndChar

StartChar: b
Encoding: 98 98 282
Width: 505
GlyphClass: 2
Flags: MW
LayerCount: 2
Fore
SplineSet
184 56 m 1
 201 37 216 31 234 31 c 0
 313 31 353 109 353 220 c 0
 353 318 310 393 261 393 c 0
 237.5 393 217 383.5 184 362 c 1
 184 56 l 1
74 563 m 2
 74 628 64 636 44 636 c 1
 12 638 l 2
 8.8 638.2 6.3 640 6 643 c 2
 3 672 l 1
 43.5 675 145.9 688 171 698 c 1
 180 698 187 695 187 688 c 2
 187 688 184 648 184 583 c 2
 184 402 l 1
 213 423 248 444 286 444 c 0
 384 444 468 366 468 243 c 0
 468 83 350 -10 239 -10 c 0
 195 -10 158 12 134 40 c 1
 104 -13 l 1
 70 -7 l 1
 73 17 74 36 74 74 c 2
 74 563 l 2
EndSplineSet
EndChar

StartChar: c
Encoding: 99 99 283
Width: 435
GlyphClass: 2
Flags: MW
LayerCount: 2
Fore
SplineSet
406 87 m 1
 376 26 320 -10 249 -10 c 0
 107 -10 37 71 37 201 c 0
 37 344 135 444 253 444 c 0
 362 444 411 394 411 340 c 0
 411 309 393 284 361 284 c 0
 329 284 307 304 304 331 c 0
 301 363 287 402 249 402 c 0
 196 402 151 337 151 226 c 0
 151 118 209 41 275 41 c 0
 312 41 343 58 386 106 c 1
 406 87 l 1
EndSplineSet
EndChar

StartChar: d
Encoding: 100 100 284
Width: 527
GlyphClass: 2
Flags: MW
LayerCount: 2
Fore
SplineSet
334 343 m 1
 312 376 286 402 255 402 c 0
 214 402 152 367 152 222 c 0
 152 96 199 40 256 40 c 0
 276 40 298 50 334 84 c 1
 334 343 l 1
444 583 m 2
 444 115 l 2
 444 85 455 64 508 59 c 1
 510 28 l 1
 444 21 401 5 368 -12 c 1
 334 -12 l 1
 336 35 l 1
 298 2 273 -10 231 -10 c 0
 125 -10 37 81 37 205 c 0
 37 276 59 338 105 384 c 1
 146 422 192 444 269 444 c 0
 285 444 320 433 334 419 c 1
 334 563 l 2
 334 628 324 636 304 636 c 1
 272 638 l 2
 268.8 638.2 266.3 640 266 643 c 2
 263 672 l 1
 303.5 675 405.9 688 431 698 c 1
 440 698 447 695 447 688 c 2
 447 688 444 648 444 583 c 2
EndSplineSet
EndChar

StartChar: e
Encoding: 101 101 285
Width: 461
GlyphClass: 2
Flags: MW
LayerCount: 2
Fore
SplineSet
154 285 m 1
 314 285 l 1
 316 287 316 290 316 296 c 0
 316 376 275 402 248 402 c 0
 227 402 168 387 154 285 c 1
397 109 m 1
 422 88 l 1
 385 13 315 -10 246 -10 c 0
 94 -10 34 88 34 198 c 0
 34 351 144 444 249 444 c 0
 396 444 431 351 431 266 c 0
 431 252 416 245 392 245 c 2
 149 245 l 1
 149 240 149 226 149 219 c 0
 149 121 207 46 285 46 c 0
 323 46 360 64 397 109 c 1
EndSplineSet
EndChar

StartChar: f
Encoding: 102 102 286
Width: 336
GlyphClass: 2
Flags: MW
LayerCount: 2
Fore
SplineSet
99 75 m 2
 99 387 l 1
 53 387 l 2
 30 387 26 390 26 397 c 2
 26 411 l 2
 26 419 36 434 70 434 c 2
 99 434 l 1
 99 444 l 2
 99 609 192 698 286 698 c 0
 392 698 425 641 425 624 c 0
 425 599 408 574 379 574 c 0
 348 574 331 591 318 614 c 0
 301 646 284 656 267 656 c 0
 245 656 209 634 209 485 c 2
 209 434 l 1
 305 434 l 2
 324 434 325 430 325 424 c 2
 325 404 l 2
 325 392 308 387 290 387 c 2
 209 387 l 1
 209 78 l 2
 209 50 231.8 37.5 263 34 c 2
 281 32 l 2
 285 31 289 29 289 23 c 2
 289 0 l 1
 287 -2 l 1
 287 -2 191 0 152 0 c 0
 116 0 31 -2 31 -2 c 1
 29 0 l 1
 29 23 l 2
 29 29 32 31 37 32 c 2
 51 34 l 2
 84 39 99 47 99 75 c 2
EndSplineSet
EndChar

StartChar: g
Encoding: 103 103 287
Width: 508
GlyphClass: 2
Flags: MW
AnchorPoint: "top_punkt" 230 550 basechar 0
AnchorPoint: "middle" 227 285 basechar 0
AnchorPoint: "below" 229 -319 basechar 0
AnchorPoint: "above" 231 645 basechar 0
LayerCount: 2
Fore
SplineSet
312 284 m 0
 312 363 280 409 233 409 c 0
 194 409 164 375 164 301 c 0
 164 250 184 172 246 172 c 0
 272 172 312 188 312 284 c 0
183 -15 m 0
 171 -15 160 -15 150 -11 c 1
 129 -33 128 -62 128 -96 c 0
 128 -167 203 -196 231 -196 c 0
 306 -196 402 -156 402 -81 c 0
 402 -15 301 -12 256 -12 c 0
 247 -12 238 -13 225 -14 c 0
 210 -15 194 -15 183 -15 c 0
447 383 m 0
 422 383 414 399 410 412 c 1
 407 418 404 424 395 424 c 0
 385 424 374 416 366 406 c 1
 400 378 420 343 420 287 c 0
 420 189 335 135 241 135 c 0
 210 135 178.5 140 157.5 150 c 1
 152.5 138 151 117 151 101 c 0
 151 61 178 49 196 49 c 0
 205 49 252 56 290 56 c 0
 453 56 493 -17 493 -55 c 0
 493 -165 342 -238 203 -238 c 0
 121 -238 34 -205 34 -116 c 0
 34 -77 63 -34 115 1 c 1
 87 18 67 42 67 74 c 0
 67 105 89 138.5 119 166.5 c 1
 82 192 58 243 58 292 c 0
 58 385 146 444 242 444 c 0
 287 444 318 435 336 425 c 1
 365 451 410 467 437 467 c 0
 475 467 491 442 491 423 c 0
 491 399 475 383 447 383 c 0
EndSplineSet
EndChar

StartChar: h
Encoding: 104 104 288
Width: 550
GlyphClass: 2
Flags: MW
AnchorPoint: "below" 277 -110 basechar 0
AnchorPoint: "cedilla" 128 9 basechar 0
LayerCount: 2
Fore
SplineSet
468 77 m 2
 468 49 484.4 39.9 517 34 c 2
 528 32 l 2
 531.9 31.3 536 29 536 23 c 2
 536 0 l 1
 534 -2 l 1
 534 -2 450 0 411 0 c 0
 376 0 297 -2 297 -2 c 1
 295 0 l 1
 295 23 l 2
 295 29 298.1 31.2 303 32 c 2
 310 34 l 2
 340.8 42.8 358 49 358 77 c 2
 358 295 l 2
 358 373 348 390 308 390 c 0
 290 390 241 374 195 341 c 1
 195 77 l 2
 195 49 212.1 43.1 244 34 c 2
 251 32 l 2
 254.9 31.3 259 29 259 23 c 2
 259 0 l 1
 257 -2 l 1
 257 -2 177 0 138 0 c 0
 103 0 19 -2 19 -2 c 1
 17 0 l 1
 17 23 l 2
 17 29 20.1 31.2 25 32 c 2
 37 34 l 2
 68.6 39.3 85 49 85 77 c 2
 85 563 l 2
 85 628 75 636 55 636 c 1
 23 638 l 2
 19.8 638.2 17.3 640 17 643 c 2
 14 672 l 1
 54.5 675 156.9 688 182 698 c 1
 191 698 198 695 198 688 c 2
 198 688 195 648 195 583 c 2
 195 381 l 1
 250 422 313 445 350 445 c 0
 436 445 468 389 468 284 c 2
 468 77 l 2
EndSplineSet
EndChar

StartChar: i
Encoding: 105 105 289
Width: 286
GlyphClass: 2
Flags: MW
AnchorPoint: "middle" 142 215 basechar 0
AnchorPoint: "above" 137 795 basechar 0
AnchorPoint: "cedilla" 137 12 basechar 0
AnchorPoint: "ogonek" 209 10 basechar 0
AnchorPoint: "below" 136 -107 basechar 0
LayerCount: 2
Fore
SplineSet
95 590 m 0
 95 623 122 650 155 650 c 0
 188 650 215 623 215 590 c 0
 215 557 188 530 155 530 c 0
 122 530 95 557 95 590 c 0
EndSplineSet
Refer: 419 305 N 1 0 0 1 0 0 2
EndChar

StartChar: j
Encoding: 106 106 290
Width: 289
GlyphClass: 2
Flags: MW
AnchorPoint: "below" 109 -319 basechar 0
LayerCount: 2
Fore
SplineSet
88 590 m 0
 88 623 115 650 148 650 c 0
 181 650 208 623 208 590 c 0
 208 557 181 530 148 530 c 0
 115 530 88 557 88 590 c 0
EndSplineSet
Refer: 1718 567 N 1 0 0 1 0 0 2
EndChar

StartChar: k
Encoding: 107 107 291
Width: 523
GlyphClass: 2
Flags: MW
LayerCount: 2
Fore
SplineSet
83 77 m 2
 83 563 l 2
 83 628 73 636 53 636 c 1
 21 638 l 2
 17.8 638.2 15.3 640 15 643 c 2
 12 672 l 1
 52.5 675 154.9 688 180 698 c 1
 189 698 196 695 196 688 c 2
 196 688 193 648 193 583 c 2
 193 249 l 1
 214 252 236.3 266.2 249 277.2 c 0
 269 294.5 290 319.5 313 349 c 0
 336.9 379.7 316.9 398.6 302 400 c 2
 281 402 l 2
 270 403 268 406 268 412 c 2
 268 434 l 1
 273 436 l 1
 273 436 340 434 375 434 c 0
 414 434 490 436 490 436 c 1
 493 434 l 1
 493 412 l 2
 493 404 492 402.6 483 402 c 2
 453 400 l 2
 434.6 398.8 398 375 374 351 c 1
 350 324 299 269 299 269 c 2
 295 264 297 256 302 249 c 2
 418 78 l 2
 435 52 459.1 36.5 474 35 c 2
 503 32 l 2
 508 31.5 511 30 511 26 c 2
 511 0 l 1
 508 -2 l 1
 508 -2 438 0 399 0 c 0
 364 0 315 -2 315 -2 c 1
 313 0 l 1
 313 26 l 2
 313 41 310 50 297 78 c 0
 280.1 114.5 252 156 229 190 c 0
 218.5 205.5 209 208 193 209 c 1
 193 77 l 2
 193 49 210.1 43.1 242 34 c 2
 249 32 l 2
 252.9 31.3 257 29 257 23 c 2
 257 0 l 1
 255 -2 l 1
 255 -2 175 0 136 0 c 0
 101 0 17 -2 17 -2 c 1
 15 0 l 1
 15 23 l 2
 15 29 18.1 31.2 23 32 c 2
 35 34 l 2
 66.6 39.3 83 49 83 77 c 2
EndSplineSet
EndChar

StartChar: uni02E1
Encoding: 737 737 292
Width: 161
GlyphClass: 2
Flags: MW
LayerCount: 2
Fore
SplineSet
104 739 m 1
 104 414 l 2
 104 392 112 387 129 387 c 2
 140 387 l 2
 142 387 145 386 145 382 c 2
 145 364 l 1
 145 364 105 365 79 365 c 0
 55 365 18 364 18 364 c 1
 18 382 l 2
 18 384 18 387 22 387 c 2
 30 387 l 1
 54 388 55 393 55 414 c 2
 55 673 l 2
 55 688 54 699 40 699 c 0
 33 699 23 698 13 695 c 1
 11 717 l 1
 43 721 65 727 90 739 c 1
 104 739 l 1
EndSplineSet
Colour: ff00ff
EndChar

StartChar: m
Encoding: 109 109 293
Width: 801
GlyphClass: 2
Flags: MW
AnchorPoint: "cedilla" 141 9 basechar 0
AnchorPoint: "top_punkt" 397 550 basechar 0
AnchorPoint: "above" 396 645 basechar 0
AnchorPoint: "below" 396 -105 basechar 0
LayerCount: 2
Fore
SplineSet
205 381 m 1
 207 381 l 1
 242 412 292 444 347 444 c 0
 400 444 435 417 450 378 c 1
 496 418 551 444 604 444 c 0
 709 444 719 371 719 281 c 2
 719 76 l 2
 719 48 737 42 768 34 c 2
 776 32 l 2
 780 31 784 29 784 23 c 2
 784 0 l 1
 782 -2 l 1
 782 -2 701 0 662 0 c 0
 627 0 555 -2 555 -2 c 1
 553 0 l 1
 553 23 l 2
 553 28 555 31 561 32 c 0
 595 35 609 48 609 76 c 2
 609 303 l 2
 609 363 593 389 569 389 c 0
 535 389 499 373 460 340 c 1
 461 327 462 296 462 282 c 2
 462 76 l 2
 462 41 487 35 511 32 c 0
 515 32 519 29 519 23 c 2
 519 0 l 1
 517 -2 l 1
 517 -2 445 0 406 0 c 0
 370 0 298 -2 298 -2 c 1
 296 0 l 1
 296 23 l 2
 296 28 299 31 305 32 c 0
 338 35 352 48 352 76 c 2
 352 301 l 2
 352 364 336 389 311 389 c 0
 282 389 249 376 207 341 c 1
 207 75 l 2
 207 40 232 35 255 32 c 0
 260 31 264 29 264 23 c 2
 264 0 l 1
 262 -2 l 1
 262 -2 190 0 150 0 c 0
 115 0 34 -2 34 -2 c 1
 32 0 l 1
 32 23 l 2
 32 29 35 31 40 32 c 2
 49 34 l 2
 82 41 97 47 97 75 c 2
 97 321 l 2
 97 371 89 378 75 379 c 2
 34 383 l 1
 32 417 l 1
 102 426 168 437 200 447 c 0
 202 447 207 446 207 444 c 2
 205 381 l 1
EndSplineSet
EndChar

StartChar: n
Encoding: 110 110 294
Width: 563
GlyphClass: 2
Flags: MW
AnchorPoint: "above" 264 646 basechar 0
AnchorPoint: "below" 265 -111 basechar 0
AnchorPoint: "top_punkt" 265 550 basechar 0
AnchorPoint: "cedilla" 128 9 basechar 0
LayerCount: 2
Fore
SplineSet
208 381 m 1
 259 420 311 444 359 444 c 0
 466 444 481 374 481 283 c 2
 481 76 l 2
 481 48 499.3 41.7 530 34 c 2
 538 32 l 2
 541.9 31 546 29 546 23 c 2
 546 0 l 1
 544 -2 l 1
 544 -2 464 0 425 0 c 0
 389 0 313 -2 313 -2 c 1
 311 0 l 1
 311 23 l 2
 311 29 314.1 30.8 319 32 c 2
 323 33 l 2
 354.2 40.8 371 48 371 76 c 2
 371 290 l 2
 371 358 365 388 329 388 c 0
 299 388 257.5 372 208 341 c 1
 208 76 l 2
 208 49 225.8 40.5 256 33 c 2
 260 32 l 2
 263.9 31 268 29 268 23 c 2
 268 0 l 1
 266 -2 l 1
 266 -2 190 0 151 0 c 0
 116 0 35 -2 35 -2 c 1
 33 0 l 1
 33 23 l 2
 33 29 36.1 30.9 41 32 c 2
 50 34 l 2
 82.2 41.2 98 48 98 76 c 2
 98 321 l 2
 98 371 90 378 76 379 c 2
 35 383 l 1
 33 417 l 1
 103 426 169 437 201 447 c 0
 203 447 208 446 208 444 c 2
 206 381 l 1
 208 381 l 1
EndSplineSet
EndChar

StartChar: o
Encoding: 111 111 295
Width: 519
GlyphClass: 2
Flags: MW
LayerCount: 2
Fore
SplineSet
250 403 m 0
 186 403 156 314 156 229 c 0
 156 155 193 33 275 33 c 0
 311 33 364 57 364 184 c 0
 364 327 318 403 250 403 c 0
34 207 m 0
 34 344 115 444 260 444 c 0
 423 444 485 321 485 216 c 0
 485 115 414 -10 259 -10 c 0
 112 -10 34 104 34 207 c 0
EndSplineSet
EndChar

StartChar: p
Encoding: 112 112 296
Width: 523
GlyphClass: 2
Flags: MW
LayerCount: 2
Fore
SplineSet
195 341 m 1
 195 65 l 1
 220 38 245 32 256 32 c 0
 343 32 373 126 373 210 c 0
 373 327 343 392 284 392 c 0
 260 392 224 373 195 341 c 1
195 381 m 1
 227.5 418.5 272.5 444 316 444 c 0
 425 444 488 343 488 237 c 0
 488 159 460 96 411 47 c 0
 372 8 323 -10 262 -10 c 0
 238 -10 216.5 -4 195 7 c 1
 195 -154 l 2
 195 -182 211.9 -190.2 243 -198 c 2
 251 -200 l 2
 255.9 -201.2 259 -203 259 -208 c 2
 259 -232 l 1
 258 -234 l 1
 258 -234 177 -232 138 -232 c 0
 102 -232 22 -234 22 -234 c 1
 20 -232 l 1
 20 -208 l 2
 20 -203 23.1 -201.1 28 -200 c 2
 37 -198 l 2
 70.1 -190.6 85 -182 85 -154 c 2
 85 321 l 2
 85 371 77 378 63 379 c 2
 22 383 l 1
 20 417 l 1
 90 426 156 437 188 447 c 0
 190 447 195 446 195 444 c 2
 193 381 l 1
 195 381 l 1
EndSplineSet
EndChar

StartChar: q
Encoding: 113 113 297
Width: 518
GlyphClass: 2
Flags: MW
LayerCount: 2
Fore
SplineSet
335 349 m 1
 309 389 283 402 255 402 c 0
 190 402 149 329 149 229 c 0
 149 82 228 41 278 41 c 0
 290 41 313 48 335 61 c 1
 335 349 l 1
335 -155 m 2
 335 8 l 1
 318 0 279 -10 244 -10 c 0
 89 -10 36 115 36 208 c 0
 36 341 125 444 258 444 c 0
 312 444 349 418 369 401 c 1
 397.3 434 415 447 437 447 c 0
 440.7 447 447 444 447 436 c 2
 447 436 445 355 445 321 c 2
 445 -155 l 2
 445 -183 463.2 -190.3 494 -198 c 2
 502 -200 l 2
 505.9 -201 510 -203 510 -209 c 2
 510 -232 l 1
 508 -234 l 1
 508 -234 428 -232 389 -232 c 0
 353 -232 272 -234 272 -234 c 1
 270 -232 l 1
 270 -209 l 2
 270 -203 273.1 -201 278 -200 c 2
 288 -198 l 2
 320.9 -191.4 335 -183 335 -155 c 2
EndSplineSet
EndChar

StartChar: r
Encoding: 114 114 298
Width: 401
GlyphClass: 2
Flags: MW
LayerCount: 2
Fore
SplineSet
207 381 m 1
 257 432.5 300 444 335 444 c 0
 371 444 393 414 393 388 c 0
 393 356 372 331 343 331 c 0
 303.7 331 287.6 371 269.7 371 c 0
 253.7 371 245.2 366.5 233 358 c 0
 218 347.5 207 323.5 207 288 c 2
 207 77 l 2
 207 49 224.4 41.7 255 34 c 2
 263 32 l 2
 266.9 31 271 29 271 23 c 2
 271 0 l 1
 269 -2 l 1
 269 -2 189 0 150 0 c 0
 114 0 34 -2 34 -2 c 1
 32 0 l 1
 32 23 l 2
 32 29 35.1 31.2 39 32 c 2
 49 34 l 2
 80.5 40.3 97 50 97 77 c 2
 97 321 l 2
 97 371 89 378 75 379 c 2
 34 383 l 1
 32 417 l 1
 102 426 168 437 200 447 c 0
 202 447 207 446 207 444 c 2
 205 381 l 1
 207 381 l 1
EndSplineSet
EndChar

StartChar: uni02E2
Encoding: 738 738 299
Width: 253
GlyphClass: 2
Flags: MW
LayerCount: 2
Fore
SplineSet
28 458 m 1
 50 458 l 1
 51 444 57 417 73 401 c 0
 80 395 99 383 122 383 c 0
 146 383 170 394 170 421 c 0
 170 442 162 462 112 483 c 0
 66 502 35 518 35 563 c 0
 35 605 80 637 129 637 c 0
 160 637 199 627 210 620 c 1
 219 545 l 1
 196 544 l 1
 182 602 148 612 129 612 c 0
 104 612 83 599 83 572 c 0
 83 548 93 539 127 525 c 0
 178 504 224 485 224 435 c 0
 224 374 158 358 124 358 c 0
 94 358 72 372 52 372 c 0
 49 372 39 371 33 370 c 1
 34 394 31 426 28 458 c 1
EndSplineSet
Colour: ff00ff
EndChar

StartChar: t
Encoding: 116 116 300
Width: 331
GlyphClass: 2
Flags: MW
AnchorPoint: "below" 163 -107 basechar 0
AnchorPoint: "ogonek" 237 15 basechar 0
AnchorPoint: "cedilla" 165 -3 basechar 0
LayerCount: 2
Fore
SplineSet
199 387 m 1
 199 135 l 2
 199 69 212 62 225 62 c 0
 245 62 263.5 63.5 293 87 c 1
 316 64 l 1
 279 15 230 -10 175 -10 c 0
 125 -10 89 19 89 92 c 2
 89 387 l 1
 38 387 l 2
 22 387 20 389 20 395 c 2
 20 426 l 2
 20 432 38 434 58 434 c 0
 108 434 118 483 118 564 c 1
 199 595 l 1
 199 434 l 1
 294 434 l 2
 313 434 316 430 316 424 c 2
 316 404 l 2
 316 392 298 387 279 387 c 2
 199 387 l 1
EndSplineSet
EndChar

StartChar: u
Encoding: 117 117 301
Width: 550
GlyphClass: 2
Flags: MW
AnchorPoint: "above" 264 646 basechar 0
AnchorPoint: "top_punkt" 264 550 basechar 0
AnchorPoint: "below" 248 -111 basechar 0
AnchorPoint: "ogonek" 296 7 basechar 0
AnchorPoint: "cedilla" 213 0 basechar 0
LayerCount: 2
Fore
SplineSet
462 115 m 2
 462 85 472 62 526 59 c 1
 527 28 l 1
 436 16 412 3 386 -12 c 1
 352 -12 l 1
 355 35 l 1
 308 5 263 -10 226 -10 c 0
 110 -10 87 58 87 128 c 2
 87 352 l 2
 87 382 81.4 398.5 58 400 c 2
 27 402 l 1
 24 404 l 1
 24 434 l 1
 29 436 l 1
 29 436 108 434 140 434 c 0
 154 434 198 436 198 436 c 1
 198 436 197 391 197 354 c 2
 197 142 l 2
 197 58 230 40 251 40 c 0
 273 40 315 45 352 77 c 1
 352 352 l 2
 352 384 342 400 324 400 c 1
 293 402 l 1
 289 404 l 1
 289 434 l 1
 293 436 l 1
 293 436 377 434 404 434 c 0
 425 434 464 436 464 436 c 1
 464 436 462 394.5 462 354 c 2
 462 115 l 2
EndSplineSet
EndChar

StartChar: v
Encoding: 118 118 302
Width: 527
GlyphClass: 2
Flags: MW
LayerCount: 2
Fore
SplineSet
433 352 m 2
 315 41 l 2
 299 0 288 -12 265 -12 c 0
 238 -12 222 0 206 40 c 2
 91.2 334 l 2
 78.9 365.6 64.5 397.5 19 402 c 0
 14 402.5 9 404 9 409 c 2
 9 434 l 1
 12 436 l 1
 12 436 73 434 113 434 c 0
 154 434 236 436 236 436 c 1
 240 434 l 1
 240 410 l 2
 240 403 234 402.2 232 402 c 2
 215 400 l 2
 184.9 396.5 184 387 195 357 c 2
 294 105 l 1
 384 358 l 2
 393.8 385.6 376.9 392 341 401 c 2
 337 402 l 2
 332.1 403.2 329 406 329 409 c 2
 329 433 l 1
 333 436 l 1
 333 436 395.8 434 436 434 c 0
 466 434 513 436 513 436 c 1
 515 434 l 1
 515 411 l 2
 515 406 510 402.7 504 402 c 0
 474.5 398.5 448 391 433 352 c 2
EndSplineSet
EndChar

StartChar: w
Encoding: 119 119 303
Width: 778
GlyphClass: 2
Flags: MW
LayerCount: 2
Fore
SplineSet
195 357 m 2
 289 100 l 1
 360 277 l 1
 329 355 l 2
 314.9 390.4 298 398.5 268 402 c 0
 263 402.6 258 404 258 409 c 2
 258 434 l 1
 261 436 l 1
 261 436 323.2 434 363 434 c 0
 410.6 434 485 436 485 436 c 1
 489 434 l 1
 489 410 l 2
 489 403.5 483 402.4 480 402 c 2
 463 400 l 2
 432 396.4 431 386 442 357 c 2
 535 99 l 1
 628 355 l 2
 639 387 633.7 389.3 587 401 c 2
 583 402 l 2
 578.1 403.2 575 406 575 409 c 2
 575 433 l 1
 579 436 l 1
 579 436 647.3 434 691 434 c 0
 717.5 434 759 436 759 436 c 1
 761 434 l 1
 761 411 l 2
 761 406 756 402.8 750 402 c 0
 707 396.5 691.9 376.3 678.2 342.5 c 2
 553 33 l 2
 543 7 531 -12 507 -12 c 0
 475 -12 463 13 455 32 c 2
 382 219 l 1
 308 35 l 2
 298 11 287 -12 262 -12 c 0
 232 -12 220 4 209 32 c 2
 91 334.5 l 2
 76.2 372.5 64 397 19 402 c 0
 13 402.7 8 404 8 409 c 2
 8 434 l 1
 11 436 l 1
 11 436 75.7 434 117 434 c 0
 158.7 434 224 436 224 436 c 1
 228 434 l 1
 228 410 l 2
 228 402 220 402.4 217 402 c 0
 186.5 397.5 186 384 195 357 c 2
EndSplineSet
EndChar

StartChar: uni02E3
Encoding: 739 739 304
Width: 332
GlyphClass: 2
Flags: MW
LayerCount: 2
Fore
SplineSet
12 389 m 2
 12 399 32 400 46 400 c 2
 54 400 l 1
 54 400 58 403 64 412 c 1
 64 412 128 490 132 493 c 1
 108 523 82 559 58 589 c 1
 54 596 53 597 51 597 c 2
 45 597 l 2
 22 597 10 601 10 608 c 2
 10 628 l 1
 173 628 l 1
 173 608 l 2
 173 601 165 598 149 597 c 1
 152 585 177 549 177 549 c 1
 201 580 204 588 204 588 c 2
 205 589 207 593 207 597 c 1
 195 598 183 600 183 608 c 2
 183 628 l 1
 327 628 l 1
 327 610 l 1
 325 601 313 597 292 597 c 0
 282 597 273 585 262 573 c 1
 245 551 227 528 210 506 c 1
 231 476 256 440 279 410 c 0
 284 403 288 401 294 400 c 0
 318 399 329 394 329 389 c 2
 329 367 l 1
 310 369 275 371 256 371 c 0
 233 371 191 369 169 368 c 1
 169 389 l 2
 169 396 176 399 191 400 c 1
 191 403 191 405 190 406 c 2
 190 406 167 440 162 448 c 1
 143 425 131 409 130 400 c 1
 148 400 156 396 156 389 c 2
 156 368 l 1
 137 369 103 370 87 370 c 0
 65 370 29 369 12 368 c 1
 12 389 l 2
EndSplineSet
Colour: ff00ff
EndChar

StartChar: y
Encoding: 121 121 305
Width: 533
GlyphClass: 2
Flags: MW
LayerCount: 2
Fore
SplineSet
432 341 m 2
 266 -71 l 2
 232 -155 189.3 -232.2 109.1 -232.2 c 0
 87.7 -232.2 33.2 -219.4 33.2 -177.7 c 0
 33.2 -143.5 63.1 -126.3 92 -126.3 c 0
 108.1 -126.3 127.4 -140.2 133.8 -149.8 c 0
 140.2 -159.4 145.5 -166.9 153 -166.9 c 0
 160.5 -166.9 186 -138 215 -61 c 2
 233 -12 l 1
 92 336 l 2
 72 386 60 402 20 402 c 0
 14 402 10 404 10 409 c 2
 10 434 l 1
 13 436 l 1
 13 436 77.7 434 119 434 c 0
 166.2 434 240 436 240 436 c 1
 244 434 l 1
 244 410 l 2
 244 403 238 402 236 402 c 0
 196 402 188 388 199 357 c 2
 292 105 l 1
 326 188 366 297 384 355 c 0
 396 391 375 402 344 402 c 0
 339 402 336 406 336 409 c 2
 336 433 l 1
 340 436 l 1
 340 436 408.3 434 452 434 c 0
 477 434 516 436 516 436 c 1
 518 434 l 1
 518 411 l 2
 518 406 513 402 507 402 c 0
 478 402 449 383 432 341 c 2
EndSplineSet
EndChar

StartChar: z
Encoding: 122 122 306
Width: 432
GlyphClass: 2
Flags: MW
LayerCount: 2
Fore
SplineSet
98 446 m 1
 102 435 109 434 115 434 c 2
 319 434 l 2
 343.1 434 367 437 370 437 c 0
 390 437 406 431 406 421 c 0
 406 418 397 402 386 385 c 2
 163 42 l 1
 279 42 l 2
 323 42 352 83 369 148 c 1
 411 139 l 1
 396 85 389 41 385 0 c 1
 87 0 l 2
 44 0 32 6 32 16 c 0
 32 18 35 25 43 38 c 0
 121 155 195 274 273 392 c 1
 157 392 l 2
 127 392 103 370 86 296 c 1
 43 302 l 1
 59 368 63 403 65 446 c 1
 98 446 l 1
EndSplineSet
EndChar

StartChar: braceleft
Encoding: 123 123 307
Width: 306
GlyphClass: 2
Flags: MW
LayerCount: 2
Fore
SplineSet
205 564 m 2
 205 385 l 2
 205 302 192 272 140 248 c 1
 203 218 205 178 205 98 c 2
 205 -65 l 2
 205 -108 210 -138 219 -154 c 0
 239 -190 259 -195 269 -197 c 1
 269 -215 l 1
 192 -213 153 -200 136 -177 c 0
 116 -150 105 -107 105 -50 c 2
 105 123 l 2
 105 184 93 232 39 245 c 1
 39 250 l 1
 95 266 105 320 105 370 c 2
 105 557 l 2
 105 608 116 647 138 674 c 0
 157 697 195 710 269 712 c 1
 269 693 l 1
 248 688 231 674 218 650 c 0
 210 636 205 607 205 564 c 2
EndSplineSet
EndChar

StartChar: bar
Encoding: 124 124 308
Width: 220
GlyphClass: 2
Flags: MW
LayerCount: 2
Fore
SplineSet
140 -233 m 1
 80 -233 l 1
 80 698 l 1
 140 698 l 1
 140 -233 l 1
EndSplineSet
EndChar

StartChar: braceright
Encoding: 125 125 309
Width: 306
GlyphClass: 2
Flags: MW
LayerCount: 2
Fore
SplineSet
101 -68 m 2
 101 111 l 2
 101 194 114 224 166 248 c 1
 103 278 101 318 101 398 c 2
 101 561 l 2
 101 604 96 634 87 650 c 0
 67 686 47 691 37 693 c 1
 37 711 l 1
 114 709 153 696 170 673 c 0
 190 646 201 603 201 546 c 2
 201 373 l 2
 201 312 213 264 267 251 c 1
 267 246 l 1
 211 230 201 176 201 126 c 2
 201 -61 l 2
 201 -112 190 -151 168 -178 c 0
 149 -201 111 -214 37 -216 c 1
 37 -197 l 1
 58 -192 75 -178 88 -154 c 0
 96 -140 101 -111 101 -68 c 2
EndSplineSet
EndChar

StartChar: asciitilde
Encoding: 126 126 310
Width: 473
GlyphClass: 2
Flags: MW
LayerCount: 2
Fore
SplineSet
26 210 m 1
 39 275 95 341 167 341 c 0
 200 341 228 328 252 309 c 1
 273 291 301 277 312 277 c 0
 347 277 377 292 401 349 c 1
 437 337 l 1
 406 229 353 211 309 211 c 0
 271 211 245 224 222 244 c 0
 200 262 175 274 161 274 c 0
 135 274 86 246 62 198 c 1
 26 210 l 1
EndSplineSet
EndChar

StartChar: exclamdown
Encoding: 161 161 312
Width: 244
GlyphClass: 2
Flags: MW
LayerCount: 2
Fore
SplineSet
106 -228 m 0
 69 -228 34 -204 34 -153 c 0
 34 -118 42 -80 48 -47 c 0
 64.3 50.9 77 151 78 200 c 0
 78.4 219 82.9 242 106 242 c 0
 132.1 242 135 222 136 188 c 0
 137.3 140.3 151.2 20.4 164 -50 c 0
 171 -85 178 -114 178 -153 c 0
 178 -209 137 -228 106 -228 c 0
163 385 m 0
 163 354 138 329 107 329 c 0
 76 329 51 354 51 385 c 0
 51 415 76 440 107 440 c 0
 138 440 163 415 163 385 c 0
EndSplineSet
EndChar

StartChar: cent
Encoding: 162 162 313
Width: 438
GlyphClass: 2
Flags: MW
LayerCount: 2
Fore
SplineSet
222 584 m 1
 256 584 l 1
 256 514.9 l 1
 358 511.9 404 463.3 404 411 c 0
 404 380 386 355 354 355 c 0
 322 355 300 375 297 402 c 0
 294.4 429.7 283.6 462.7 256 471 c 1
 256 112.9 l 1
 260 112.3 264 112 268 112 c 0
 305 112 336 129 379 177 c 1
 399 158 l 1
 371 101.1 320.4 65.9 256 61.5 c 1
 256 -12 l 1
 222 -12 l 1
 222 61.6 l 1
 93.4 69 30 148.3 30 272 c 0
 30 405.2 115 501.1 222 513.6 c 1
 222 584 l 1
222 125 m 1
 222 469.8 l 1
 178.2 455.5 144 393.7 144 297 c 0
 144 215.3 177.2 151.3 222 125 c 1
EndSplineSet
EndChar

StartChar: sterling
Encoding: 163 163 314
Width: 463
GlyphClass: 2
Flags: MW
LayerCount: 2
Fore
SplineSet
160 90 m 0
 268 90 260 43 323 43 c 0
 351 43 383 53 407 86 c 1
 438 72 l 1
 420 23 376 -12 306 -12 c 0
 234 -12 194 46 137 46 c 0
 104 46 101 33 101 21 c 0
 101 -6 76 -19 58 -19 c 0
 43 -19 26 -5 26 7 c 0
 26 30.6 45.6 49.5 70.4 63.4 c 1
 92.3 79.2 128 108.4 128 266 c 2
 128 274 l 1
 86 274 l 2
 64 274 60 277 60 284 c 2
 60 298 l 2
 60 307 70 321 104 321 c 2
 128 321 l 1
 128 340 l 2
 128 430 157 480 204 525 c 0
 242 560 295 575 346 575 c 0
 368 575 425 567 425 530 c 0
 425 504 407 486 381 486 c 0
 367 486 355 495 344 506 c 0
 332 519 322 528 301 528 c 0
 257 528 236 470 236 388 c 2
 236 321 l 1
 330 321 l 2
 348 321 359 317 359 311 c 2
 359 292 l 2
 359 279 333 274 314 274 c 2
 235.8 274 l 1
 232.7 168.5 192.5 117.4 157.5 90 c 1
 158.4 90 159.2 90 160 90 c 0
EndSplineSet
EndChar

StartChar: currency
Encoding: 164 164 315
Width: 463
GlyphClass: 2
Flags: MW
LayerCount: 2
Fore
SplineSet
114 300 m 0
 114 230 164 177 230 177 c 0
 297 177 346 231 346 299 c 0
 346 371 290.1 422 232 422 c 0
 167 422 114 369 114 300 c 0
230 122 m 0
 192 122 159 131 130 147 c 1
 116 129 95 103 84 89 c 1
 23 148 l 1
 76 191 l 1
 48 226 33 261 33 299 c 0
 33 338 48 374 77 409 c 1
 61 421 40 437 25 450 c 1
 80 507 l 1
 130 452 l 1
 160 468 193 477 232 477 c 0
 272 477 302 467 331 451 c 1
 347 470 371 498 382 512 c 1
 440 451 l 1
 385 406 l 1
 413 372 427 337 427 299 c 0
 427 263 412 228 386 193 c 1
 402 180 423 162 438 149 c 1
 384 91 l 1
 333 149 l 1
 303 132 269 122 230 122 c 0
EndSplineSet
EndChar

StartChar: yen
Encoding: 165 165 316
Width: 463
GlyphClass: 2
Flags: MW
LayerCount: 2
Fore
SplineSet
417 166 m 1
 417 127 l 1
 298 127 l 1
 298 77 l 2
 298 46 313 33 353 33 c 2
 379 33 l 2
 384 33 388 30 388 24 c 2
 388 1 l 1
 386 -1 l 1
 386 -1 280 1 241 1 c 0
 205 1 94 -1 94 -1 c 1
 92 1 l 1
 92 24 l 2
 92 30 95 33 100 33 c 2
 126 33 l 2
 167 33 181 49 181 77 c 2
 181 127 l 1
 61 127 l 1
 61 166 l 1
 181 166 l 1
 181 229 l 1
 61 229 l 1
 61 269 l 1
 175.1 269 l 1
 62 501 l 2
 49 529 36 542 10 542 c 2
 3 542 l 1
 0 543 -7 544 -7 550 c 2
 -7 573 l 1
 -6 575 l 1
 5 573 92 572 104 572 c 0
 110 572 176 573 190 575 c 1
 192 573 l 1
 192 551 l 2
 192 547 190 542 186 542 c 2
 172 542 l 2
 146 542 147 530 159 503 c 2
 260 290 l 1
 354 503 l 1
 371 544 367 543 339 543 c 2
 323 543 l 2
 318 543 317 547 317 550 c 2
 317 573 l 1
 319 575 l 1
 327 574 385 572 397 572 c 0
 406 572 469 573 488 575 c 1
 489 573 l 1
 489 551 l 2
 489 547 489 543 480 543 c 2
 474 543 l 2
 444 543 426 532 413 501 c 2
 310.4 269 l 1
 417 269 l 1
 417 229 l 1
 298 229 l 1
 298 166 l 1
 417 166 l 1
EndSplineSet
EndChar

StartChar: brokenbar
Encoding: 166 166 317
Width: 220
GlyphClass: 2
Flags: MW
LayerCount: 2
Fore
SplineSet
140 674 m 1
 140 312 l 1
 80 312 l 1
 80 674 l 1
 140 674 l 1
140 161 m 1
 140 -201 l 1
 80 -201 l 1
 80 161 l 1
 140 161 l 1
EndSplineSet
EndChar

StartChar: section
Encoding: 167 167 318
Width: 466
GlyphClass: 2
Flags: MW
LayerCount: 2
Fore
SplineSet
409 -26 m 0
 409 -95 360 -169 223 -169 c 0
 150 -169 62 -116 62 -43 c 0
 62 -21 88 -2 106 -2 c 0
 141 -2 159 -36 159 -45 c 0
 159 -67 146 -73 146 -85 c 0
 146 -91 163 -134 221 -134 c 0
 266 -134 299 -100 299 -33 c 0
 299 18 232 55 181 83 c 0
 70 145 30 197 30 276 c 0
 30 332.6 70.4 379.3 109.2 411.3 c 1
 83.6 430.8 64 458.5 64 504 c 0
 64 570 149 658 244 658 c 0
 342 658 405 604 405 533 c 0
 405 510 378 491 359 491 c 0
 323 491 309 525 309 534 c 0
 309 560 320 561 320 574 c 0
 320 592 300 623 248 623 c 0
 191 623 168 576 168 524 c 0
 168 477 198 459 244 437 c 0
 356 382 437 342 437 219 c 0
 437 161 397 115 357 83 c 1
 353.4 82.3 l 1
 388.3 52.6 409 18.1 409 -26 c 0
130.4 397.4 m 1
 112 378.5 112 352.2 112 324 c 0
 112 275 137 199 247 146 c 0
 279.1 130.9 307.9 115.6 332 98.8 c 1
 352.2 117.6 355 141.9 355 171 c 0
 355 255 294 321 161 382 c 0
 150.9 386.7 140.5 391.6 130.4 397.4 c 1
EndSplineSet
EndChar

StartChar: copyright
Encoding: 169 169 320
Width: 633
GlyphClass: 2
Flags: MW
LayerCount: 2
Fore
SplineSet
437 217 m 1
 417 186 377 153 322 153 c 0
 226 153 163 227 163 307 c 0
 163 380 225 456 319 456 c 0
 389 456 393 442 427 442 c 1
 438 364 l 1
 407 360 l 1
 399 404 393 433 320 433 c 0
 283 433 230 410 230 305 c 0
 230 238 257 182 325 182 c 0
 376 182 404 216 415 232 c 1
 437 217 l 1
EndSplineSet
Refer: 2197 -1 N 1 0 0 1 0 0 2
EndChar

StartChar: ordfeminine
Encoding: 170 170 321
Width: 297
GlyphClass: 2
Flags: MW
LayerCount: 2
Fore
SplineSet
176 501 m 1
 102 480 91 451 91 431 c 0
 91 410 98 392 124 392 c 0
 145 392 149 402 176 426 c 1
 176 501 l 1
224 358 m 0
 193 358 180 379 177 397 c 1
 143 367 137 358 104 358 c 0
 62 358 27 385 27 428 c 0
 27 470 67 499 130 515 c 1
 176 530 l 1
 176 604 157 610 134 610 c 0
 101 610 92 601 92 585 c 0
 92 578 93 574 94 572 c 0
 96 570 97 565 97 560 c 0
 97 552 83 539 64 539 c 0
 49 539 32 549 32 564 c 0
 32 604 94 637 136 637 c 0
 185 637 242 617 242 523 c 2
 242 453 l 2
 242 412 247 396 256 396 c 0
 260 396 265 398 268 400 c 1
 278 380 l 1
 261 365 243 358 224 358 c 0
EndSplineSet
EndChar

StartChar: guillemotleft
Encoding: 171 171 322
Width: 560
GlyphClass: 2
Flags: MW
LayerCount: 2
Fore
SplineSet
308 457 m 1
 308 367 l 1
 265 302 219 261 165 216 c 1
 216 176 264 134 308 66 c 1
 308 -27 l 1
 201 98 130 163 63 199 c 1
 63 232 l 1
 135 282 206 347 308 457 c 1
485 457 m 1
 485 367 l 1
 441 302 396 261 341 216 c 1
 393 176 440 134 485 66 c 1
 485 -27 l 1
 378 98 307 163 240 199 c 1
 240 232 l 1
 312 282 383 347 485 457 c 1
EndSplineSet
EndChar

StartChar: logicalnot
Encoding: 172 172 323
Width: 560
GlyphClass: 2
Flags: MW
LayerCount: 2
Fore
SplineSet
479 133 m 1
 479 352 l 1
 24 352 l 1
 24 401 l 1
 537 401 l 1
 537 133 l 1
 479 133 l 1
EndSplineSet
EndChar

StartChar: registered
Encoding: 174 174 325
Width: 633
GlyphClass: 2
Flags: MW
LayerCount: 2
Fore
SplineSet
423 372 m 0
 423 320 366 296 366 296 c 1
 414 214 l 2
 427 192 438 183 454 183 c 1
 454 170 l 1
 444 167 436 166 431 166 c 0
 402 166 375 178 363 204 c 1
 315 282 l 1
 311 284 293 285 288 285 c 1
 288 194 l 2
 288 189 288 187 295 187 c 2
 307 187 l 2
 315 187 318 185 318 181 c 2
 318 167 l 1
 318 167 264 169 250 169 c 2
 194 167 l 1
 194 181 l 2
 194 185 198 187 205 187 c 2
 217 187 l 2
 223 187 225 188 225 195 c 2
 225 413 l 2
 225 418 224 424 221 424 c 2
 205 423 l 2
 198 423 195 425 195 429 c 2
 195 442 l 1
 216 445 254 447 328 447 c 0
 403 447 423 402 423 372 c 0
361 372 m 0
 361 406 350 427 316 427 c 0
 305 427 293 426 288 424 c 1
 288 309 l 1
 319 309 361 310 361 372 c 0
EndSplineSet
Refer: 2197 -1 N 1 0 0 1 0 0 2
EndChar

StartChar: macron
Encoding: 175 175 326
Width: 397
GlyphClass: 2
Flags: MW
LayerCount: 2
Fore
SplineSet
315 525 m 2
 71 525 l 2
 62 525 59 535 59 542 c 0
 59 553 69 573 81 573 c 2
 325 573 l 2
 335 573 339 563 339 556 c 0
 339 545 328 525 315 525 c 2
EndSplineSet
EndChar

StartChar: degree
Encoding: 176 176 327
Width: 267
GlyphClass: 2
Flags: MW
LayerCount: 2
Fore
SplineSet
197 524 m 0
 197 555 177 593 134 593 c 0
 93 593 71 558 71 524 c 0
 71 491 93 458 134 458 c 0
 174 458 197 491 197 524 c 0
34 525 m 0
 34 581 79 625 134 625 c 0
 189 625 233 581 233 525 c 0
 233 470 189 426 134 426 c 0
 79 426 34 470 34 525 c 0
EndSplineSet
EndChar

StartChar: uni00B2
Encoding: 178 178 329
Width: 332
GlyphClass: 2
Flags: MW
LayerCount: 2
Fore
SplineSet
86 573 m 0
 62 573 47 592 47 608 c 0
 47 635 72 687 167 687 c 0
 226 687 286 668 286 603 c 0
 286 568 261 537 226 507 c 1
 145 445 128 425 125 399 c 1
 251 399 l 1
 257 414 260 421 266 446 c 1
 298 439 l 1
 283 360 l 1
 37 360 l 1
 37 409 64 433 156 512 c 0
 187 539 208 565 208 601 c 0
 208 645 173 657 162 657 c 0
 128.5 657 112 643 112 632 c 0
 112 626 112 624 113 621 c 0
 114 616 116 606 116 604 c 0
 116 585 103 573 86 573 c 0
EndSplineSet
EndChar

StartChar: uni00B3
Encoding: 179 179 330
Width: 332
GlyphClass: 2
Flags: MW
LayerCount: 2
Fore
SplineSet
197 621 m 0
 197 648 179 660 160 660 c 0
 148 660 110 647 108 626 c 1
 108 613 107 589 78 589 c 0
 46 589 45 611 45 615 c 0
 45 633 69 688 172 688 c 0
 237 688 273 665 273 626 c 0
 273 602 254 578 224 560 c 1
 262 550 299 522 299 471 c 0
 299 401 228 358 138 358 c 0
 92 358 36 371 36 394 c 0
 36 410 46 426 64 426 c 0
 92 426 100 414 106 405 c 0
 113 395 131 388 148 388 c 0
 162 388 224 399 224 464 c 0
 224 517 190 528 149 528 c 0
 146 528 136 527 108 521 c 1
 105 548 l 1
 149 554 197 581 197 621 c 0
EndSplineSet
EndChar

StartChar: mu
Encoding: 181 181 332
Width: 529
GlyphClass: 2
Flags: MW
LayerCount: 2
Fore
SplineSet
325 48 m 1
 284 15 247 -12 192 -12 c 0
 176 -12 160 -9 146 -3 c 1
 148 -35 145 -67 151 -96 c 0
 157 -122 163 -151 163 -168 c 0
 163 -211 142 -232 110 -232 c 0
 90 -232 47 -206 47 -163 c 0
 47 -142 50 -118 54 -92 c 0
 58 -66 64 -40 64 -4 c 0
 64 10 62 26 61 46 c 1
 58 72 47 111.5 47 137 c 2
 47 323 l 2
 47 348 36 434 36 434 c 1
 154 447 l 1
 154 447 157 375 157 343 c 2
 157 150 l 2
 157 87 175 41 210 41 c 0
 251 41 302 68 324 98 c 1
 324 434 l 1
 434 448 l 1
 434 126 l 2
 434 80 435 42 474 42 c 0
 498.2 42 499.2 58 505 58 c 0
 509 58 518 45 518 38 c 0
 518 33 480 -10 425 -10 c 0
 365 -10 339 9.5 327 48 c 1
 325 48 l 1
EndSplineSet
EndChar

StartChar: paragraph
Encoding: 182 182 333
Width: 602
GlyphClass: 2
Flags: MW
LayerCount: 2
Fore
SplineSet
498 -144 m 2
 498 -200 506 -205 538 -206 c 1
 567 -206 l 2
 571 -206 573 -209 573 -213 c 2
 573 -234 l 1
 244 -234 l 1
 244 -213 l 2
 244 -208 246 -206 250 -206 c 2
 279 -206 l 1
 312 -205 318 -195 318 -143 c 2
 318 227 l 1
 304 220 273 215 241 215 c 0
 158 215 27 261 27 439 c 0
 27 562 98 646 230 646 c 0
 305 646 366 641 393 641 c 0
 428 641 462 644 462 644 c 1
 573 646 l 1
 573 625 l 2
 573 621 571 618 567 618 c 2
 538 618 l 2
 502 618 498 602 498 556 c 2
 498 -144 l 2
407 -207 m 0
 436 -207 439 -187 439 -145 c 2
 439 556 l 2
 439 614 426 615 410 616 c 1
 378 616 377 584 377 553 c 2
 377 -143 l 2
 377 -172 381 -207 407 -207 c 0
EndSplineSet
EndChar

StartChar: periodcentered
Encoding: 183 183 334
Width: 301
GlyphClass: 2
Flags: MW
LayerCount: 2
Fore
SplineSet
151 191 m 0
 110 191 83 223 83 258 c 0
 83 293 114 326 151 326 c 0
 185 326 219 296 219 258 c 0
 219 222 189 191 151 191 c 0
EndSplineSet
EndChar

StartChar: uni00B9
Encoding: 185 185 336
Width: 332
GlyphClass: 2
Flags: MW
LayerCount: 2
Fore
SplineSet
141 432 m 2
 141 564 l 2
 141 597.8 135.4 609.8 119.1 609.8 c 0
 107.9 609.8 91.8 604.1 69 596 c 1
 59 622 l 1
 108 641 140.7 651.8 189 682 c 0
 193.1 684.6 199.5 688 205.5 688 c 0
 212.3 688 216 686.2 216 682 c 2
 216 682 214 653.4 214 625.2 c 2
 214 432 l 2
 214 404 227 396.7 257 390 c 2
 266 388 l 2
 270.9 386.9 274 385 274 380 c 2
 274 364 l 1
 272 362 l 1
 272 362 215 364 176 364 c 0
 141 364 84 362 84 362 c 1
 82 364 l 1
 82 380 l 2
 82 385 85.1 386.8 90 388 c 2
 98 390 l 2
 128.9 397.7 141 404 141 432 c 2
EndSplineSet
EndChar

StartChar: ordmasculine
Encoding: 186 186 337
Width: 349
GlyphClass: 2
Flags: MW
LayerCount: 2
Fore
SplineSet
39 484 m 0
 39 569 91 621 177 621 c 0
 275 621 311 557 311 490 c 0
 311 422 266 358 172 358 c 0
 98 358 39 412 39 484 c 0
171 591 m 0
 123 591 100 546 100 494 c 0
 100 446 125 390 182 390 c 0
 209 390 251 405 251 475 c 0
 251 551 219 591 171 591 c 0
EndSplineSet
EndChar

StartChar: guillemotright
Encoding: 187 187 338
Width: 560
GlyphClass: 2
Flags: MW
LayerCount: 2
Fore
SplineSet
208 -27 m 1
 208 63 l 1
 251 128 297 169 351 214 c 1
 300 254 252 296 208 364 c 1
 208 457 l 1
 315 332 386 267 453 231 c 1
 453 198 l 1
 381 148 310 83 208 -27 c 1
31 -27 m 1
 31 63 l 1
 75 128 120 169 175 214 c 1
 123 254 76 296 31 364 c 1
 31 457 l 1
 138 332 209 267 276 231 c 1
 276 198 l 1
 204 148 133 83 31 -27 c 1
EndSplineSet
EndChar

StartChar: onequarter
Encoding: 188 188 339
Width: 660
GlyphClass: 2
Flags: MW
LayerCount: 2
Fore
SplineSet
532 601 m 1
 574 593 l 1
 115 -62 l 1
 74 -54 l 1
 532 601 l 1
EndSplineSet
Refer: 1073 8308 N 1 0 0 1 348 -446 2
Refer: 336 185 N 1 0 0 1 -3 -49 2
LCarets2: 2 0 0
EndChar

StartChar: onehalf
Encoding: 189 189 340
Width: 660
GlyphClass: 2
Flags: MW
LayerCount: 2
Fore
SplineSet
532 601 m 1
 574 593 l 1
 115 -62 l 1
 74 -54 l 1
 532 601 l 1
EndSplineSet
Refer: 336 185 N 1 0 0 1 -1 -49 2
Refer: 329 178 N 1 0 0 1 358 -443 2
LCarets2: 2 0 0
EndChar

StartChar: threequarters
Encoding: 190 190 341
Width: 660
GlyphClass: 2
Flags: MW
LayerCount: 2
Fore
SplineSet
532 601 m 1
 574 593 l 1
 115 -62 l 1
 74 -54 l 1
 532 601 l 1
EndSplineSet
Refer: 1073 8308 N 1 0 0 1 352 -444 2
Refer: 330 179 N 1 0 0 1 -2 -51 2
LCarets2: 2 0 0
EndChar

StartChar: questiondown
Encoding: 191 191 342
Width: 430
GlyphClass: 2
Flags: MW
LayerCount: 2
Fore
SplineSet
279 -141 m 0
 279 -120 270 -114 270 -87 c 0
 270 -62 293 -46 323 -46 c 0
 347 -46 380 -66 380 -104 c 0
 380 -139 361 -162 327 -190 c 0
 297 -215 251 -229 190 -229 c 0
 76 -229 5 -168 5 -76 c 0
 5 -2 68 45 118 82 c 0
 146 102 179 129 179 201 c 2
 179 224 l 2
 179 246 183 258 214 258 c 0
 245 258 248 246 248 224 c 2
 248 199 l 2
 248 158 246 101 175 36 c 0
 140 5 120 -33 120 -83 c 0
 120 -141 143.9 -193 200 -193 c 0
 244 -193 279 -169 279 -141 c 0
270 385 m 0
 270 354 245 329 214 329 c 0
 183 329 158 354 158 385 c 0
 158 415 183 440 214 440 c 0
 245 440 270 415 270 385 c 0
EndSplineSet
EndChar

StartChar: Adieresis.alt
Encoding: 1114112 -1 347
Width: 699
GlyphClass: 2
Flags: MW
LayerCount: 2
Fore
SplineSet
170 679 m 0
 170 709 194 733 224 733 c 0
 254 733 277 709 277 679 c 0
 277 649 254 625 224 625 c 0
 194 625 170 649 170 679 c 0
433 679 m 0
 433 709 457 733 487 733 c 0
 517 733 540 709 540 679 c 0
 540 649 517 625 487 625 c 0
 457 625 433 649 433 679 c 0
EndSplineSet
Refer: 24 65 N 1 0 0 1 0 0 2
Position2: "'cpsp' Versalabstaende 1" dx=2 dy=0 dh=5 dv=0
EndChar

StartChar: AE
Encoding: 198 198 349
Width: 910
GlyphClass: 2
Flags: MW
AnchorPoint: "above" 510 850 basechar 0
LayerCount: 2
Fore
SplineSet
291 305 m 1
 449 305 l 1
 449 545 l 2
 449 571 437 578 420 546 c 2
 291 305 l 1
516 1 m 1
 362 -1 l 1
 360 1 l 1
 360 23 l 2
 360 29 363 33 368 33 c 2
 395 33 l 2
 436 33 449 49 449 77 c 2
 449 266 l 1
 271 266 l 1
 165 68 l 2
 149 39 180 33 214 33 c 0
 218 33 220 29 220 27 c 2
 220 1 l 1
 218 -1 l 1
 218 -1 143 1 104 1 c 0
 69 1 4 -1 4 -1 c 1
 2 1 l 1
 2 25 l 2
 2 30 6 33 12 33 c 2
 35 33 l 2
 63 33 76 35 95 70 c 2
 354 562 l 2
 373 599 348 613 302 613 c 0
 296 613 294 616 294 620 c 2
 294 645 l 1
 296 646 l 1
 517 646 l 1
 840 646 l 1
 844 589 852 536 861 485 c 1
 821 476 l 1
 807 527 782 601 715 601 c 2
 585 601 l 2
 576 601 571 593 571 572 c 2
 571 366 l 1
 685 366 l 2
 709 366 713 396 719 437 c 0
 719 441 725 448 735 448 c 2
 756 448 l 1
 762 438 l 1
 760 422 755 381 755 345 c 0
 755 309 760 269 762 252 c 1
 756 243 l 1
 735 243 l 2
 725 243 719 249 719 253 c 0
 713 294 709 324 685 324 c 2
 571 324 l 1
 571 76 l 2
 571 53 576 47 585 47 c 2
 738 47 l 2
 793 47 830 106 846 180 c 1
 890 170 l 1
 879 117 870 55 862 1 c 1
 516 1 l 1
EndSplineSet
Position2: "'cpsp' Versalabstaende 1" dx=2 dy=0 dh=5 dv=0
EndChar

StartChar: Eth
Encoding: 208 208 359
Width: 718
GlyphClass: 2
UnlinkRmOvrlpSave: 1
Flags: MW
LayerCount: 2
Fore
SplineSet
17 287 m 1
 17 333 l 1
 288 333 l 1
 288 287 l 1
 17 287 l 1
EndSplineSet
Refer: 27 68 N 1 0 0 1 0 0 2
Position2: "'cpsp' Versalabstaende 1" dx=2 dy=0 dh=5 dv=0
EndChar

StartChar: Odieresis.alt
Encoding: 1114113 -1 365
Width: 730
GlyphClass: 2
Flags: MW
LayerCount: 2
Fore
SplineSet
75 679 m 0
 75 709 99 733 129 733 c 0
 159 733 182 709 182 679 c 0
 182 649 159 625 129 625 c 0
 99 625 75 649 75 679 c 0
550 679 m 0
 550 709 574 733 604 733 c 0
 634 733 657 709 657 679 c 0
 657 649 634 625 604 625 c 0
 574 625 550 649 550 679 c 0
EndSplineSet
Refer: 264 79 N 1 0 0 1 0 0 2
Position2: "'cpsp' Versalabstaende 1" dx=2 dy=0 dh=5 dv=0
EndChar

StartChar: multiply
Encoding: 215 215 366
Width: 527
GlyphClass: 2
Flags: MW
LayerCount: 2
Fore
SplineSet
306 232 m 1
 426 111 l 1
 383 69 l 1
 262 187 l 1
 144 69 l 1
 103 111 l 1
 221 227 l 1
 103 346 l 1
 147 393 l 1
 266 273 l 1
 382 393 l 1
 426 351 l 1
 306 232 l 1
EndSplineSet
EndChar

StartChar: Oslash
Encoding: 216 216 367
Width: 730
GlyphClass: 2
UnlinkRmOvrlpSave: 1
Flags: MW
LayerCount: 2
Fore
SplineSet
608 670 m 1
 645 641 l 1
 88 -45 l 1
 52 -14 l 1
 608 670 l 1
EndSplineSet
Refer: 264 79 N 1 0 0 1 0 0 2
Position2: "'cpsp' Versalabstaende 1" dx=2 dy=0 dh=5 dv=0
EndChar

StartChar: Udieresis.alt
Encoding: 1114114 -1 371
Width: 678
GlyphClass: 2
Flags: MW
LayerCount: 2
Fore
SplineSet
207 569 m 2
 207 268 l 2
 207 208.8 206 126.1 253 78 c 1
 282 50 318 29 355 29 c 0
 502 29 521 168 521 276 c 2
 521 569 l 2
 521 600 509 613 501 613 c 0
 496 613 496 620 496 626 c 2
 496 645 l 1
 498 647 l 1
 498 647 518 645 557 645 c 0
 593 645 669 647 669 647 c 1
 671 645 l 1
 671 621 l 2
 671 616 668 613 663 613 c 2
 649 613 l 2
 608 613 594 599 594 569 c 2
 594 293 l 1
 595 115 555 -12 334 -12 c 0
 237 -12 84 45 84 235 c 2
 84 569 l 2
 84 602 69 613 30 613 c 2
 16 613 l 2
 11 613 7 616 7 621 c 2
 7 645 l 1
 9 647 l 1
 9 647 106 645 146 645 c 0
 181 645 216 647 216 647 c 1
 218 645 l 1
 218 628 l 2
 218 620 218 613 215 613 c 0
 210 613 207 609 207 569 c 2
235 679 m 0
 235 709 259 733 289 733 c 0
 319 733 342 709 342 679 c 0
 342 649 319 625 289 625 c 0
 259 625 235 649 235 679 c 0
375 679 m 0
 375 709 399 733 429 733 c 0
 459 733 482 709 482 679 c 0
 482 649 459 625 429 625 c 0
 399 625 375 649 375 679 c 0
EndSplineSet
Position2: "'cpsp' Versalabstaende 1" dx=2 dy=0 dh=5 dv=0
EndChar

StartChar: Thorn
Encoding: 222 222 373
Width: 586
GlyphClass: 2
Flags: MW
LayerCount: 2
Fore
SplineSet
221 477 m 1
 221 189 l 1
 230 187 254 185 292 185 c 0
 364 185 430 214 430 343 c 0
 430 463 370 490 310 490 c 0
 291 490 243 482 221 477 c 1
160 1 m 0
 121 1 24 -1 24 -1 c 1
 22 1 l 1
 22 24 l 2
 22 30 26 33 30 33 c 2
 44 33 l 2
 84 33 99 45 99 77 c 2
 99 569 l 2
 99 601 84 613 44 613 c 2
 30 613 l 2
 26 613 22 616 22 621 c 2
 22 645 l 1
 24 646 l 1
 24 646 124 645 163 645 c 0
 199 645 308 646 308 646 c 1
 310 645 l 1
 310 621 l 2
 310 616 307 613 302 613 c 2
 276 613 l 2
 235 613 221 598 221 570 c 2
 221 521 l 1
 258 523 304 523 322 523 c 0
 507 523 552 414 552 343 c 0
 552 268 486 150 309 150 c 0
 273 150 237 151 221 157 c 1
 221 77 l 2
 221 46 236 33 276 33 c 2
 302 33 l 2
 307 33 311 30 311 24 c 2
 311 1 l 1
 309 -1 l 1
 309 -1 199 1 160 1 c 0
EndSplineSet
Position2: "'cpsp' Versalabstaende 1" dx=2 dy=0 dh=5 dv=0
EndChar

StartChar: germandbls
Encoding: 223 223 374
Width: 580
GlyphClass: 2
Flags: MW
LayerCount: 2
Fore
SplineSet
92 482 m 0
 92 646 249 698 327 698 c 0
 431 698 493 635 493 587 c 0
 493 510 421 464 352 411 c 1
 352 409 l 1
 430 357 546 289 546 173 c 0
 546 68 467 -10 375 -10 c 0
 292 -10 266 47 266 91 c 0
 266 106 286 131 302 131 c 0
 322 131 343 118 343 98 c 0
 343 81 331 71 331 53 c 0
 331 31 353 26 375 26 c 0
 405 26 424 65 424 156 c 0
 424 249 375 332 291 396 c 1
 291 409 l 1
 358 461 378 501 378 574 c 0
 378 628 371 661 318 661 c 0
 214 661 202 555 202 447 c 2
 202 91 l 2
 202 56 217.5 36.5 246 32 c 0
 250 31.4 254 29 254 23 c 2
 254 0 l 1
 252 -2 l 1
 252 -2 184 0 145 0 c 0
 109 0 24 -2 24 -2 c 1
 22 0 l 1
 22 23 l 2
 22 29 25 31.5 30 32 c 2
 49 34 l 2
 83.2 37.6 92 48 92 77 c 2
 92 379 l 2
 92 391 91 395 77 395 c 2
 33 395 l 2
 28 395 27 396 27 400 c 2
 27 414 l 2
 27 422 33 434 50 434 c 0
 81 434 92 455 92 482 c 0
EndSplineSet
EndChar

StartChar: ae
Encoding: 230 230 381
Width: 715
GlyphClass: 2
Flags: MW
AnchorPoint: "above" 355 645 basechar 0
LayerCount: 2
Fore
SplineSet
506 399 m 0
 454 399 417 339 408 260 c 1
 515 267 574 285 574 339 c 0
 574 378 541 399 506 399 c 0
288 103 m 0
 293 118 300 162 301 209 c 1
 206 197 151 156 151 111 c 0
 151 70 181 38 217 38 c 0
 248 38 270 51 288 103 c 0
230 444 m 0
 280 444 333 436 368 384 c 1
 398 423 455 445 513 444 c 1
 636 444 678 394 678 342 c 0
 678 257 591 221 406 217 c 1
 407 116 463 44 524 44 c 0
 566 44 598 67 633 109 c 1
 673 85 l 1
 644 31 589 -12 511 -12 c 0
 429 -12 391 21 352 70 c 1
 321 16 264 -12 202 -12 c 0
 127 -12 47 10 47 89 c 0
 47 179 134 239 301 253 c 1
 301 358 265 407 218 407 c 0
 181 407 155 393 155 371 c 0
 155 351 162 340 162 328 c 0
 162 314 153 287 108 287 c 0
 73 287 58 313 58 339 c 0
 58 399 158 444 230 444 c 0
EndSplineSet
EndChar

StartChar: eth
Encoding: 240 240 391
Width: 512
GlyphClass: 2
Flags: MW
LayerCount: 2
Fore
SplineSet
34 209 m 0
 34 383 169 445 260 445 c 0
 276 445 294 443 311 440 c 1
 291 486 267 525 240 560 c 1
 206 536 161 506 130 486 c 1
 98 534 l 1
 203 604 l 1
 198 609 194 613 190 618 c 0
 165 642 142 663 119 679 c 1
 144 713 l 1
 191 688 231 665 260 642 c 1
 294 666 341 696 372 717 c 1
 404 669 l 1
 307 604 l 1
 312 599 317 594 322 589 c 0
 410 500 479 380 479 239 c 0
 479 68 365 -12 243 -12 c 0
 105 -12 34 105 34 209 c 0
259 34 m 0
 297 34 360 67 360 225 c 0
 360 271 350 322 339 362 c 1
 317 386 287 403 258 403 c 0
 175 403 149 300 149 227 c 0
 149 116 202 34 259 34 c 0
EndSplineSet
EndChar

StartChar: oslash
Encoding: 248 248 393
Width: 519
GlyphClass: 2
Flags: MW
LayerCount: 2
Fore
SplineSet
430 475 m 1
 467 446 l 1
 418.1 386.3 l 1
 465.1 340.9 485 275.5 485 216 c 0
 485 115 414 -10 259 -10 c 0
 205.3 -10 160.8 5.2 126 29.5 c 1
 74 -34 l 1
 38 -2 l 1
 90 61.3 l 1
 53 102.5 34 156.1 34 207 c 0
 34 344 115 444 260 444 c 0
 308.9 444 348.6 432.9 380.4 414.6 c 1
 430 475 l 1
250 403 m 0
 186 403 156 314 156 229 c 0
 156 206.8 159.3 180.3 166.2 154 c 1
 329.4 352.6 l 1
 309.6 385.9 282.3 403 250 403 c 0
349.9 303 m 1
 185.4 102 l 1
 204.9 62.9 234.4 33 275 33 c 0
 311 33 364 57 364 184 c 0
 364 231 359 270.8 349.9 303 c 1
EndSplineSet
EndChar

StartChar: thorn
Encoding: 254 254 396
Width: 535
GlyphClass: 2
Flags: MW
LayerCount: 2
Fore
SplineSet
206 324 m 1
 206 65 l 1
 231 38 256 32 267 32 c 0
 354 32 381 126 381 210 c 0
 381 327 354 391 295 391 c 0
 271 391 231 367 206 324 c 1
206 583 m 2
 204 374 l 1
 230 413 266 444 327 444 c 0
 436 444 496 343 496 237 c 0
 496 159 468 96 419 47 c 0
 380 8 334 -10 273 -10 c 0
 250 -10 223 -1 206 7 c 1
 206 -154 l 2
 206 -182 223.2 -190.3 254 -198 c 2
 262 -200 l 2
 266.9 -201.2 271 -203 271 -208 c 2
 271 -232 l 1
 269 -234 l 1
 269 -234 188 -232 149 -232 c 0
 113 -232 33 -234 33 -234 c 1
 31 -232 l 1
 31 -208 l 2
 31 -203 34.1 -201.1 39 -200 c 2
 48 -198 l 2
 79.2 -191.1 96 -182 96 -154 c 2
 96 563 l 2
 96 628 86 636 66 636 c 1
 34 638 l 2
 30.8 638.2 28.3 640 28 643 c 2
 25 672 l 1
 65.5 675 167.9 688 193 698 c 1
 202 698 209 695 209 688 c 2
 209 688 206.6 648 206 583 c 2
EndSplineSet
EndChar

StartChar: Aogonek
Encoding: 260 260 402
Width: 699
GlyphClass: 2
UnlinkRmOvrlpSave: 1
Flags: MW
LayerCount: 2
Fore
SplineSet
603.015625 5.1171875 m 9
 686.015625 5.1171875 l 1
 686.015625 -0.8828125 l 17
 606.015625 -0.8828125 556 -76 556 -127 c 0
 556 -159 573 -182 609 -182 c 0
 639 -182 660 -167 679 -146 c 1
 694 -158 l 1
 670 -205 620 -225 584 -225 c 0
 531 -225 484 -194 484 -140 c 0
 484 -82.1389449777 548.265625 -16.7890625 603.015625 5.1171875 c 9
EndSplineSet
Refer: 24 65 N 1 0 0 1 0 0 2
Position2: "'cpsp' Versalabstaende 1" dx=2 dy=0 dh=5 dv=0
EndChar

StartChar: aogonek
Encoding: 261 261 403
Width: 486
GlyphClass: 2
Flags: MW
LayerCount: 2
Fore
SplineSet
293 80 m 1
 293 238 l 1
 175 205 149 161 149 110 c 0
 149 83 163 36 220 36 c 0
 234 36 260 53 293 80 c 1
230 445 m 0
 376 445 403 357 403 271 c 2
 403 102 l 2
 403 54 403 49 410 49 c 0
 416 49 429 63 446 83 c 1
 472 57 l 1
 414 0 346 -53 346 -118 c 0
 346 -148 364 -170 398 -170 c 0
 415 -170 431 -162 454 -137 c 1
 474 -155 l 1
 449 -187 417 -210 375 -210 c 0
 321 -210 271 -189 271 -120 c 0
 271 -79 305 -39 348 -3 c 1
 328 0 309 16 301 29 c 1
 292 23 l 2
 256 -1 229 -12 187 -12 c 0
 96 -12 39 36 39 105 c 0
 39 184 104 232 216 260 c 2
 293 279 l 1
 293 306 291 363 267 385 c 0
 252 400 239 407 227 407 c 0
 189 407 155 393 155 371 c 0
 155 351 162 340 162 328 c 0
 162 314 153 287 108 287 c 0
 73 287 58 313 58 339 c 0
 58 399 158 445 230 445 c 0
EndSplineSet
EndChar

StartChar: dcroat
Encoding: 273 273 415
Width: 527
GlyphClass: 2
UnlinkRmOvrlpSave: 1
Flags: MW
LayerCount: 2
Fore
SplineSet
190 533 m 1
 190 572 l 1
 486 572 l 1
 487 533 l 1
 190 533 l 1
EndSplineSet
Refer: 284 100 N 1 0 0 1 0 0 2
EndChar

StartChar: dotlessi
Encoding: 305 305 419
Width: 286
GlyphClass: 2
Flags: MW
AnchorPoint: "below" 135 -108 basechar 0
AnchorPoint: "top_punkt" 158 550 basechar 0
AnchorPoint: "above" 151 645 basechar 0
LayerCount: 2
Fore
SplineSet
211 321.3 m 2
 211 77 l 2
 211 49 228.4 39.9 258 34 c 2
 268 32 l 2
 271.9 31.1 276 29 276 23 c 2
 276 0 l 1
 274 -2 l 1
 274 -2 193 0 154 0 c 0
 118 0 37 -2 37 -2 c 1
 35 0 l 1
 35 23 l 2
 35 29 38.1 31.3 42 32 c 2
 54 34 l 2
 85 39.2 101 49 101 77 c 2
 101 321 l 2
 101 371 93 382 79 383 c 2
 38 387 l 1
 36 417 l 1
 105.5 426.5 175.5 437 207 447 c 0
 209.4 447 214 446.4 214 444 c 2
 214 444 211 371.3 211 321.3 c 2
EndSplineSet
EndChar

StartChar: kgreenlandic
Encoding: 312 312 426
Width: 540
GlyphClass: 2
Flags: MW
AnchorPoint: "cedilla" 138 10 basechar 0
AnchorPoint: "above" 258 644 basechar 0
AnchorPoint: "top_punkt" 265 549 basechar 0
AnchorPoint: "below" 150 -108 basechar 0
LayerCount: 2
Fore
SplineSet
98 76 m 2
 98 317 l 2
 98 347 84 380 34 368 c 1
 27 404 l 1
 99 420 126 428 169 445 c 1
 208 445 l 1
 208 249 l 1
 234 268 270 305 312 349 c 0
 338 377 322 402 307 402 c 2
 286 402 l 2
 275 402 273 406 273 412 c 2
 273 430 l 1
 278 434 l 1
 278 434 345 432 380 432 c 0
 419 432 495 434 495 434 c 1
 498 430 l 1
 498 412 l 2
 498 404 497 402 488 402 c 2
 458 402 l 2
 440 402 403 375 379 351 c 1
 355 324 304 269 304 269 c 2
 300 264 302 256 307 249 c 2
 423 78 l 2
 440 52 463 33 479 33 c 2
 508 33 l 2
 513 33 516 31 516 27 c 2
 516 1 l 1
 513 -1 l 1
 513 -1 443 1 404 1 c 0
 369 1 320 -1 320 -1 c 1
 318 1 l 1
 318 27 l 2
 318 42 318 56 302 78 c 0
 279 111 253 146 230 180 c 0
 223 189 215 195 208 199 c 1
 208 77 l 2
 208 38 236 33 259 33 c 0
 264 33 268 30 268 24 c 2
 268 1 l 1
 266 -1 l 1
 266 -1 190 1 151 1 c 0
 116 1 35 -1 35 -1 c 1
 33 1 l 1
 33 24 l 2
 33 30 36 33 41 33 c 2
 50 33 l 2
 84 33 98 48 98 76 c 2
EndSplineSet
Comment: "Ist das so richtig?"
EndChar

StartChar: Lslash
Encoding: 321 321 435
Width: 538
GlyphClass: 2
Flags: MW
LayerCount: 2
Fore
SplineSet
310 449 m 1
 333 411 l 1
 222 347.9 l 1
 222 92 l 2
 222 62 235 46 256 46 c 2
 342 46 l 2
 421 46 457 120 473 181 c 1
 512 173 l 1
 501 119 490 56 488 0 c 1
 144.8 0 l 2
 104.8 0 26 -2 26 -2 c 1
 22 0 l 1
 22 20 l 2
 22 27 26 32 38 32 c 2
 70 32 l 2
 94 32 100 41 100 72 c 2
 100 278.5 l 1
 27 237 l 1
 5 275 l 1
 100 329.2 l 1
 100 569 l 2
 100 601 84 613 45 613 c 2
 31 613 l 2
 26 613 22 616 22 621 c 2
 22 645 l 1
 24 647 l 1
 24 647 122 645 161 645 c 0
 196 645 296 647 296 647 c 1
 298 645 l 1
 298 621 l 2
 298 616 295 613 291 613 c 2
 276 613 l 2
 235 613 222 597 222 569 c 2
 222 398.8 l 1
 310 449 l 1
EndSplineSet
Position2: "'cpsp' Versalabstaende 1" dx=2 dy=0 dh=5 dv=0
EndChar

StartChar: lslash
Encoding: 322 322 436
Width: 289
GlyphClass: 2
Flags: MW
LayerCount: 2
Fore
SplineSet
258 450 m 1
 279 414 l 1
 205 369.7 l 1
 205 77 l 2
 205 49 221.4 39.9 254 34 c 2
 265 32 l 2
 268.9 31.3 273 29 273 23 c 2
 273 0 l 1
 271 -2 l 1
 271 -2 187 0 148 0 c 0
 113 0 29 -2 29 -2 c 1
 27 0 l 1
 27 23 l 2
 27 29 30.1 31.2 35 32 c 2
 47 34 l 2
 78.6 39.3 95 49 95 77 c 2
 95 303.7 l 1
 27 263 l 1
 6 299 l 1
 95 352.3 l 1
 95 563 l 2
 95 628 85 636 65 636 c 1
 33 638 l 2
 29.8 638.2 27.3 640 27 643 c 2
 24 672 l 1
 64.5 675 166.9 688 192 698 c 1
 201 698 208 695 208 688 c 2
 208 688 205 648 205 583 c 2
 205 418.2 l 1
 258 450 l 1
EndSplineSet
EndChar

StartChar: Eng
Encoding: 330 330 444
Width: 703
GlyphClass: 2
UnlinkRmOvrlpSave: 1
Flags: MW
LayerCount: 2
Fore
SplineSet
633 103 m 2
 633 -25 591 -92 533 -138 c 1
 488 -176 419 -182 394 -182 c 3
 340 -182 284 -167 284 -119 c 3
 284 -90 316 -71 335 -71 c 3
 376 -71 390 -89 404 -107 c 0
 414 -120 423 -122 437 -122 c 3
 470 -122 511 -99 511 81 c 2
 511 454 l 2
 511 539 474 588 422 588 c 3
 266 588 156 376 156 159 c 1
 123 159 l 1
 123 448 261 654 443 654 c 3
 547 654 633 611 633 487 c 2
 633 103 l 2
221 76 m 2
 221 48 235 32 276 32 c 2
 290 32 l 2
 295 32 298 29 298 23 c 2
 298 0 l 1
 298 0 297 -2 296 -2 c 3
 243 -2 196 0 160 0 c 3
 121 0 24 -2 24 -2 c 1
 22 0 l 1
 22 23 l 2
 22 29 26 32 30 32 c 2
 44 32 l 2
 84 32 99 44 99 76 c 2
 99 569 l 2
 99 601 84 613 44 613 c 2
 30 613 l 2
 26 613 22 616 22 621 c 2
 22 645 l 1
 24 647 l 1
 24 647 121 645 160 645 c 3
 176 645 221 647 221 647 c 1
 221 76 l 2
EndSplineSet
Position2: "'cpsp' Versalabstaende 1" dx=2 dy=0 dh=5 dv=0
Comment: "Sieht in Times anders aus"
EndChar

StartChar: eng
Encoding: 331 331 445
Width: 515
GlyphClass: 2
Flags: MW
LayerCount: 2
Fore
SplineSet
360 76 m 2
 360 291 l 2
 360 359 354 389 318 389 c 3
 288 389 258 372 208 337 c 1
 208 76 l 2
 208 48 224 33 257 33 c 2
 260 33 l 2
 264 33 268 30 268 24 c 2
 268 1 l 1
 266 -1 l 1
 266 -1 190 1 151 1 c 3
 116 1 35 -1 35 -1 c 1
 33 1 l 1
 33 24 l 2
 33 30 36 33 41 33 c 2
 50 33 l 2
 84 33 98 48 98 76 c 2
 98 342 l 2
 98 363 91 373 69 373 c 3
 60 373 49 372 34 368 c 1
 27 404 l 1
 99 420 126 428 169 445 c 1
 208 445 l 1
 206 382 l 1
 257 421 300 445 348 445 c 3
 455 445 470 378 470 284 c 2
 470 90 l 2
 470 -22 454 -88 393 -153 c 1
 366 -179 328 -196 290 -196 c 3
 249 -196 175 -182 175 -126 c 3
 175 -100 198 -93 218 -93 c 3
 256 -93 262 -121 266 -135 c 0
 270 -148 282 -158 289 -158 c 3
 325 -158 360 -100 360 76 c 2
EndSplineSet
EndChar

StartChar: OE
Encoding: 338 338 452
Width: 850
GlyphClass: 2
Flags: MW
AnchorPoint: "above" 450 850 basechar 0
LayerCount: 2
Fore
SplineSet
348 40 m 2
 360 40 l 2
 382 40 389 50 389 75 c 2
 389 571 l 2
 389 599 381 604 360 604 c 2
 326 604 l 2
 241 604 164 536 164 328 c 0
 164 125 257 40 348 40 c 2
780 645 m 1
 785 588 792 534 802 484 c 1
 762 474 l 1
 748 526 723 599 656 599 c 2
 525 599 l 2
 516 599 512 591 512 571 c 2
 512 365 l 1
 625 365 l 2
 649 365 654 395 659 436 c 0
 660 440 666 446 676 446 c 2
 697 446 l 1
 703 437 l 1
 701 420 696 380 696 344 c 0
 696 307 701 267 703 251 c 1
 697 241 l 1
 676 241 l 2
 666 241 660 248 659 252 c 0
 654 292 649 323 625 323 c 2
 512 323 l 1
 512 74 l 2
 512 51 517 46 525 46 c 2
 679 46 l 2
 733 46 770 104 786 178 c 1
 830 168 l 1
 819 115 810 54 803 0 c 1
 605 0 542 0 350 0 c 0
 149 0 34 138 34 319 c 0
 34 499 141 646 338 646 c 2
 780 645 l 1
EndSplineSet
Position2: "'cpsp' Versalabstaende 1" dx=2 dy=0 dh=5 dv=0
EndChar

StartChar: oe
Encoding: 339 339 453
Width: 799
GlyphClass: 2
Flags: MW
AnchorPoint: "above" 430 645 basechar 0
LayerCount: 2
Fore
SplineSet
581 403 m 0
 519 403 491 307 486 282 c 1
 654 282 l 1
 652 323 636 403 581 403 c 0
146 245 m 0
 146 107 188 33 265 33 c 0
 300 33 373 79 373 205 c 0
 373 376 306 399 258 399 c 0
 195 399 146 338 146 245 c 0
258 445 m 0
 343 445 397 414 427 375 c 1
 463 415 516 445 583 445 c 0
 714 445 769 355 769 236 c 1
 482 236 l 1
 482 229 482 228 482 219 c 0
 482 90 549 42 595 42 c 0
 625 42 681 65 718 105 c 1
 756 76 l 1
 734 46 694 -12 583 -12 c 0
 501 -12 461 21 419 67 c 1
 375 16 321 -12 254 -12 c 0
 121 -12 34 98 34 208 c 0
 34 365 137 445 258 445 c 0
EndSplineSet
EndChar

StartChar: Tbar
Encoding: 358 358 472
Width: 597
GlyphClass: 2
UnlinkRmOvrlpSave: 1
Flags: MW
LayerCount: 2
Fore
SplineSet
124 329 m 1
 124 368 l 1
 471 368 l 1
 471 329 l 1
 124 329 l 1
EndSplineSet
Refer: 269 84 N 1 0 0 1 0 0 2
Position2: "'cpsp' Versalabstaende 1" dx=2 dy=0 dh=5 dv=0
EndChar

StartChar: tbar
Encoding: 359 359 473
Width: 331
GlyphClass: 2
UnlinkRmOvrlpSave: 1
Flags: MW
LayerCount: 2
Fore
SplineSet
20 245 m 1
 20 284 l 1
 273 284 l 1
 273 245 l 1
 20 245 l 1
EndSplineSet
Refer: 300 116 N 1 0 0 1 0 0 2
EndChar

StartChar: Uogonek
Encoding: 370 370 484
Width: 678
GlyphClass: 2
Flags: MW
LayerCount: 2
Fore
SplineSet
545 -145 m 1
 517 -186 482 -207 443 -207 c 0
 387 -207 340 -176 340 -121 c 0
 340 -79.3 370.5 -38.8 408.2 -4.3 c 1
 386.1 -8.1 361.4 -10 334 -10 c 0
 237 -10 84 47 84 237 c 2
 84 569 l 2
 84 601 69 613 30 613 c 2
 16 613 l 2
 11 613 7 616 7 621 c 2
 7 645 l 1
 9 646 l 1
 9 646 106 645 146 645 c 0
 181 645 281 646 281 646 c 1
 283 645 l 1
 283 621 l 2
 283 616 280 613 275 613 c 2
 261 613 l 2
 220 613 207 597 207 569 c 2
 207 270 l 2
 207 204 207 127 253 80 c 1
 282 52 318 31 355 31 c 0
 502 31 521 170 521 278 c 2
 521 569 l 2
 521 601 505 613 466 613 c 2
 452 613 l 2
 447 613 443 616 443 621 c 2
 443 645 l 1
 445 646 l 1
 445 646 518 645 557 645 c 0
 593 645 669 646 669 646 c 1
 671 645 l 1
 671 621 l 2
 671 616 668 613 663 613 c 2
 649 613 l 2
 608 613 594 597 594 569 c 2
 594 295 l 2
 594 180.9 577.9 87.9 508.3 35.7 c 1
 509 35 l 1
 463 -7 412 -49 412 -115 c 0
 412 -141 436 -167 467 -167 c 0
 484 -167 502 -153 523 -129 c 1
 545 -145 l 1
EndSplineSet
Position2: "'cpsp' Versalabstaende 1" dx=2 dy=0 dh=5 dv=0
EndChar

StartChar: uogonek
Encoding: 371 371 485
Width: 550
GlyphClass: 2
Flags: MW
LayerCount: 2
Fore
SplineSet
375 -208 m 0
 322 -208 274 -178 274 -123 c 0
 274 -83.1 305.3 -36 352.6 -2.1 c 1
 355 35 l 1
 308 5 263 -10 226 -10 c 0
 110 -10 87 58 87 128 c 2
 87 352 l 2
 87 382 81.4 398.5 58 400 c 2
 27 402 l 1
 24 404 l 1
 24 434 l 1
 29 436 l 1
 29 436 108 434 140 434 c 0
 154 434 198 436 198 436 c 1
 198 436 197 391 197 354 c 2
 197 142 l 2
 197 58 230 40 251 40 c 0
 273 40 315 45 352 77 c 1
 352 352 l 2
 352 384 342 400 324 400 c 1
 293 402 l 1
 289 404 l 1
 289 434 l 1
 293 436 l 1
 293 436 377 434 404 434 c 0
 425 434 464 436 464 436 c 1
 464 436 462 394.5 462 354 c 2
 462 115 l 2
 462 85 472 62 526 59 c 1
 527 28 l 1
 490.9 23.2 465.4 18.3 446.1 13.2 c 0
 443.4 12.2 440.4 11.1 437 10 c 0
 379 -9 347 -68 347 -110 c 0
 347 -143 365 -165 401 -165 c 0
 430 -165 451 -150 470 -130 c 1
 485 -141 l 1
 461 -188 411 -208 375 -208 c 0
EndSplineSet
EndChar

StartChar: longs
Encoding: 383 383 497
Width: 334
GlyphClass: 2
Flags: MW
LayerCount: 2
Fore
SplineSet
51 434 m 0
 80 434 94 438 94 470 c 0
 94 616 181 698 271 698 c 0
 376 698 410.6 644.3 410.6 626.3 c 0
 410.6 598.7 393.8 574.7 361.4 574.7 c 0
 327.8 574.7 309.8 590.3 295.4 615.5 c 0
 275 650.3 268 656 251 656 c 0
 229 656 203 634 203 485 c 2
 203 77 l 2
 203 48 213 36.7 246 34 c 2
 270 32 l 2
 275 31.5 278 29 278 23 c 2
 278 0 l 1
 276 -2 l 1
 276 -2 186 0 147 0 c 0
 111 0 25 -2 25 -2 c 1
 23 0 l 1
 23 23 l 2
 23 29 26 31.5 31 32 c 2
 50 34 l 2
 84 37.6 93 48 93 77 c 2
 93 379 l 2
 93 391 92 395 78 395 c 2
 34 395 l 2
 29 395 28 396 28 400 c 2
 28 414 l 2
 28 422 34 434 51 434 c 0
EndSplineSet
EndChar

StartChar: uni0186
Encoding: 390 390 498
Width: 645
GlyphClass: 2
Flags: MW
LayerCount: 2
Fore
SplineSet
275 656 m 0
 503 656 612 492 612 331 c 0
 612 134 459 -12 274 -12 c 0
 141 -12 107 32 56 32 c 1
 52 90 44 146 34 201 c 1
 72 209 l 1
 103 114 146 29 274 29 c 0
 371 29 482 114 482 312 c 0
 482 454 415 612 276 612 c 0
 195 612 122 580 45 493 c 1
 15 517 l 1
 83 607 169 656 275 656 c 0
EndSplineSet
EndChar

StartChar: uni0189
Encoding: 393 393 499
Width: 707
GlyphClass: 2
Flags: MW
LayerCount: 2
Fore
SplineSet
221 75 m 2
 221 46 230 40 308 40 c 0
 436 40 549 88 549 284 c 0
 549 435 480 606 283 606 c 0
 247 606 221 603 221 571 c 2
 221 333 l 1
 288 333 l 1
 288 287 l 1
 221 287 l 1
 221 75 l 2
24 0 m 1
 22 2 l 1
 22 24 l 2
 22 30 26 33 30 33 c 2
 44 33 l 2
 84 33 99 45 99 77 c 2
 99 287 l 1
 17 287 l 1
 17 333 l 1
 99 333 l 1
 99 569 l 2
 99 601 84 613 44 613 c 2
 30 613 l 2
 26 613 22 616 22 621 c 2
 22 644 l 1
 24 646 l 1
 320 646 l 2
 523 646 681 494 681 309 c 0
 681 63 487 0 338 0 c 2
 24 0 l 1
EndSplineSet
EndChar

StartChar: uni018E
Encoding: 398 398 500
Width: 594
GlyphClass: 2
Flags: MW
LayerCount: 2
Fore
SplineSet
82 647 m 1
 67 502 l 1
 136 495 l 1
 144 539 171 600 208 600 c 2
 358 600 l 2
 368 600 372 592 372 571 c 2
 372 365 l 1
 259 365 l 2
 243 365 236 383 230 406 c 1
 229 416 226 425 224 435 c 0
 223 441 212 446 195 446 c 2
 173 446 l 2
 155 446 148 442 148 438 c 0
 151 413 156 376 156 344 c 0
 156 309 151 268 149 251 c 1
 154 242 l 1
 195 242 l 2
 216 242 225 248 225 252 c 2
 230 283 l 2
 235 309 242 323 259 323 c 2
 372 323 l 1
 372 75 l 2
 372 52 367 46 358 46 c 2
 176 46 l 2
 127 46 104 101 88 174 c 1
 21 163 l 1
 46 0 l 1
 357 0 l 2
 382 0 408 1 434 1 c 2
 584 -1 l 1
 584 24 l 2
 584 30 579 35 554 35 c 2
 525 35 l 2
 502 35 496 50 496 75 c 2
 496 570 l 2
 496 598 503 611 525 611 c 2
 554 611 l 2
 580 611 584 618 584 622 c 2
 584 647 l 1
 542 647 476 646 434 645 c 1
 357 646 l 1
 82 647 l 1
EndSplineSet
EndChar

StartChar: uni018F
Encoding: 399 399 501
Width: 692
GlyphClass: 2
Flags: MW
LayerCount: 2
Fore
SplineSet
523 213 m 1
 163 213 l 1
 195 90 266 29 350 29 c 0
 439 29 504 118 523 213 c 1
115 503 m 1
 75 545 l 1
 156 620 216 658 336 658 c 0
 564 658 666 485 666 327 c 0
 666 131 547 -12 343 -12 c 0
 137 -12 52 120 40 265 c 1
 533 265 l 1
 534 274 534 287 534 297 c 0
 534 479 442 617 322 617 c 0
 242 617 176 561 115 503 c 1
EndSplineSet
EndChar

StartChar: florin
Encoding: 402 402 502
Width: 475
GlyphClass: 2
Flags: MW
LayerCount: 2
Back
SplineSet
336 698 m 0
 433 698 463 657 463 627 c 0
 463 605 443 586 411 586 c 0
 376.7 586 361.1 595.6 352 613 c 0
 325 660 346 625 345 627 c 0
 340 642 334 661 335 662 c 1
 327 662 312 636 297 538 c 0
 292 503 288 468 284 433 c 1
 388 433 l 1
 382 386 l 1
 278 386 l 1
 277 382 276 377 276 373 c 0
 230 -23 212 -170 73 -170 c 0
 1 -170 -21 -130 -21 -111 c 0
 -21 -94 -2 -74 30 -74 c 0
 61 -74 76 -83 83 -97 c 0
 86 -104 88 -109 88 -110 c 0
 89.9 -116.7 90 -124.4 85.6 -125 c 1
 126.1 -121.8 134 8.60001 143 148 c 0
 146 192 148 237 152 280 c 2
 163 386 l 1
 82 386 l 1
 88 433 l 1
 145 433 l 2
 164 433 173 455 177 482 c 0
 197 631 268 698 336 698 c 0
EndSplineSet
Fore
SplineSet
336 698 m 0
 433 698 463 657 463 627 c 0
 463 605 443 586 411 586 c 0
 376.7 586 361 595.818181818 352 613 c 0
 346.548413153 623.40757489 337.727272727 642.454545455 335 662 c 1
 327 662 312 636 297 538 c 0
 292 503 288 468 284 433 c 1
 388 433 l 1
 382 386 l 1
 278 386 l 1
 277 382 276 377 276 373 c 0
 230 -23 212 -170 73 -170 c 0
 1 -170 -21 -130 -21 -111 c 0
 -21 -94 -2 -74 30 -74 c 0
 61 -74 76 -83 83 -97 c 0
 86 -104 88 -109 88 -110 c 0
 89.9 -116.7 90 -124.4 85.6 -125 c 1
 126.1 -121.8 134 8.60001 143 148 c 0
 146 192 148 237 152 280 c 2
 163 386 l 1
 82 386 l 1
 88 433 l 1
 145 433 l 2
 164 433 173 455 177 482 c 0
 197 631 268 698 336 698 c 0
EndSplineSet
EndChar

StartChar: uni019E
Encoding: 414 414 503
Width: 533
GlyphClass: 2
Flags: MW
LayerCount: 2
Fore
SplineSet
353 -151 m 2
 353 291 l 2
 353 359 345 389 311 389 c 0
 278 389 246 373 196 315 c 1
 201 318 l 1
 201 75 l 2
 201 49 206 35 222 35 c 2
 236 35 l 2
 252 35 266 31 266 23 c 2
 266 8 l 1
 256 -1 l 1
 256 -1 179 1 141 1 c 0
 105 1 24 -1 24 -1 c 1
 15 8 l 1
 15 23 l 2
 15 31 26 35 44 35 c 2
 63 35 l 2
 80 35 83 49 83 75 c 2
 83 321 l 1
 83 378 l 1
 73 378 55 375 22 369 c 1
 16 405 l 1
 63 414 97 419 128 436 c 0
 140 442 150 445 165 445 c 2
 201 445 l 1
 199 393 l 1
 248 436 292 445 341 445 c 0
 447 445 471 375 471 284 c 2
 471 -151 l 2
 471 -176 475 -190 491 -190 c 2
 510 -190 l 2
 526 -190 540 -195 540 -203 c 2
 540 -218 l 1
 530 -228 l 1
 530 -228 449 -225 410 -225 c 0
 375 -225 299 -228 299 -228 c 1
 289 -218 l 1
 289 -203 l 2
 289 -195 300 -190 318 -190 c 2
 333 -190 l 2
 349 -190 353 -176 353 -151 c 2
EndSplineSet
EndChar

StartChar: uni019F
Encoding: 415 415 504
Width: 730
GlyphClass: 2
Flags: MW
LayerCount: 2
Fore
SplineSet
694 329 m 0
 694 129 566 -10 364 -10 c 0
 182 -10 37 113 37 311 c 0
 37 507 173 658 363 658 c 0
 540 658 694 528 694 329 c 0
560.5 353 m 1
 547.6 527.7 455.7 617 351 617 c 0
 269.6 617 176.2 539 168.5 353 c 1
 560.5 353 l 1
562 309 m 1
 168.3 309 l 1
 174.7 132.7 270 31 384 31 c 0
 484.8 31 561.7 135.6 562 309 c 1
EndSplineSet
EndChar

StartChar: Ohorn
Encoding: 416 416 505
Width: 730
GlyphClass: 2
Flags: MW
LayerCount: 2
Fore
SplineSet
351 617 m 0
 266 617 168 532 168 328 c 0
 168 140 266 31 384 31 c 0
 485 31 562 136 562 310 c 0
 562 513 464 617 351 617 c 0
694 329 m 0
 694 129 566 -10 364 -10 c 0
 182 -10 37 113 37 311 c 0
 37 507 173 658 363 658 c 0
 422.6 658 479.5 643.2 528.9 616.1 c 1
 531.2 616 533.6 616 536 616 c 0
 547 616 591 625 591 659 c 0
 591 672 574 682 560 684 c 0
 526 688 513 711 513 731 c 0
 513 755 529 770 559 770 c 0
 597 770 628 727 628 679 c 0
 628 634.1 610 601 567.7 591.1 c 1
 643.7 533.8 694 442.6 694 329 c 0
EndSplineSet
EndChar

StartChar: ohorn
Encoding: 417 417 506
Width: 501
GlyphClass: 2
Flags: MW
LayerCount: 2
Fore
SplineSet
250 403 m 0
 186 403 156 314 156 229 c 0
 156 155 193 33 275 33 c 0
 311 33 364 57 364 184 c 0
 364 327 318 403 250 403 c 0
34 207 m 0
 34 344 115 444 260 444 c 0
 306.7 444 345.2 433.9 376.2 417 c 1
 377 417 l 2
 388 417 430 420 430 454 c 0
 430 467 416 475 402 477 c 0
 368 480 354 502 354 522 c 0
 354 546 371 561 400 561 c 0
 438 561 464 520 464 473 c 0
 464 431.1 444.8 403 411.7 392.1 c 1
 463.2 346.6 485 278.2 485 216 c 0
 485 115 414 -10 259 -10 c 0
 112 -10 34 104 34 207 c 0
EndSplineSet
EndChar

StartChar: uni01A7
Encoding: 423 423 507
Width: 479
GlyphClass: 2
Flags: MW
LayerCount: 2
Fore
SplineSet
97 631 m 1
 93 578 85 528 76 479 c 1
 116 474 l 1
 134 540 167 619 252 619 c 0
 318 619 342 573 342 517 c 0
 342 453 263 403 221 388 c 0
 137 358 38 305 38 184 c 0
 38 51 124 -10 238 -10 c 0
 336 -10 356 5 380 5 c 0
 400 5 409 0 426 0 c 1
 428 51 435 99 445 175 c 1
 405 178 l 1
 385 87 326 31 259 31 c 0
 183 31 145 71 145 145 c 0
 145 203 175 254 236 278 c 0
 308 306 437 368 437 485 c 0
 437 605 337 658 251 658 c 0
 158 658 152 639 97 631 c 1
EndSplineSet
EndChar

StartChar: uni01A8
Encoding: 424 424 508
Width: 395
GlyphClass: 2
Flags: MW
LayerCount: 2
Fore
SplineSet
360 146 m 1
 353 -7 l 1
 326 -2 311 1 309 1 c 0
 306 1 303 0 296 -1 c 0
 271 -8 239 -12 201 -12 c 0
 147 -12 29 18 29 118 c 0
 29 196 102 235 188 267 c 0
 230 283 247 302 247 342 c 0
 247 394 219 408 192 408 c 0
 177 408 131 392 111 309 c 1
 44 313 l 1
 46 349 49 382 55 415 c 1
 94 433 136 445 192 445 c 0
 283 445 351 396 351 327 c 0
 351 255 309 233 228 197 c 0
 160 167 139 140 139 96 c 0
 139 50 177 23 204 23 c 0
 229 23 254 41 264 51 c 0
 284 72 292 123 294 147 c 1
 360 146 l 1
EndSplineSet
EndChar

StartChar: uni01A9
Encoding: 425 425 509
Width: 592
GlyphClass: 2
Flags: MW
LayerCount: 2
Fore
SplineSet
126 48 m 1
 409 48 l 2
 485 48 514 98 534 170 c 1
 577 165 l 1
 565 113 555 56 550 0 c 1
 11 -1 l 1
 9 1 l 1
 9 30 l 1
 11 33 l 1
 39 33 41 35 53 51 c 2
 262 310 l 1
 78 576 l 1
 51 612 26 613 12 613 c 1
 10 615 l 1
 10 645 l 1
 12 646 l 1
 165 645 l 1
 536 646 l 1
 541 592 549 531 557 490 c 1
 516 485 l 1
 494 554 475 598 400 598 c 2
 192 598 l 1
 371 337 l 1
 370 336 l 1
 340 312 l 1
 126 48 l 1
EndSplineSet
EndChar

StartChar: Uhorn
Encoding: 431 431 510
Width: 690
GlyphClass: 2
Flags: MW
LayerCount: 2
Fore
SplineSet
656 613 m 0
 628 613 614 597 614 569 c 2
 614 293 l 2
 614 115 568 -12 362 -12 c 0
 273 -12 89 30 89 234 c 2
 89 569 l 2
 89 600 74 613 35 613 c 2
 8 613 l 2
 4 613 0 616 0 621 c 2
 0 645 l 1
 2 646 l 1
 2 646 109 645 148 645 c 0
 184 645 298 646 298 646 c 1
 300 645 l 1
 300 621 l 2
 300 616 297 613 292 613 c 2
 266 613 l 2
 225 613 211 597 211 569 c 2
 211 267 l 2
 211 202 212 137 265 84 c 0
 294 55 336 34 384 34 c 0
 552 34 547 163 547 275 c 2
 547 569 l 2
 547 600 532 613 493 613 c 2
 466 613 l 2
 462 613 458 616 458 621 c 2
 458 645 l 1
 460 646 l 1
 460 646 541 645 580 645 c 0
 663 645 690 650 690 671 c 0
 690 685 679 690 659 690 c 0
 625 690 612 711 612 731 c 0
 612 755 632 770 662 770 c 0
 700 770 728 733 728 686 c 0
 728 643 700 613 656 613 c 0
EndSplineSet
EndChar

StartChar: uhorn
Encoding: 432 432 511
Width: 531
GlyphClass: 2
Flags: MW
LayerCount: 2
Fore
SplineSet
462 115 m 2
 462 85 472 62 526 59 c 1
 527 28 l 1
 436 16 412 3 386 -12 c 1
 352 -12 l 1
 355 35 l 1
 308 5 263 -10 226 -10 c 0
 110 -10 87 58 87 128 c 2
 87 352 l 2
 87 382 81.4 398.5 58 400 c 2
 27 402 l 1
 24 404 l 1
 24 434 l 1
 29 436 l 1
 29 436 108 434 140 434 c 0
 154 434 198 436 198 436 c 1
 198 436 197 391 197 354 c 2
 197 142 l 2
 197 58 230 40 251 40 c 0
 273 40 315 45 352 77 c 1
 352 352 l 2
 352 384 342 400 324 400 c 1
 293 402 l 1
 289 404 l 1
 289 434 l 1
 293 436 l 1
 293 436 377 434 404 434 c 0
 415.7 434 433.1 434.6 446.1 435.2 c 1
 459.6 440.6 471 450.1 471 458 c 0
 471 469 463 478 444 479 c 0
 409 480 396 502 396 522 c 0
 396 546 413 561 442 561 c 0
 480 561 505 520 505 473 c 0
 505 451 492.9 423.8 463 410.2 c 1
 462.5 394.8 462 374.3 462 354 c 2
 462 115 l 2
EndSplineSet
EndChar

StartChar: uni01B5
Encoding: 437 437 512
Width: 624
GlyphClass: 2
Flags: MW
LayerCount: 2
Fore
SplineSet
572 0 m 1
 39 0 l 2
 25 0 20 5 20 15 c 0
 20 22 22 30 28 38 c 2
 218.5 303 l 1
 105 303 l 1
 105 342 l 1
 246.6 342 l 1
 417 579 l 2
 424 589 433 602 415 602 c 2
 200 602 l 2
 125 602 107 555 85 486 c 1
 46 491 l 1
 54 532 64 604 68 658 c 1
 105 655 102 645 149 645 c 2
 506 645 l 1
 537 648 556 650 569 650 c 0
 588 650 591 647 591 640 c 0
 591 629 587 619 567 591 c 2
 387.6 342 l 1
 528 342 l 1
 528 303 l 1
 359.5 303 l 1
 193 72 l 2
 180 53 178 44 209 44 c 2
 432 44 l 2
 508 44 537 98 557 170 c 1
 598 165 l 1
 587 113 576 56 572 0 c 1
EndSplineSet
EndChar

StartChar: uni01B6
Encoding: 438 438 513
Width: 432
GlyphClass: 2
Flags: MW
LayerCount: 2
Fore
SplineSet
98 446 m 1
 102 435 109 434 115 434 c 2
 319 434 l 2
 343.1 434 367 437 370 437 c 0
 390 437 406 431 406 421 c 0
 406 418 397 402 386 385 c 2
 287.8 234 l 1
 344 234 l 1
 344 200 l 1
 265.7 200 l 1
 163 42 l 1
 279 42 l 2
 323 42 352 83 369 148 c 1
 411 139 l 1
 396 85 389 41 385 0 c 1
 87 0 l 2
 44 0 32 6 32 16 c 0
 32 18 35 25 43 38 c 0
 78.8 91.7 113.7 145.8 148.6 200 c 1
 69 200 l 1
 69 234 l 1
 170.5 234 l 1
 204.4 286.7 238.3 339.4 273 392 c 1
 157 392 l 2
 127 392 103 370 86 296 c 1
 43 302 l 1
 59 368 63 403 65 446 c 1
 98 446 l 1
EndSplineSet
EndChar

StartChar: uni01B7
Encoding: 439 439 514
Width: 632
GlyphClass: 2
Flags: MW
AnchorPoint: "below" 272 -319 basechar 0
LayerCount: 2
Fore
SplineSet
532 646 m 2
 568 646 582 639 582 629 c 0
 582 622 571 603 562 586 c 2
 398 289 l 1
 534 257 596 161 596 54 c 0
 596 -85 476 -208 285 -208 c 0
 198 -208 35 -172 35 -105 c 0
 35 -80 51 -52 101 -52 c 0
 137 -52 172 -67 187 -88 c 0
 216 -129 263 -160 303 -160 c 0
 380 -160 464 -71 464 45 c 0
 464 200 365 252 304 252 c 0
 292 252 282 252 238 243 c 1
 435 600 l 1
 198 600 l 1
 142 599 117 509 113 464 c 1
 57 469 l 1
 79 674 l 1
 116 666 115 662 124 659 c 0
 142 652 160 646 168 646 c 2
 532 646 l 2
EndSplineSet
EndChar

StartChar: uni01B8
Encoding: 440 440 515
Width: 632
GlyphClass: 2
Flags: MW
LayerCount: 2
Fore
SplineSet
454 646 m 2
 462 646 480 652 499 659 c 0
 508 662 520 666 557 674 c 1
 579 469 l 1
 509 464 l 1
 505 509 481 599 424 600 c 1
 201 600 l 1
 264 484 334 358 397 243 c 1
 354 252 344 252 331 252 c 0
 271 252 171 200 171 45 c 0
 171 -46 255 -165 332 -165 c 0
 372 -165 419 -129 449 -88 c 1
 463 -67 499 -52 534 -52 c 0
 584 -52 601 -80 601 -105 c 0
 601 -172 438 -208 351 -208 c 0
 181 -208 40 -85 40 54 c 0
 40 161 102 257 237 289 c 1
 183 388 126 488 73 586 c 0
 64 603 54 621 54 629 c 0
 54 639 67 646 103 646 c 2
 454 646 l 2
EndSplineSet
EndChar

StartChar: uni01B9
Encoding: 441 441 516
Width: 473
GlyphClass: 2
Flags: MW
LayerCount: 2
Fore
SplineSet
328 433 m 2
 327 433 326 435 326 440 c 0
 326 441 326 444 326 446 c 1
 390 458 l 1
 423 298 l 1
 356 287 l 1
 336 373 317 386 298 386 c 2
 180 386 l 1
 230 294 288 190 339 98 c 1
 298 107 270 112 255 112 c 0
 189 112 133 51 133 -31 c 0
 133 -145 206 -190 247 -190 c 0
 274 -190 296 -168 309 -147 c 0
 322 -124 344 -117 378 -117 c 0
 416 -117 429 -134 429 -151 c 0
 429 -186 359 -227 256 -227 c 0
 100 -227 16 -127 16 -30 c 0
 16 69 81 138 195 156 c 1
 153 232 110 310 68 386 c 1
 61 402 56 413 56 416 c 0
 56 428 67 433 101 433 c 2
 328 433 l 2
EndSplineSet
EndChar

StartChar: uni01C0
Encoding: 448 448 517
Width: 206
GlyphClass: 2
Flags: MW
LayerCount: 2
Fore
SplineSet
133 0 m 1
 73 0 l 1
 73 698 l 1
 133 698 l 1
 133 0 l 1
EndSplineSet
EndChar

StartChar: uni01C2
Encoding: 450 450 519
Width: 353
GlyphClass: 2
Flags: MW
LayerCount: 2
Fore
SplineSet
311 328 m 1
 311 289 l 1
 196 289 l 1
 196 0 l 1
 136 0 l 1
 136 289 l 1
 25 289 l 1
 25 328 l 1
 136 328 l 1
 136 391 l 1
 25 391 l 1
 25 430 l 1
 136 430 l 1
 136 698 l 1
 196 698 l 1
 196 430 l 1
 311 430 l 1
 311 391 l 1
 196 391 l 1
 196 328 l 1
 311 328 l 1
EndSplineSet
EndChar

StartChar: uni01D7
Encoding: 471 471 540
Width: 678
GlyphClass: 2
Flags: MW
LayerCount: 2
Fore
SplineSet
423.1 840.8 m 1
 470.8 795.1 l 1
 360 744 l 2
 343.8 736.1 333.8 733.5 326.9 733.5 c 0
 320 733.5 316.1 737.9 316.1 746.7 c 0
 316.1 752.9 317.6 757.3 327.6 765.2 c 2
 423.1 840.8 l 1
EndSplineSet
Refer: 371 -1 N 1 0 0 1 0 0 2
EndChar

StartChar: uni01D8
Encoding: 472 472 541
Width: 550
GlyphClass: 2
Flags: MW
LayerCount: 2
Fore
SplineSet
323 749.9 m 1
 325.4 750.8 331.8 751.7 335.8 751.7 c 0
 359.8 751.7 375 739.1 381.4 730.1 c 1
 389.4 709.4 l 1
 293.4 612.2 l 2
 282.2 601.4 271 597.8 263 597.8 c 0
 256.6 597.8 250.2 605 250.2 610.4 c 0
 250.2 615.8 251.8 623.9 256.6 632 c 2
 323 749.9 l 1
EndSplineSet
Refer: 394 252 N 1 0 0 1 0 0 2
EndChar

StartChar: uni01D9
Encoding: 473 473 542
Width: 678
GlyphClass: 2
Flags: MW
LayerCount: 2
Fore
SplineSet
322.2 737.1 m 1
 299.1 769.7 272.1 796.1 244.4 820.7 c 1
 256.7 838.3 l 1
 286.7 823.3 312.9 806.6 338.3 784.6 c 1
 366.8 807.5 391.4 824.2 420.7 838.3 c 1
 432.3 820.7 l 1
 403 795.2 378.4 767 355.3 737.1 c 1
 322.2 737.1 l 1
EndSplineSet
Refer: 371 -1 N 1 0 0 1 0 0 2
EndChar

StartChar: uni01DA
Encoding: 474 474 543
Width: 550
GlyphClass: 2
Flags: MW
LayerCount: 2
Fore
SplineSet
280.8 640.6 m 1
 240.8 640.6 l 1
 217.6 682 187.2 720.7 159.2 756.7 c 1
 178.4 772.9 l 1
 209.6 748.6 230.4 731.5 260 697.3 c 1
 287.2 729.7 311.2 748.6 342.4 772.9 c 1
 361.6 756.7 l 1
 332.8 720.7 304 682.9 280.8 640.6 c 1
EndSplineSet
Refer: 394 252 N 1 0 0 1 0 0 2
EndChar

StartChar: uni01DB
Encoding: 475 475 544
Width: 678
GlyphClass: 2
Flags: MW
LayerCount: 2
Fore
SplineSet
249.9 844.1 m 1
 343.1 770.2 l 2
 351.6 763.2 354.6 757.9 354.6 751.7 c 0
 354.6 742.9 350.8 738.5 343.1 738.5 c 0
 336.9 738.5 326.9 741.1 310 749 c 2
 191.4 804.5 l 1
 249.9 844.1 l 1
EndSplineSet
Refer: 371 -1 N 1 0 0 1 0 0 2
EndChar

StartChar: uni01DC
Encoding: 476 476 545
Width: 550
GlyphClass: 2
Flags: MW
LayerCount: 2
Fore
SplineSet
221.2 762.9 m 1
 276.4 651.3 l 2
 279.6 645 283.6 635.1 283.6 627.9 c 0
 283.6 619.8 277.2 613.5 270 613.5 c 0
 263.6 613.5 255.6 618 242 631.5 c 2
 145.2 726 l 1
 146.8 735.9 l 1
 153.2 744 176.4 764.7 205.2 764.7 c 0
 209.2 764.7 218 763.8 221.2 762.9 c 1
EndSplineSet
Refer: 394 252 N 1 0 0 1 0 0 2
EndChar

StartChar: uni01DD
Encoding: 477 477 546
Width: 461
GlyphClass: 2
Flags: MW
LayerCount: 2
Fore
SplineSet
307 148 m 1
 147 148 l 1
 145 146 145 143 145 137 c 0
 145 57 186 31 213 31 c 0
 234 31 293 46 307 148 c 1
64 324 m 1
 39 345 l 1
 76 420 146 443 215 443 c 0
 367 443 427 345 427 235 c 0
 427 82 317 -11 212 -11 c 0
 65 -11 30 82 30 167 c 0
 30 181 45 188 69 188 c 2
 312 188 l 1
 312 193 312 207 312 214 c 0
 312 312 254 387 176 387 c 0
 138 387 101 369 64 324 c 1
EndSplineSet
EndChar

StartChar: uni01E0
Encoding: 480 480 549
Width: 699
GlyphClass: 2
Flags: MW
LayerCount: 2
Fore
SplineSet
441 777 m 1
 525 777 l 2
 535 777 539 769 539 762 c 0
 539 750 528 733 516 733 c 2
 433 733 l 1
 441 777 l 1
274 733 m 1
 189 733 l 2
 180 733 177 741 177 748 c 0
 177 759 187 777 199 777 c 2
 283 777 l 1
 274 733 l 1
EndSplineSet
Refer: 613 550 N 1 0 0 1 0 0 2
EndChar

StartChar: uni01E4
Encoding: 484 484 553
Width: 727
GlyphClass: 2
Flags: MW
LayerCount: 2
Fore
SplineSet
532 203 m 1
 532 229 l 2
 532 260 500 272 460 272 c 2
 446 272 l 2
 442 272 438 275 438 281 c 2
 438 304 l 1
 440 306 l 1
 440 306 537 304 576 304 c 0
 612 304 706 306 706 306 c 1
 708 304 l 1
 708 281 l 2
 708 275 705 272 700 272 c 2
 694 272 l 2
 653 272 649 256 649 229 c 2
 649 203 l 1
 705 203 l 1
 705 164 l 1
 649 164 l 1
 649 114 l 2
 649 99 653 92 661 85 c 1
 591 26 512 -10 386 -10 c 0
 173 -10 29 134 29 308 c 0
 29 528 205 658 383 658 c 0
 518 658 551 614 602 614 c 1
 605 556 614 500 624 445 c 1
 585 437 l 1
 557 531 509 617 382 617 c 0
 261 617 159 498 159 327 c 0
 159 176 243 34 404 34 c 0
 447 34 498 46 532 74 c 1
 532 164 l 1
 398 164 l 1
 398 203 l 1
 532 203 l 1
EndSplineSet
EndChar

StartChar: uni01E5
Encoding: 485 485 554
Width: 508
GlyphClass: 2
Flags: MW
LayerCount: 2
Fore
SplineSet
312 284 m 0
 312 363 280 409 233 409 c 0
 194 409 164 375 164 301 c 0
 164 250 184 172 246 172 c 0
 272 172 312 188 312 284 c 0
183 -15 m 0
 171 -15 160 -15 150 -11 c 1
 130.2 -31.7 128.2 -58.6 128 -90 c 1
 401.5 -90 l 1
 401.8 -87.1 402 -84.1 402 -81 c 0
 402 -15 301 -12 256 -12 c 0
 247 -12 238 -13 225 -14 c 0
 210 -15 194 -15 183 -15 c 0
447 383 m 0
 422 383 414 399 410 412 c 1
 407 418 404 424 395 424 c 0
 385 424 374 416 366 406 c 1
 400 378 420 343 420 287 c 0
 420 189 335 135 241 135 c 0
 210 135 178.5 140 157.5 150 c 1
 152.5 138 151 117 151 101 c 0
 151 61 178 49 196 49 c 0
 205 49 252 56 290 56 c 0
 453 56 493 -17 493 -55 c 0
 493 -67.1 491.2 -78.8 487.7 -90 c 1
 517 -90 l 1
 517 -127 l 1
 469.4 -127 l 1
 421.6 -195.7 308.8 -238 203 -238 c 0
 124.5 -238 41.4 -207.7 34.5 -127 c 1
 -1 -127 l 1
 -1 -90 l 1
 38.1 -90 l 1
 47.8 -58.6 74.4 -26.4 115 1 c 1
 87 18 67 42 67 74 c 0
 67 105 89 138.5 119 166.5 c 1
 82 192 58 243 58 292 c 0
 58 385 146 444 242 444 c 0
 287 444 318 435 336 425 c 1
 365 451 410 467 437 467 c 0
 475 467 491 442 491 423 c 0
 491 399 475 383 447 383 c 0
388.3 -127 m 1
 133.3 -127 l 1
 150.9 -175.6 207.5 -196 231 -196 c 0
 288.8 -196 359.1 -172.2 388.3 -127 c 1
EndSplineSet
EndChar

StartChar: uni01EA
Encoding: 490 490 559
Width: 730
GlyphClass: 2
Flags: MW
LayerCount: 2
Fore
SplineSet
557 -142 m 1
 528 -187 492 -209 451 -209 c 0
 397 -209 355 -180 355 -125 c 0
 355 -82.7 384.3 -40.7 422 -6 c 1
 403.4 -8.7 384.1 -10 364 -10 c 0
 182 -10 37 113 37 311 c 0
 37 507 173 658 363 658 c 0
 540 658 694 528 694 329 c 0
 694 173.3 616.3 54.5 486.6 9.6 c 1
 442.7 -27.1 414 -65 414 -119 c 0
 414 -145 438 -171 474 -171 c 0
 504 -171 520 -157 542 -135 c 1
 557 -142 l 1
351 617 m 0
 266 617 168 532 168 328 c 0
 168 140 266 31 384 31 c 0
 485 31 562 136 562 310 c 0
 562 513 464 617 351 617 c 0
EndSplineSet
EndChar

StartChar: uni01EB
Encoding: 491 491 560
Width: 519
GlyphClass: 2
Flags: MW
LayerCount: 2
Fore
SplineSet
407 -147 m 1
 379 -188 344 -209 305 -209 c 0
 249 -209 202 -178 202 -123 c 0
 202 -82.8 230.4 -43.6 266.3 -9.9 c 1
 263.9 -10 261.4 -10 259 -10 c 0
 112 -10 34 104 34 207 c 0
 34 344 115 444 260 444 c 0
 423 444 485 321 485 216 c 0
 485 134 438.2 36.2 337.6 2.3 c 1
 303.3 -30.6 274 -66.9 274 -117 c 0
 274 -143 298 -169 329 -169 c 0
 346 -169 364 -155 385 -131 c 1
 407 -147 l 1
250 403 m 0
 186 403 156 314 156 229 c 0
 156 155 193 33 275 33 c 0
 311 33 364 57 364 184 c 0
 364 327 318 403 250 403 c 0
EndSplineSet
EndChar

StartChar: uni01F6
Encoding: 502 502 571
Width: 924
GlyphClass: 2
Flags: MW
LayerCount: 2
Fore
SplineSet
503 135 m 2
 503 321 l 1
 224 321 l 1
 224 75 l 2
 224 47 233 35 256 35 c 2
 282 35 l 2
 298 35 312 31 312 23 c 2
 312 8 l 1
 302 -1 l 1
 302 -1 203 1 164 1 c 0
 128 1 22 -1 22 -1 c 1
 13 8 l 1
 13 23 l 2
 13 31 24 35 42 35 c 2
 68 35 l 2
 92 35 101 50 101 75 c 2
 101 571 l 2
 101 599 91 611 68 611 c 2
 42 611 l 2
 26 611 12 615 12 623 c 2
 12 638 l 1
 22 647 l 1
 22 647 122 645 161 645 c 0
 196 645 302 647 302 647 c 1
 312 638 l 1
 312 623 l 2
 312 615 300 611 282 611 c 2
 256 611 l 2
 232 611 224 596 224 571 c 2
 224 367 l 1
 503 367 l 1
 503 571 l 2
 503 599 494 611 471 611 c 2
 445 611 l 2
 429 611 415 615 415 623 c 2
 415 638 l 1
 425 647 l 1
 425 647 524 645 563 645 c 0
 599 645 705 647 705 647 c 1
 714 638 l 1
 714 623 l 2
 714 615 703 611 685 611 c 2
 659 611 l 2
 635 611 626 596 626 571 c 2
 626 132 l 2
 626 70 655 42 689 42 c 0
 751 42 802 144 802 238 c 0
 802 329 780 359 760 364 c 1
 743 366 701 373 701 405 c 0
 701 424 722 445 763 445 c 0
 847 445 882 372 882 250 c 0
 882 66 778 -12 689 -12 c 0
 573 -12 503 42 503 135 c 2
EndSplineSet
EndChar

StartChar: uni01F7
Encoding: 503 503 572
Width: 564
GlyphClass: 2
Flags: MW
LayerCount: 2
Fore
SplineSet
334 603 m 0
 301 603 262 572 188 500 c 1
 195 503 l 1
 195 103 l 1
 303 196 403 294 403 416 c 0
 403 538 385 603 334 603 c 0
198 658 m 1
 196 583 l 1
 244 624 296 658 356 658 c 0
 492 658 535 566 535 456 c 0
 535 301 365 159 186 21 c 1
 195 24 l 1
 195 -183 l 1
 19 -229 l 1
 7 -190 l 2
 6 -189 13 -187 28 -182 c 0
 34 -180 41 -178 47 -176 c 0
 65 -170 72 -154 72 -121 c 2
 72 536 l 2
 72 575 69 595 65 599 c 1
 54 598 46 596 35 595 c 0
 20 593 5 597 5 604 c 0
 4 612 3 625 3 633 c 1
 29 633 72 638 89 642 c 0
 104 645 122 648 145 658 c 1
 198 658 l 1
EndSplineSet
EndChar

StartChar: Aringacute
Encoding: 506 506 575
Width: 699
GlyphClass: 2
Flags: MW
LayerCount: 2
Fore
SplineSet
358 766 m 0
 330 766 309 742 309 714 c 0
 309 688 329 663 358 663 c 0
 387 663 407 688 407 714 c 0
 407 743 385 766 358 766 c 0
273 714 m 0
 273 760 311 797 358 797 c 0
 390.7 797 421.3 778 435.6 749.6 c 1
 553 831 l 1
 615 779 l 1
 471 721 l 2
 460 716.3 451.2 713.3 444 711.4 c 1
 442.9 679.4 422.2 651.4 393.2 638.5 c 1
 395.5 635.1 397.4 631.3 399 627 c 2
 601 91 l 2
 615 54 629 33 654 33 c 2
 682 33 l 2
 697 33 697 31 697 23 c 2
 697 3 l 1
 692 -1 l 1
 692 -1 596 1 558 1 c 0
 522 1 414 -1 414 -1 c 1
 406 4 l 1
 406 23 l 2
 406 31 414 33 432 33 c 2
 459 33 l 2
 476 33 484 44 484 59 c 0
 484 64 484 70 482 73 c 2
 420 241 l 1
 236 241 l 2
 216 241 211 240 205 227 c 2
 148 79 l 2
 137 50 136 33 195 33 c 0
 211 33 216 31 216 23 c 2
 216 3 l 1
 211 -1 l 1
 211 -1 119 1 95 1 c 0
 70 1 10 -1 10 -1 c 1
 2 2 l 1
 2 23 l 2
 2 33 10 33 22 33 c 0
 42 33 72 50 89 91 c 2
 312 627 l 2
 314.1 632.1 316.8 636.4 319.7 640.1 c 1
 292.3 653.8 273 681.7 273 714 c 0
253 288 m 2
 403 288 l 1
 320 514 l 1
 234 300 l 1
 234 291 235 288 253 288 c 2
EndSplineSet
EndChar

StartChar: aringacute
Encoding: 507 507 576
Width: 476
GlyphClass: 2
Flags: MW
LayerCount: 2
Fore
SplineSet
240 832.9 m 1
 242.4 833.8 248.8 834.7 252.8 834.7 c 0
 276.8 834.7 292 822.1 298.4 813.1 c 1
 306.4 792.4 l 1
 210.4 695.2 l 2
 199.2 684.4 188 680.8 180 680.8 c 0
 173.6 680.8 167.2 688 167.2 693.4 c 0
 167.2 698.8 168.8 706.9 173.6 715 c 2
 240 832.9 l 1
EndSplineSet
Refer: 380 229 N 1 0 0 1 0 0 2
EndChar

StartChar: Oslashacute
Encoding: 510 510 579
Width: 730
GlyphClass: 2
Flags: MW
LayerCount: 2
Fore
SplineSet
88 -45 m 1
 52 -14 l 1
 128.4 80 l 1
 71.7 135.3 37 214.2 37 311 c 0
 37 507 173 658 363 658 c 0
 432.3 658 498.2 638 552.6 601.8 c 1
 608 670 l 1
 645 641 l 1
 589.7 572.9 l 1
 653.3 515.4 694 431.3 694 329 c 0
 694 129 566 -10 364 -10 c 0
 288.8 -10 219.9 11 164.9 49.7 c 1
 88 -45 l 1
351 617 m 0
 266 617 168 532 168 328 c 0
 168 264.7 179.1 210.4 198.4 166.1 c 1
 500.4 537.6 l 1
 461.6 590.3 408.2 617 351 617 c 0
526 494.4 m 1
 222.9 121.2 l 1
 262.7 62.6 320.4 31 384 31 c 0
 485 31 562 136 562 310 c 0
 562 385.1 548.6 446.7 526 494.4 c 1
EndSplineSet
Refer: 1681 857 N 1 0 0 1 549 127 2
EndChar

StartChar: uni020B
Encoding: 523 523 592
Width: 286
GlyphClass: 2
Flags: MW
LayerCount: 2
Fore
SplineSet
229.3 493 m 1
 227.5 547 188.8 587 132.1 587 c 0
 89.8 587 38.5 557 35.8 493 c 1
 7 508 l 1
 16 613 86.2 651 132.1 651 c 0
 205 651 252.7 589 259 508 c 1
 229.3 493 l 1
EndSplineSet
Refer: 419 305 N 1 0 0 1 0 0 2
EndChar

StartChar: uni0222
Encoding: 546 546 611
Width: 578
GlyphClass: 2
Flags: MW
LayerCount: 2
Fore
SplineSet
391 530 m 0
 391 596 341 648 282 657 c 1
 282 625 l 1
 223 625 178 568 178 517 c 0
 178 462 241 421 304 391 c 1
 364 432 391 458 391 530 c 0
153 153 m 0
 153 53 246 29 283 29 c 0
 396 29 413 98 413 146 c 0
 413 230 338 270 264 304 c 1
 216 271 153 222 153 153 c 0
55 497 m 0
 55 587.2 147.3 652.7 265 658 c 1
 265 691 l 1
 462 691 507 588 507 534 c 0
 507 435 396 376 357 360 c 1
 431 327 537 274 537 171 c 0
 537 86 468 -12 278 -12 c 0
 169 -12 41 26 41 156 c 0
 41 252 155 314 207 333 c 1
 129 373 55 421 55 497 c 0
EndSplineSet
EndChar

StartChar: uni0223
Encoding: 547 547 612
Width: 493
GlyphClass: 2
Flags: MW
LayerCount: 2
Fore
SplineSet
245 22 m 0
 328 22 349 82 349 143 c 0
 349 208 298 252 228 305 c 1
 220 297 209 286 201 279 c 1
 202 279 l 1
 161 238 140 197 140 156 c 0
 140 80 182 22 245 22 c 0
326 528 m 0
 326 541 324 589 289 623 c 1
 312 661 l 1
 360 641 428 599 428 528 c 0
 428 442 343 385 311 368 c 1
 377 323 460 264 460 177 c 0
 460 59 378 -12 243 -12 c 0
 64 -12 33 99 33 147 c 0
 33 223 110 304 179 338 c 1
 174 342 170 346 165 350 c 0
 112 393 51 441 51 515 c 0
 51 591 125 637 171 658 c 1
 200 622 l 1
 163 592 161 552 161 536 c 0
 161 482 265 400 265 400 c 1
 284 418 326 464 326 528 c 0
EndSplineSet
EndChar

StartChar: uni0228
Encoding: 552 552 615
Width: 562
GlyphClass: 2
Flags: MW
LayerCount: 2
Fore
SplineSet
256 -83 m 0
 237 -83 227 -84 211 -89 c 1
 205 -83 l 1
 250.2 0 l 1
 27 0 l 1
 24 2 l 1
 24 24 l 2
 24 30 28 33 32 33 c 2
 46 33 l 2
 86 33 101 45 101 77 c 2
 101 569 l 2
 101 601 86 613 46 613 c 2
 32 613 l 2
 28 613 24 616 24 621 c 2
 24 644 l 1
 27 646 l 1
 493 646 l 1
 497 588 504 535 514 484 c 1
 474 475 l 1
 460 526 435 600 368 600 c 2
 238 600 l 2
 229 600 224 592 224 571 c 2
 224 365 l 1
 337 365 l 2
 362 365 366 396 372 436 c 0
 372 440 378 447 388 447 c 2
 409 447 l 1
 415 437 l 1
 413 421 408 381 408 344 c 0
 408 308 413 268 415 251 c 1
 409 242 l 1
 388 242 l 2
 378 242 372 248 372 252 c 0
 366 293 362 323 337 323 c 2
 224 323 l 1
 224 75 l 2
 224 52 229 46 238 46 c 2
 391 46 l 2
 446 46 482 105 499 179 c 1
 542 169 l 1
 532 116 522 54 515 0 c 1
 285.3 0 l 1
 266.4 -50 l 1
 274.4 -48 289.4 -48 298.4 -48 c 0
 338.4 -48 371 -68 371 -106 c 0
 371 -159 311.4 -188.5 250.4 -188.5 c 0
 218.4 -188.5 203.4 -182.5 178.4 -171.5 c 1
 190 -145 l 1
 217 -155 228 -159 248 -159 c 0
 278 -159 298 -145 298 -118 c 0
 298 -99 274.9 -83 256 -83 c 0
EndSplineSet
EndChar

StartChar: uni0229
Encoding: 553 553 616
Width: 461
GlyphClass: 2
Flags: MW
LayerCount: 2
Fore
SplineSet
210 -88 m 0
 191 -88 181 -89 165 -94 c 1
 159 -88 l 1
 203 -7.1 l 1
 82.5 9.8 34 99 34 198 c 0
 34 351 144 444 249 444 c 0
 396 444 431 351 431 266 c 0
 431 252 416 245 392 245 c 2
 149 245 l 1
 149 240 149 226 149 219 c 0
 149 121 207 46 285 46 c 0
 323 46 360 64 397 109 c 1
 422 88 l 1
 385 13 315 -10 246 -10 c 0
 243.1 -10 240.3 -10 237.5 -9.9 c 1
 220.4 -55 l 1
 228.4 -53 243.4 -53 252.4 -53 c 0
 292.4 -53 325 -73 325 -111 c 0
 325 -164 265.4 -193.5 204.4 -193.5 c 0
 172.4 -193.5 157.4 -187.5 132.4 -176.5 c 1
 144 -150 l 1
 171 -160 182 -164 202 -164 c 0
 232 -164 252 -150 252 -123 c 0
 252 -104 228.9 -88 210 -88 c 0
154 285 m 1
 314 285 l 1
 316 287 316 290 316 296 c 0
 316 376 275 402 248 402 c 0
 227 402 168 387 154 285 c 1
EndSplineSet
EndChar

StartChar: uni022A
Encoding: 554 554 617
Width: 730
GlyphClass: 2
Flags: MW
LayerCount: 2
Fore
SplineSet
471.8 730 m 2
 238.9 730 l 2
 229.5 730 226.2 739 226.2 748 c 0
 226.2 760 236.3 780 247.4 780 c 2
 482 780 l 2
 490.5 780 493.9 771 493.9 763 c 0
 493.9 750 483.7 730 471.8 730 c 2
EndSplineSet
Refer: 365 -1 N 1 0 0 1 0 0 2
EndChar

StartChar: uni022C
Encoding: 556 556 619
Width: 730
GlyphClass: 2
Flags: MW
LayerCount: 2
Fore
SplineSet
516 776 m 1
 577 776 l 2
 587 776 590 768 590 761 c 0
 590 750 580 732 567 732 c 2
 507 732 l 1
 516 776 l 1
186 732 m 1
 124 732 l 2
 115 732 111 740 111 747 c 0
 111 758 121 776 133 776 c 2
 194 776 l 1
 186 732 l 1
413.4 746.2 m 0
 432.1 746.2 443.1 756.1 455 810 c 1
 478.8 799 l 1
 467.8 724.2 442.3 680.2 401.5 680.2 c 0
 382 680.2 363.2 696.7 346.2 713.2 c 1
 329.2 727.5 312.3 741.8 297 741.8 c 0
 274 741.8 264.7 725.3 255.3 683.5 c 1
 233.2 692.3 l 1
 245.1 767.1 265.6 808.9 303.8 808.9 c 0
 330.1 808.9 349.7 791.3 366.7 773.7 c 0
 382 758.3 396.4 746.2 413.4 746.2 c 0
EndSplineSet
Refer: 264 79 N 1 0 0 1 0 0 2
EndChar

StartChar: uni0230
Encoding: 560 560 623
Width: 730
GlyphClass: 2
Flags: MW
LayerCount: 2
Fore
SplineSet
436 771 m 1
 518 771 l 2
 527 771 531 763 531 756 c 0
 531 745 521 728 508 728 c 2
 427 728 l 1
 436 771 l 1
240 728 m 1
 155 728 l 2
 146 728 143 735 143 742 c 0
 143 753 153 771 165 771 c 2
 249 771 l 1
 240 728 l 1
EndSplineSet
Refer: 621 558 N 1 0 0 1 0 0 2
EndChar

StartChar: uni0250
Encoding: 592 592 627
Width: 456
GlyphClass: 2
Flags: MW
AnchorPoint: "below" 228 -114 basechar 0
LayerCount: 2
Fore
SplineSet
181 382 m 1
 219.5 415.5 264 440 306 440 c 0
 393 440 426 404 426 335 c 0
 426 256 355.1 224.1 252 194 c 2
 180 173 l 1
 180 46 208 24 250 24 c 0
 288 24 321 37 321 59 c 0
 321 79 315 90 315 102 c 0
 315 116 339 140 367 140 c 0
 403 140 414 124 414 98 c 0
 414 38 309 -14 236 -14 c 0
 154 -14 72 15 72 159 c 2
 72 304 l 2
 72 350 71 388 32 388 c 0
 7.8 388 6.8 372 1 372 c 0
 -3 372 -12 385 -12 392 c 0
 -12 397 26 440 81 440 c 0
 141 440 167 420.5 179 382 c 1
 181 382 l 1
180 345 m 1
 180 211 l 1
 237 228 l 2
 307.3 249 321 279 321 320 c 0
 321 355 306 385 258 385 c 0
 240 385 205 365 180 345 c 1
EndSplineSet
Comment: "Anfang{IPA Extensions}"
Colour: ff0000
EndChar

StartChar: uni0251
Encoding: 593 593 628
Width: 532
GlyphClass: 2
Flags: MW
LayerCount: 2
Fore
SplineSet
264 38 m 0
 288 38 318 62 336 81 c 1
 331 78 l 1
 331 345 l 1
 333 343 l 1
 322 363 295 403 248 403 c 0
 208 403 147 363 147 232 c 0
 147 97 208 38 264 38 c 0
417 -12 m 0
 380 -12 355 3 342 21 c 1
 317 5 278 -12 231 -12 c 0
 132 -12 27 82 27 211 c 0
 27 372 154 445 253 445 c 0
 293 445 328 435 353 421 c 1
 367 429 381 437 395 445 c 1
 448 445 l 1
 448 125 l 2
 448 67 448 43 450 43 c 0
 458 43 459 79 459 103 c 1
 525 103 l 1
 525 12 484 -12 417 -12 c 0
EndSplineSet
Colour: ff0000
EndChar

StartChar: uni0252
Encoding: 594 594 629
Width: 532
GlyphClass: 2
Flags: MW
LayerCount: 2
Fore
SplineSet
264 395 m 0
 240 395 209 371 191 352 c 1
 197 355 l 1
 197 87 l 1
 194 89 l 1
 205 69 232 30 279 30 c 0
 319 30 380 69 380 200 c 0
 380 336 319 395 264 395 c 0
110 445 m 0
 147 445 172 429 185 411 c 1
 209 427 249 445 296 445 c 0
 395 445 500 351 500 222 c 0
 500 61 373 -12 274 -12 c 0
 234 -12 199 -3 174 11 c 1
 160 3 146 -5 133 -12 c 1
 80 -12 l 1
 80 308 l 2
 80 365 80 389 77 389 c 0
 70 389 68 354 68 330 c 1
 2 330 l 1
 2 420 43 445 110 445 c 0
EndSplineSet
Colour: ff0000
EndChar

StartChar: uni0254
Encoding: 596 596 630
Width: 435
GlyphClass: 2
Flags: MW
AnchorPoint: "below" 184 -114 basechar 0
LayerCount: 2
Fore
SplineSet
17 343 m 1
 47 404 103 440 174 440 c 0
 316 440 386 359 386 229 c 0
 386 86 288 -14 170 -14 c 0
 61 -14 12 36 12 90 c 0
 12 121 30 146 62 146 c 0
 94 146 116 126 119 99 c 0
 122 67 136 28 174 28 c 0
 227 28 272 93 272 204 c 0
 272 312 214 389 148 389 c 0
 111 389 80 372 37 324 c 1
 17 343 l 1
EndSplineSet
Colour: ff0000
EndChar

StartChar: uni0258
Encoding: 600 600 631
Width: 452
GlyphClass: 2
Flags: MW
LayerCount: 2
Fore
SplineSet
155 291 m 0
 155 285 153 282 149 282 c 2
 306 282 l 1
 290 395 233 403 216 403 c 0
 189 403 155 380 155 291 c 0
54 99 m 1
 84 99 l 1
 118 62 148 44 191 44 c 0
 252 44 312 121 312 219 c 0
 312 226 312 230 311 235 c 1
 72 235 l 2
 48 235 33 242 33 256 c 0
 33 341 68 445 215 445 c 0
 320 445 430 354 430 201 c 0
 430 91 367 -12 215 -12 c 0
 133 -12 69 25 30 79 c 1
 54 99 l 1
EndSplineSet
Colour: ff0000
EndChar

StartChar: uni025B
Encoding: 603 603 633
Width: 426
GlyphClass: 2
Flags: MW
LayerCount: 2
Fore
SplineSet
157 121 m 0
 157 70 187 29 232 29 c 0
 268 29 312 53 361 87 c 1
 389 52 l 1
 354 19 294 -12 222 -12 c 0
 67 -12 36 66 36 118 c 0
 36 141 38 194 133 229 c 1
 81 250 56 276 56 322 c 0
 56 363 94 445 229 445 c 0
 317 445 383 408 383 370 c 0
 383 338 347 330 327 330 c 0
 289 330 276 346 267 364 c 1
 255 384 242 408 223 408 c 0
 200 408 169 386 169 325 c 0
 169 259 194 243 225 243 c 1
 225 243 228 244 233 244 c 0
 246 246 270 248 276 248 c 0
 308 248 326 241 326 227 c 0
 326 212 313 202 275 202 c 0
 269 202 257 204 248 205 c 0
 237 207 226 208 224 208 c 0
 183 208 157 175 157 121 c 0
EndSplineSet
Colour: ff0000
EndChar

StartChar: uni025C
Encoding: 604 604 634
Width: 426
GlyphClass: 2
Flags: MW
LayerCount: 2
Fore
SplineSet
271 121 m 0
 271 175 245 208 204 208 c 0
 202 208 191 207 180 205 c 0
 170 204 159 202 153 202 c 0
 114 202 102 212 102 227 c 0
 102 241 120 248 152 248 c 0
 158 248 182 246 195 244 c 0
 200 244 203 243 203 243 c 1
 233 243 259 259 259 325 c 0
 259 386 228 408 205 408 c 0
 186 408 172 384 161 364 c 0
 151 346 139 330 101 330 c 0
 81 330 44 338 44 370 c 0
 44 408 110 445 199 445 c 0
 333 445 372 363 372 322 c 0
 372 276 347 250 294 229 c 1
 390 194 392 141 392 118 c 0
 392 66 360 -12 206 -12 c 0
 133 -12 74 19 39 52 c 1
 66 87 l 1
 116 53 160 29 196 29 c 0
 241 29 271 70 271 121 c 0
EndSplineSet
Colour: ff0000
EndChar

StartChar: uni0265
Encoding: 613 613 635
Width: 554
GlyphClass: 2
Flags: MW
LayerCount: 2
Fore
SplineSet
199 155 m 2
 199 94 205 43 245 43 c 0
 277 43 311 60 356 117 c 1
 351 115 l 1
 351 358 l 2
 351 385 350 397 335 397 c 2
 317 397 l 2
 301 397 287 402 287 410 c 2
 287 434 l 1
 287 434 373 433 412 433 c 0
 447 433 532 434 532 434 c 1
 532 410 l 2
 532 402 521 397 503 397 c 2
 484 397 l 2
 469 397 469 380 469 358 c 2
 469 -101 l 1
 469 -164 l 1
 483 -164 529 -153 537 -152 c 1
 537 -192 l 1
 475 -203 447 -208 405 -231 c 1
 351 -231 l 1
 351 37 l 1
 309 4 255 -12 209 -12 c 0
 101 -12 82 62 82 148 c 2
 82 358 l 2
 82 385 81 397 66 397 c 2
 47 397 l 2
 32 397 18 402 18 410 c 2
 18 434 l 1
 18 434 104 433 142 433 c 0
 177 433 263 434 263 434 c 1
 263 410 l 2
 263 402 252 397 233 397 c 2
 215 397 l 2
 199 397 199 380 199 358 c 2
 199 155 l 2
EndSplineSet
Colour: ff0000
EndChar

StartChar: uni026A
Encoding: 618 618 636
Width: 303
GlyphClass: 2
Flags: MW
AnchorPoint: "above" 146 645 basechar 0
AnchorPoint: "top_punkt" 153 550 basechar 0
AnchorPoint: "below" 156 -114 basechar 0
LayerCount: 2
Fore
SplineSet
97 358 m 2
 97 386 87 402 54 402 c 2
 35 402 l 2
 30 402 27 405 27 410 c 2
 27 434 l 1
 29 436 l 1
 29 436 114 434 150 434 c 0
 189 434 275 436 275 436 c 1
 277 434 l 1
 277 410 l 2
 277 405 273 402 269 402 c 2
 250 402 l 2
 217 402 207 386 207 358 c 2
 207 77 l 2
 207 48 217 33 250 33 c 2
 269 33 l 2
 273 33 277 30 277 24 c 2
 277 1 l 1
 275 -1 l 1
 275 -1 189 1 150 1 c 0
 114 1 29 -1 29 -1 c 1
 27 1 l 1
 27 24 l 2
 27 30 30 33 35 33 c 2
 54 33 l 2
 87 33 97 48 97 77 c 2
 97 358 l 2
EndSplineSet
Colour: ff0000
EndChar

StartChar: uni026F
Encoding: 623 623 637
Width: 801
GlyphClass: 2
Flags: MW
AnchorPoint: "above" 377 645 basechar 0
AnchorPoint: "top_punkt" 378 550 basechar 0
AnchorPoint: "below" 380 -114 basechar 0
LayerCount: 2
Fore
SplineSet
557 49 m 1
 555 49 l 1
 520 18 470 -14 415 -14 c 0
 362 -14 327 13 312 52 c 1
 266 12 211 -14 158 -14 c 0
 53 -14 43 59 43 149 c 2
 43 354 l 2
 43 382 25 388 -6 396 c 2
 -14 398 l 2
 -18 399 -22 401 -22 407 c 2
 -22 430 l 1
 -20 432 l 1
 -20 432 61 430 100 430 c 0
 135 430 207 432 207 432 c 1
 209 430 l 1
 209 407 l 2
 209 402 207 399 201 398 c 0
 167 395 153 382 153 354 c 2
 153 127 l 2
 153 67 169 41 193 41 c 0
 227 41 263 57 302 90 c 1
 301 103 300 134 300 148 c 2
 300 354 l 2
 300 389 275 395 251 398 c 0
 247 398 243 401 243 407 c 2
 243 430 l 1
 245 432 l 1
 245 432 317 430 356 430 c 0
 392 430 464 432 464 432 c 1
 466 430 l 1
 466 407 l 2
 466 402 463 399 457 398 c 0
 424 395 410 382 410 354 c 2
 410 129 l 2
 410 66 426 41 451 41 c 0
 480 41 513 54 555 89 c 1
 555 355 l 2
 555 390 530 395 507 398 c 0
 502 399 498 401 498 407 c 2
 498 430 l 1
 500 432 l 1
 500 432 572 430 612 430 c 0
 647 430 728 432 728 432 c 1
 730 430 l 1
 730 407 l 2
 730 401 727 399 722 398 c 2
 713 396 l 2
 680 389 665 383 665 355 c 2
 665 109 l 2
 665 59 673 52 687 51 c 2
 728 47 l 1
 730 13 l 1
 660 4 594 -7 562 -17 c 0
 560 -17 555 -16 555 -14 c 2
 557 49 l 1
EndSplineSet
Colour: ff0000
EndChar

StartChar: uni0270
Encoding: 624 624 638
Width: 784
GlyphClass: 2
Flags: MW
LayerCount: 2
Fore
SplineSet
542 397 m 2
 531 397 520 400 515 404 c 1
 511 400 501 397 488 397 c 2
 469 397 l 2
 453 397 449 383 449 358 c 2
 449 132 l 2
 449 69 465 43 490 43 c 0
 513 43 542 67 588 115 c 1
 582 112 l 1
 582 358 l 2
 582 383 577 397 561 397 c 2
 542 397 l 2
195 358 m 2
 195 130 l 2
 195 67 212 43 236 43 c 0
 265 43 292 62 338 113 c 1
 333 110 l 1
 331 123 331 136 331 151 c 2
 331 358 l 2
 331 383 326 397 311 397 c 2
 292 397 l 2
 279 397 268 400 263 405 c 1
 260 400 250 397 235 397 c 2
 216 397 l 2
 200 397 195 383 195 358 c 2
139 432 m 0
 174 432 255 434 255 434 c 1
 263 426 l 1
 271 434 l 1
 271 434 353 432 392 432 c 0
 427 432 508 434 508 434 c 1
 515 427 l 1
 522 434 l 1
 522 434 604 432 642 432 c 0
 677 432 759 434 759 434 c 1
 768 424 l 1
 768 410 l 2
 768 402 757 397 739 397 c 2
 720 397 l 2
 704 397 699 383 699 358 c 2
 699 -103 l 2
 699 -155 699 -159 700 -159 c 0
 709 -159 724 -157 761 -149 c 1
 767 -187 l 1
 695 -198 681 -203 653 -217 c 0
 643 -223 633 -226 619 -226 c 2
 582 -226 l 1
 583 -35 l 1
 584 40 l 1
 548 9 510 -12 454 -12 c 0
 401 -12 364 15 347 47 c 1
 300 7 254 -12 201 -12 c 0
 96 -12 78 62 78 152 c 2
 78 358 l 2
 78 383 73 397 58 397 c 2
 39 397 l 2
 22 397 9 402 9 410 c 2
 9 424 l 1
 18 434 l 1
 18 434 100 432 139 432 c 0
EndSplineSet
Colour: ff0000
EndChar

StartChar: uni0271
Encoding: 625 625 639
Width: 784
GlyphClass: 2
Flags: MW
LayerCount: 2
Fore
SplineSet
244 35 m 2
 255 35 266 33 271 28 c 1
 274 33 284 35 297 35 c 2
 316 35 l 2
 333 35 337 49 337 75 c 2
 337 301 l 2
 337 364 320 389 296 389 c 0
 273 389 244 366 198 317 c 1
 204 320 l 1
 204 75 l 2
 204 49 209 35 225 35 c 2
 244 35 l 2
590 303 m 2
 590 366 574 389 549 389 c 0
 521 389 494 371 447 319 c 1
 453 322 l 1
 455 310 455 296 455 282 c 2
 455 75 l 2
 455 49 459 35 475 35 c 2
 494 35 l 2
 510 35 524 31 524 23 c 2
 524 8 l 1
 515 -1 l 1
 515 -1 433 1 394 1 c 0
 359 1 278 -1 278 -1 c 1
 271 5 l 1
 264 -1 l 1
 264 -1 182 1 144 1 c 0
 108 1 27 -1 27 -1 c 1
 18 8 l 1
 18 23 l 2
 18 31 29 35 47 35 c 2
 66 35 l 2
 82 35 86 49 86 75 c 2
 86 321 l 1
 86 378 l 1
 77 378 62 376 25 368 c 1
 19 405 l 1
 89.2 416.9 104.6 422.4 132 436 c 0
 143 442 153 445 167 445 c 2
 204 445 l 1
 202 393 l 1
 238 424 276 445 332 445 c 0
 384 445 422 418 438 385 c 1
 485 425 532 445 585 445 c 0
 690 445 708 371 708 281 c 2
 708 61 l 2
 708 -79 698 -144 659 -190 c 1
 639 -212 606 -227 560 -227 c 0
 498 -227 460 -205 460 -182 c 0
 460 -166 479 -153 506 -153 c 0
 519 -153 547 -160 554 -180 c 0
 556 -186 559 -192 560 -192 c 2
 560 -192 565 -184 574 -169 c 1
 589 -139 590 -48 590 50 c 2
 590 303 l 2
EndSplineSet
Colour: ff0000
EndChar

StartChar: uni0272
Encoding: 626 626 640
Width: 545
GlyphClass: 2
Flags: MW
LayerCount: 2
Fore
SplineSet
83 5 m 2
 83 321 l 1
 83 378 l 1
 72 378 54 375 22 369 c 1
 15 405 l 1
 63 414 96 419 128 436 c 0
 139 442 149 445 164 445 c 2
 201 445 l 1
 199 393 l 1
 248 436 292 445 340 445 c 0
 447 445 470 375 470 284 c 2
 470 75 l 2
 470 49 475 35 491 35 c 2
 510 35 l 2
 526 35 540 31 540 23 c 2
 540 8 l 1
 530 -1 l 1
 530 -1 448 1 410 1 c 0
 375 1 298 -1 298 -1 c 1
 289 8 l 1
 289 23 l 2
 289 31 300 35 318 35 c 2
 332 35 l 2
 349 35 353 49 353 75 c 2
 353 291 l 2
 353 359 345 389 311 389 c 0
 277 389 245 373 195 315 c 1
 201 318 l 1
 201 5 l 2
 201 -56 195 -140 145 -195 c 1
 125 -214 94 -228 51 -228 c 0
 -21 -228 -49 -199 -49 -180 c 0
 -49 -163 -30 -154 -4 -154 c 0
 16 -154 34 -159 42 -179 c 0
 44 -186 48 -193 50 -193 c 0
 70 -193 83 -146 83 5 c 2
EndSplineSet
Colour: ff0000
EndChar

StartChar: uni0273
Encoding: 627 627 641
Width: 545
GlyphClass: 2
Flags: MW
LayerCount: 2
Fore
SplineSet
468 4 m 2
 468 320 l 1
 468 377 l 1
 479 377 497 374 529 368 c 1
 536 404 l 1
 489 413 455 419 422 435 c 0
 414 439 399 444 387 444 c 2
 351 444 l 1
 351 427 352 410 352 392 c 1
 303 435 259 444 211 444 c 0
 104 444 81 374 81 284 c 2
 81 74 l 2
 81 48 76 34 61 34 c 2
 42 34 l 2
 25 34 12 30 12 22 c 2
 12 7 l 1
 21 -2 l 1
 21 -2 103 0 142 0 c 0
 177 0 253 -2 253 -2 c 1
 263 7 l 1
 263 22 l 2
 263 30 251 34 233 34 c 2
 219 34 l 2
 203 34 198 48 198 74 c 2
 198 290 l 2
 198 358 206 388 240 388 c 0
 274 388 306 372 356 314 c 1
 351 317 l 1
 351 4 l 2
 351 -57 356 -141 406 -196 c 1
 426 -215 458 -229 500 -229 c 0
 573 -229 600 -200 600 -181 c 0
 600 -164 582 -155 555 -155 c 0
 536 -155 517 -160 509 -180 c 1
 510 -180 l 1
 507 -187 503 -194 501 -194 c 0
 481 -194 468 -147 468 4 c 2
EndSplineSet
Colour: ff0000
EndChar

StartChar: uni0279
Encoding: 633 633 642
Width: 356
GlyphClass: 2
Flags: MW
AnchorPoint: "below" 190 -114 basechar 0
LayerCount: 2
Fore
SplineSet
150 49 m 1
 100 -2.5 57 -14 22 -14 c 0
 -14 -14 -36 16 -36 42 c 0
 -36 74 -15 99 14 99 c 0
 53.3 99 69.4 59 87.3 59 c 0
 103.3 59 111.8 63.5 124 72 c 0
 139 82.5 150 106.5 150 142 c 2
 150 353 l 2
 150 381 132.6 388.3 102 396 c 2
 94 398 l 2
 90.1 399 86 401 86 407 c 2
 86 430 l 1
 88 432 l 1
 88 432 168 430 207 430 c 0
 243 430 323 432 323 432 c 1
 325 430 l 1
 325 407 l 2
 325 401 321.9 398.8 318 398 c 2
 308 396 l 2
 276.5 389.7 260 380 260 353 c 2
 260 109 l 2
 260 59 268 52 282 51 c 2
 323 47 l 1
 325 13 l 1
 255 4 189 -7 157 -17 c 0
 155 -17 150 -16 150 -14 c 2
 152 49 l 1
 150 49 l 1
EndSplineSet
Colour: ff0000
EndChar

StartChar: uni027A
Encoding: 634 634 643
Width: 400
GlyphClass: 2
Flags: MW
LayerCount: 2
Fore
SplineSet
330 552 m 2
 330 95 l 1
 330 55 l 1
 341 55 358 58 391 64 c 1
 398 27 l 1
 315 14 293 2 280 -5 c 0
 272 -10 268 -12 249 -12 c 2
 211 -12 l 1
 212 37 l 1
 182 12 141 -12 100 -12 c 0
 46 -12 11 9 11 38 c 0
 11 63 36 91 76 91 c 0
 110 91 136 83 145 64 c 0
 149 54 150 52 149 52 c 1
 158 52 181 74 205 109 c 0
 208 115 212 126 212 141 c 2
 212 552 l 2
 212 578 208 592 191 592 c 2
 163 592 l 2
 146 592 133 596 133 604 c 2
 133 619 l 1
 142 629 l 1
 142 629 234 626 272 626 c 0
 308 626 389 629 389 629 c 1
 399 619 l 1
 399 604 l 2
 399 596 388 592 369 592 c 2
 351 592 l 2
 334 592 330 578 330 552 c 2
EndSplineSet
Colour: ff0000
EndChar

StartChar: uni027C
Encoding: 636 636 644
Width: 400
GlyphClass: 2
Flags: MW
LayerCount: 2
Fore
SplineSet
81 -120 m 2
 81 337 l 1
 81 378 l 1
 70 378 52 375 20 369 c 1
 13 405 l 1
 96 418 118 431 131 438 c 0
 139 442 143 445 162 445 c 2
 200 445 l 1
 198 395 l 1
 228 420 270 445 311 445 c 0
 364 445 399 423 399 395 c 0
 399 370 375 342 335 342 c 0
 301 342 274 350 266 369 c 1
 260 378 260 380 261 381 c 1
 251 380 232 363 206 324 c 0
 202 318 198 308 198 292 c 2
 198 -120 l 2
 198 -146 203 -159 219 -159 c 2
 248 -159 l 2
 264 -159 278 -164 278 -171 c 2
 278 -187 l 1
 269 -196 l 1
 269 -196 177 -194 138 -194 c 0
 103 -194 21 -196 21 -196 c 1
 12 -187 l 1
 12 -171 l 2
 12 -164 23 -159 42 -159 c 2
 60 -159 l 2
 77 -159 81 -146 81 -120 c 2
EndSplineSet
Colour: ff0000
EndChar

StartChar: uni0283
Encoding: 643 643 645
Width: 328
GlyphClass: 2
Flags: MW
LayerCount: 2
Fore
SplineSet
-18 -105 m 0
 26 -105 32 -122 38 -139 c 0
 42 -153 47 -166 50 -166 c 0
 63 -166 83 -140 83 5 c 2
 83 436 l 2
 83 535 87 612 154 667 c 0
 181 688 212 698 248 698 c 0
 336 698 376 656 376 628 c 0
 376 606 352 590 323 590 c 0
 282 590 274 605 268 622 c 0
 259 645 251 656 246 656 c 0
 208 656 201 565 201 472 c 2
 201 56 l 2
 201 -44 194 -126 132 -181 c 1
 98 -208 65 -211 46 -211 c 0
 -5 -211 -71 -185 -71 -142 c 0
 -71 -124 -50 -105 -18 -105 c 0
EndSplineSet
Colour: ff0000
EndChar

StartChar: uni0285
Encoding: 645 645 646
Width: 328
GlyphClass: 2
Flags: MW
LayerCount: 2
Fore
SplineSet
323 -105 m 0
 355 -105 376 -124 376 -142 c 0
 376 -185 310 -211 259 -211 c 0
 240 -211 208 -208 173 -181 c 1
 111 -126 104 -44 104 56 c 2
 104 472 l 2
 104 565 98 656 59 656 c 0
 54 656 46 645 37 622 c 0
 31 605 23 590 -18 590 c 0
 -47 590 -71 606 -71 628 c 0
 -71 656 -31 698 58 698 c 0
 93 698 125 688 151 667 c 0
 218 612 222 535 222 436 c 2
 222 5 l 2
 222 -140 242 -166 255 -166 c 0
 259 -166 263 -153 267 -139 c 0
 273 -122 280 -105 323 -105 c 0
EndSplineSet
Colour: ff0000
EndChar

StartChar: uni0287
Encoding: 647 647 647
Width: 335
GlyphClass: 2
Flags: MW
LayerCount: 2
Fore
SplineSet
126 43 m 1
 126 295 l 2
 126 361 113 368 100 368 c 0
 80 368 61.5 366.5 32 343 c 1
 9 366 l 1
 46 415 95 440 150 440 c 0
 200 440 236 411 236 338 c 2
 236 43 l 1
 287 43 l 2
 303 43 305 41 305 35 c 2
 305 4 l 2
 305 -2 287 -4 267 -4 c 0
 217 -4 207 -53 207 -134 c 1
 126 -165 l 1
 126 -4 l 1
 31 -4 l 2
 12 -4 9 0 9 6 c 2
 9 26 l 2
 9 38 27 43 46 43 c 2
 126 43 l 1
EndSplineSet
Colour: ff0000
EndChar

StartChar: uni028C
Encoding: 652 652 648
Width: 491
GlyphClass: 2
Flags: MW
LayerCount: 2
Fore
SplineSet
60 78 m 2
 178 389 l 2
 194 430 205 442 228 442 c 0
 255 442 271 430 287 390 c 2
 401.8 96 l 2
 414.1 64.4 428.5 32.5 474 28 c 0
 479 27.5 484 26 484 21 c 2
 484 -4 l 1
 481 -6 l 1
 481 -6 420 -4 380 -4 c 0
 339 -4 257 -6 257 -6 c 1
 253 -4 l 1
 253 20 l 2
 253 27 259 27.8 261 28 c 2
 278 30 l 2
 308.1 33.5 309 43 298 73 c 2
 199 325 l 1
 109 72 l 2
 99.2 44.4 116.1 38 152 29 c 2
 156 28 l 2
 160.9 26.8 164 24 164 21 c 2
 164 -3 l 1
 160 -6 l 1
 160 -6 97.2 -4 57 -4 c 0
 27 -4 -20 -6 -20 -6 c 1
 -22 -4 l 1
 -22 19 l 2
 -22 24 -17 27.3 -11 28 c 0
 18.5 31.5 45 39 60 78 c 2
EndSplineSet
Colour: ff0000
EndChar

StartChar: uni028D
Encoding: 653 653 649
Width: 738
GlyphClass: 2
Flags: MW
LayerCount: 2
Fore
SplineSet
545 73 m 2
 451 330 l 1
 380 153 l 1
 411 75 l 2
 425.1 39.6 442 31.5 472 28 c 0
 477 27.4 482 26 482 21 c 2
 482 -4 l 1
 479 -6 l 1
 479 -6 416.8 -4 377 -4 c 0
 329.4 -4 255 -6 255 -6 c 1
 251 -4 l 1
 251 20 l 2
 251 26.5 257 27.6 260 28 c 2
 277 30 l 2
 308 33.6 309 44 298 73 c 2
 205 331 l 1
 112 75 l 2
 101 43 106.3 40.7 153 29 c 2
 157 28 l 2
 161.9 26.8 165 24 165 21 c 2
 165 -3 l 1
 161 -6 l 1
 161 -6 92.7 -4 49 -4 c 0
 22.5 -4 -19 -6 -19 -6 c 1
 -21 -4 l 1
 -21 19 l 2
 -21 24 -16 27.2 -10 28 c 0
 33 33.5 48.1 53.7 61.8 87.5 c 2
 187 397 l 2
 197 423 209 442 233 442 c 0
 265 442 277 417 285 398 c 2
 358 211 l 1
 432 395 l 2
 442 419 453 442 478 442 c 0
 508 442 520 426 531 398 c 2
 649 95.5 l 2
 663.8 57.5 676 33 721 28 c 0
 727 27.3 732 26 732 21 c 2
 732 -4 l 1
 729 -6 l 1
 729 -6 664.3 -4 623 -4 c 0
 581.3 -4 516 -6 516 -6 c 1
 512 -4 l 1
 512 20 l 2
 512 28 520 27.6 523 28 c 0
 553.5 32.5 554 46 545 73 c 2
EndSplineSet
Colour: ff0000
EndChar

StartChar: uni028E
Encoding: 654 654 650
Width: 533
GlyphClass: 2
Flags: MW
LayerCount: 2
Fore
SplineSet
75 89 m 2
 241 501 l 2
 275 585 317.7 662.3 397.9 662.3 c 0
 419.3 662.3 473.8 649.4 473.8 607.7 c 0
 473.8 573.5 443.9 556.3 415 556.3 c 0
 398.9 556.3 379.6 570.2 373.2 579.8 c 0
 366.8 589.4 361.5 597 354 597 c 0
 346.5 597 321 568 292 491 c 2
 274 442 l 1
 415 94 l 2
 435 44 447 28 487 28 c 0
 493 28 497 26 497 21 c 2
 497 -4 l 1
 494 -6 l 1
 494 -6 429.3 -4 388 -4 c 0
 340.8 -4 267 -6 267 -6 c 1
 263 -4 l 1
 263 20 l 2
 263 27 269 28 271 28 c 0
 311 28 319 42 308 73 c 2
 215 325 l 1
 181 242 141 133 123 75 c 0
 111 39 132 28 163 28 c 0
 168 28 171 24 171 21 c 2
 171 -3 l 1
 167 -6 l 1
 167 -6 98.7 -4 55 -4 c 0
 30 -4 -9 -6 -9 -6 c 1
 -11 -4 l 1
 -11 19 l 2
 -11 24 -6 28 0 28 c 0
 29 28 58 47 75 89 c 2
EndSplineSet
Colour: ff0000
EndChar

StartChar: uni028F
Encoding: 655 655 651
Width: 494
GlyphClass: 2
Flags: MW
LayerCount: 2
Fore
SplineSet
311 78 m 2
 311 42 314 36 329 35 c 1
 357 35 l 2
 375 35 385 32 385 26 c 2
 385 -1 l 1
 385 -1 294 1 250 1 c 0
 208 1 119 -1 119 -1 c 1
 119 26 l 2
 119 33 129 35 146 35 c 2
 176 35 l 1
 190 36 193 43 193 78 c 2
 193 161 l 1
 195 159 l 1
 160 226 124 293 88 360 c 0
 70 392 64 397 44 397 c 2
 42 397 l 2
 21 397 12 401 12 406 c 2
 12 434 l 1
 129 431 l 2
 162 431 217 433 250 434 c 1
 250 407 l 2
 250 401 241 397 225 397 c 2
 208 397 l 2
 202 397 199 393 199 386 c 0
 199 375 203 368 205 364 c 2
 267 247 l 1
 286 286 305 325 324 364 c 0
 326 369 330 378 330 388 c 0
 330 396 330 397 327 397 c 2
 303 397 l 2
 285 397 278 400 278 406 c 2
 278 434 l 1
 385 431 l 1
 408 432 454 434 477 434 c 1
 477 407 l 2
 477 401 466 397 447 397 c 2
 442 397 l 1
 421 396 412 386 399 360 c 2
 309 171 l 1
 311 173 l 1
 311 78 l 2
EndSplineSet
Colour: ff0000
EndChar

StartChar: uni0292
Encoding: 658 658 652
Width: 450
GlyphClass: 2
Flags: MW
AnchorPoint: "below" 193 -319 basechar 0
LayerCount: 2
Fore
SplineSet
123 440 m 0
 123 435 122 433 121 433 c 2
 348 433 l 2
 382 433 394 428 394 416 c 0
 394 413 389 402 381 386 c 2
 254 156 l 1
 368 138 433 69 433 -30 c 0
 433 -127 350 -227 193 -227 c 0
 90 -227 21 -186 21 -151 c 0
 21 -134 34 -117 71 -117 c 0
 105 -117 127 -124 141 -147 c 0
 153 -168 175 -190 202 -190 c 0
 244 -190 316 -145 316 -31 c 0
 316 51 260 112 194 112 c 0
 179 112 151 107 110 98 c 1
 269 386 l 1
 151 386 l 2
 132 386 113 373 93 287 c 1
 40 293 l 1
 73 454 l 1
 124 446 l 1
 123 444 123 441 123 440 c 0
EndSplineSet
Colour: ff0000
EndChar

StartChar: uni029E
Encoding: 670 670 653
Width: 551
GlyphClass: 2
Flags: MW
LayerCount: 2
Fore
SplineSet
243 75 m 0
 236 69 218 54 218 39 c 0
 218 37 217 35 215 35 c 2
 233 35 l 2
 258 35 260 29 260 23 c 2
 260 -1 l 1
 260 -1 176 1 141 1 c 0
 103 1 27 -2 27 -2 c 1
 27 23 l 2
 27 31 46 35 59 35 c 2
 87 35 l 2
 107 35 135 58 163 81 c 2
 250 151 l 1
 204 219 158 287 112 355 c 1
 112 354 l 1
 99 374 83 397 67 397 c 2
 51 397 l 2
 39 397 19 402 19 410 c 2
 19 434 l 1
 19 434 100 432 139 432 c 0
 174 432 271 434 271 434 c 1
 271 410 l 2
 271 400 268 397 245 397 c 2
 226 397 l 2
 225 397 224 396 224 394 c 0
 224 386 225 376 236 359 c 0
 271 306 295 270 330 217 c 1
 347 230 362 243 378 256 c 1
 370 253 l 1
 370 357 l 2
 370 386 369 397 354 397 c 2
 336 397 l 2
 320 397 306 402 306 410 c 2
 306 434 l 1
 306 434 392 432 431 432 c 0
 466 432 551 434 551 434 c 1
 551 410 l 2
 551 402 540 397 522 397 c 2
 503 397 l 2
 487 397 487 381 487 357 c 2
 487 -99 l 2
 487 -146 487 -161 488 -161 c 0
 497 -161 515 -157 550 -150 c 1
 556 -189 l 1
 521 -197 463 -210 422 -229 c 1
 370 -229 l 1
 370 180 l 1
 328 145 285 109 243 75 c 0
EndSplineSet
Colour: ff0000
EndChar

StartChar: uni02BB
Encoding: 699 699 654
Width: 168
GlyphClass: 2
Flags: MW
LayerCount: 2
Fore
SplineSet
89 471 m 0
 51 471 29 508 29 544 c 0
 29 570 44 645 135 650 c 1
 139 633 l 1
 97 624 79 587 79 564 c 0
 79 554 83 546 90 546 c 0
 131 546 136 521 136 505 c 0
 136 489 125 471 89 471 c 0
EndSplineSet
Colour: ff00ff
EndChar

StartChar: uni02BC
Encoding: 700 700 655
Width: 175
GlyphClass: 2
Flags: MW
LayerCount: 2
Fore
SplineSet
79 652 m 0
 117 652 139 615 139 579 c 0
 139 553 124 478 33 473 c 1
 29 490 l 1
 71 499 89 536 89 559 c 0
 89 569 85 577 78 577 c 0
 37 577 32 602 32 618 c 0
 32 634 43 652 79 652 c 0
EndSplineSet
Colour: ff00ff
EndChar

StartChar: uni02D0
Encoding: 720 720 661
Width: 209
GlyphClass: 2
Flags: MW
LayerCount: 2
Fore
SplineSet
36 37 m 1
 105 158 l 1
 175 37 l 1
 36 37 l 1
EndSplineSet
Refer: 662 721 N 1 0 0 1 0 1 2
Colour: ff00ff
EndChar

StartChar: uni02D1
Encoding: 721 721 662
Width: 204
GlyphClass: 2
Flags: MW
LayerCount: 2
Fore
SplineSet
36 404 m 1
 175 404 l 1
 105 283 l 1
 36 404 l 1
EndSplineSet
Colour: ff00ff
EndChar

StartChar: gravecomb
Encoding: 768 768 669
Width: 0
GlyphClass: 4
Flags: MW
AnchorPoint: "above" -127 713 mark 0
LayerCount: 2
Fore
SplineSet
-136 711 m 1
 -67 587 l 2
 -63 580 -58 569 -58 561 c 0
 -58 552 -66 545 -75 545 c 0
 -83 545 -93 550 -110 565 c 2
 -231 670 l 1
 -229 681 l 1
 -221 690 -192 713 -156 713 c 0
 -151 713 -140 712 -136 711 c 1
EndSplineSet
EndChar

StartChar: acutecomb
Encoding: 769 769 670
Width: 0
GlyphClass: 4
Flags: MW
AnchorPoint: "above" -180 711 mark 0
LayerCount: 2
Fore
SplineSet
-140 711 m 1
 -137 712 -129 713 -124 713 c 0
 -94 713 -75 699 -67 689 c 1
 -57 666 l 1
 -177 558 l 2
 -191 546 -205 542 -215 542 c 0
 -223 542 -231 550 -231 556 c 0
 -231 562 -229 571 -223 580 c 2
 -140 711 l 1
EndSplineSet
EndChar

StartChar: uni0302
Encoding: 770 770 671
Width: 0
GlyphClass: 4
Flags: MW
AnchorPoint: "above" -127 700 mark 0
LayerCount: 2
Fore
SplineSet
-101 700 m 1
 -71 651 -33 607 4 566 c 1
 -21 547 l 1
 -64 573 -93 593 -128 630 c 1
 -166 591 -194 573 -234 547 c 1
 -259 566 l 1
 -223 607 -183 652 -153 700 c 1
 -101 700 l 1
EndSplineSet
EndChar

StartChar: tildecomb
Encoding: 771 771 672
Width: 0
GlyphClass: 4
Flags: MW
AnchorPoint: "top_punkt" -133 621 mark 0
LayerCount: 2
Fore
SplineSet
-69 622 m 0
 -47 622 -34 631 -20 680 c 1
 8 670 l 1
 -5 602 -35 562 -83 562 c 0
 -106 562 -128 577 -148 592 c 1
 -168 605 -188 618 -206 618 c 0
 -233 618 -244 603 -255 565 c 1
 -281 573 l 1
 -267 641 -243 679 -198 679 c 0
 -167 679 -144 663 -124 647 c 0
 -106 633 -89 622 -69 622 c 0
EndSplineSet
EndChar

StartChar: uni0307
Encoding: 775 775 673
Width: 0
GlyphClass: 4
Flags: MW
AnchorPoint: "top_punkt" -169 603 mark 0
LayerCount: 2
Fore
SplineSet
-230 605 m 0
 -230 639 -202 667 -168 667 c 0
 -134 667 -106 639 -106 605 c 0
 -106 571 -134 543 -168 543 c 0
 -202 543 -230 571 -230 605 c 0
EndSplineSet
EndChar

StartChar: uni0308
Encoding: 776 776 674
Width: 0
GlyphClass: 4
Flags: MW
AnchorPoint: "top_punkt" -198 557 mark 0
LayerCount: 2
Fore
SplineSet
-149 573 m 0
 -149 603 -125 627 -95 627 c 0
 -66 627 -41 603 -41 573 c 0
 -41 544 -66 520 -95 520 c 0
 -125 520 -149 544 -149 573 c 0
-330 573 m 0
 -330 603 -305 627 -276 627 c 0
 -246 627 -222 603 -222 573 c 0
 -222 544 -246 520 -276 520 c 0
 -305 520 -330 544 -330 573 c 0
EndSplineSet
EndChar

StartChar: hookabovecomb
Encoding: 777 777 675
Width: 0
GlyphClass: 4
Flags: MW
AnchorPoint: "top_punkt" -162 682 mark 0
LayerCount: 2
Fore
SplineSet
-75 725 m 0
 -75 704 -88 688 -104 673 c 0
 -122 656 -135 638 -136 612 c 1
 -167 612 l 1
 -166 647 -153 669 -142 687 c 0
 -134 699 -129 710 -129 722 c 0
 -129 745 -137 753 -155 753 c 0
 -172 753 -179 748 -179 743 c 0
 -179 740 -178 737 -177 735 c 0
 -175 733 -170 725 -170 718 c 0
 -170 704 -187 697 -196 697 c 0
 -214 697 -222 714 -222 725 c 0
 -222 747 -188 781 -146 781 c 0
 -92 781 -75 741 -75 725 c 0
EndSplineSet
EndChar

StartChar: uni030C
Encoding: 780 780 676
Width: 0
GlyphClass: 4
Flags: MW
AnchorPoint: "above" -193 676 mark 0
LayerCount: 2
Fore
SplineSet
-167 529 m 1
 -217 529 l 1
 -246 575 -284 618 -319 658 c 1
 -295 676 l 1
 -256 649 -230 630 -193 592 c 1
 -159 628 -129 649 -90 676 c 1
 -66 658 l 1
 -102 618 -138 576 -167 529 c 1
EndSplineSet
EndChar

StartChar: uni030F
Encoding: 783 783 677
Width: 0
GlyphClass: 4
Flags: MW
AnchorPoint: "above" -127 758 mark 0
LayerCount: 2
Fore
SplineSet
-284 708 m 0
 -284 696 -279 691 -271 683 c 2
 -173 591 l 2
 -168 586 -163 583 -158 583 c 0
 -150 583 -143 589 -143 598 c 0
 -143 602 -144 607 -147 612 c 2
 -215 733 l 2
 -217 736 -224 751 -243 751 c 0
 -268 751 -284 732 -284 708 c 0
-155 720 m 0
 -155 715 -154 709 -150 704 c 2
 -58 595 l 2
 -49 584 -41 580 -34 580 c 0
 -26 580 -21 586 -21 595 c 0
 -21 599 -22 604 -24 609 c 2
 -83 743 l 2
 -88 754 -102 756 -113 756 c 0
 -135 756 -155 739 -155 720 c 0
EndSplineSet
EndChar

StartChar: uni031B
Encoding: 795 795 678
Width: 0
GlyphClass: 4
Flags: MW
LayerCount: 2
Fore
SplineSet
-90 415 m 0
 -90 364 -122 332 -177 332 c 2
 -201 332 l 1
 -201 358 l 1
 -201 358 -182 358 -177 358 c 0
 -166 358 -125 362 -125 396 c 0
 -125 409 -138 417 -152 418 c 0
 -187 422 -200 444 -200 464 c 0
 -200 488 -183 503 -154 503 c 0
 -116 503 -90 462 -90 415 c 0
EndSplineSet
EndChar

StartChar: dotbelowcomb
Encoding: 803 803 679
Width: 0
GlyphClass: 4
Flags: MW
AnchorPoint: "below" -216 -113 mark 0
LayerCount: 2
Fore
SplineSet
-271 -118 m 0
 -271 -85 -245 -64 -216 -64 c 0
 -184 -64 -162 -89 -162 -118 c 0
 -162 -150 -187 -172 -216 -172 c 0
 -248 -172 -271 -147 -271 -118 c 0
EndSplineSet
EndChar

StartChar: uni0326
Encoding: 806 806 680
Width: 0
GlyphClass: 4
Flags: MW
AnchorPoint: "below" -255 -73 mark 0
LayerCount: 2
Fore
SplineSet
-250 -32 m 0
 -211 -32 -188 -69 -188 -104 c 0
 -188 -130 -205 -206 -295 -210 c 1
 -299 -193 l 1
 -223 -178 -220 -120 -220 -114 c 0
 -220 -110 -221 -107 -222 -104 c 1
 -233 -110 -243 -113 -251 -113 c 0
 -292 -113 -301 -88 -301 -72 c 0
 -301 -56 -286 -32 -250 -32 c 0
EndSplineSet
EndChar

StartChar: uni0327
Encoding: 807 807 681
Width: 0
GlyphClass: 4
Flags: MW
AnchorPoint: "cedilla" -192 4 mark 0
LayerCount: 2
Fore
SplineSet
-205 -83 m 0
 -224 -83 -234 -84 -250 -89 c 1
 -256 -83 l 1
 -207 7 l 1
 -173 7 l 1
 -194.6 -50 l 1
 -186.6 -48 -171.6 -48 -162.6 -48 c 0
 -122.6 -48 -90 -68 -90 -106 c 0
 -90 -159 -149.6 -188.5 -210.6 -188.5 c 0
 -242.6 -188.5 -257.6 -182.5 -282.6 -171.5 c 1
 -271 -145 l 1
 -244 -155 -233 -159 -213 -159 c 0
 -183 -159 -163 -145 -163 -118 c 0
 -163 -99 -186.1 -83 -205 -83 c 0
EndSplineSet
EndChar

StartChar: tonos
Encoding: 900 900 682
Width: 219
GlyphClass: 2
Flags: MW
LayerCount: 2
Fore
SplineSet
120 731 m 0
 140 731 171 713 171 693 c 0
 171 688 170 683 166 678 c 2
 72 556 l 2
 69 552 65 548 61 548 c 0
 53 548 41 555 41 562 c 0
 41 563 41 568 42 571 c 2
 92 714 l 2
 96 725 109 731 120 731 c 0
EndSplineSet
EndChar

StartChar: Gamma
Encoding: 915 915 690
Width: 511
GlyphClass: 2
Flags: MW
LayerCount: 2
Fore
SplineSet
100 77 m 2
 100 573 l 2
 100 605 94 613 70 613 c 2
 38 613 l 2
 26 613 22 617 22 625 c 2
 22 643 l 1
 26 646 l 1
 488 646 l 1
 490 589 501 526 512 473 c 1
 473 464 l 1
 457 525 421 599 342 599 c 2
 256 599 l 2
 235 599 222 583 222 553 c 2
 222 77 l 2
 222 49 235 33 276 33 c 2
 291 33 l 2
 295 33 298 30 298 24 c 2
 298 1 l 1
 296 -1 l 1
 296 -1 196 1 161 1 c 0
 122 1 24 -1 24 -1 c 1
 22 1 l 1
 22 24 l 2
 22 30 26 33 31 33 c 2
 45 33 l 2
 84 33 100 45 100 77 c 2
EndSplineSet
EndChar

StartChar: uni0394
Encoding: 916 916 691
Width: 692
GlyphClass: 2
Flags: MW
LayerCount: 2
Fore
SplineSet
321 555 m 1
 111 36 l 1
 523 36 l 1
 321 555 l 1
410 651 m 1
 654 18 l 2
 657 9 658 5 658 3 c 0
 658 0 654 -2 637 -2 c 2
 49 -2 l 2
 36 -2 28 -1 28 5 c 0
 28 7 28 8 33 18 c 2
 288 651 l 1
 410 651 l 1
EndSplineSet
EndChar

StartChar: Theta
Encoding: 920 920 695
Width: 730
GlyphClass: 2
Flags: MW
LayerCount: 2
Fore
SplineSet
438 358 m 2
 470 358 483 361 483 395 c 2
 483 401 l 1
 484 407 486 409 490 409 c 2
 518 409 l 1
 518 409 515 362 515 332 c 0
 515 296 518 241 518 241 c 1
 491 241 l 2
 489 241 484 242 483 249 c 1
 483 256 l 2
 483 289 467 292 438 292 c 2
 294 292 l 2
 261 292 249 289 249 256 c 2
 249 249 l 1
 248 243 244 241 241 241 c 2
 214 241 l 1
 214 241 217 296 217 332 c 0
 217 362 214 410 214 410 c 1
 241 410 l 1
 248 409 249 405 249 402 c 2
 249 395 l 2
 249 360 260 358 294 358 c 2
 438 358 l 2
EndSplineSet
Refer: 264 79 N 1 0 0 1 0 0 2
EndChar

StartChar: Lambda
Encoding: 923 923 698
Width: 636
GlyphClass: 2
Flags: MW
LayerCount: 2
Fore
SplineSet
210 33 m 0
 214 33 218 30 218 25 c 2
 218 1 l 1
 216 0 l 1
 216 0 129 1 90 1 c 0
 54 1 2 0 2 0 c 1
 0 1 l 1
 0 25 l 2
 0 30 3 33 8 33 c 0
 64 33 71 44 91 97 c 2
 292 635 l 2
 298 650 316 658 326 658 c 0
 337 658 354 650 359 635 c 2
 549 92 l 2
 566 46 578 33 629 33 c 0
 633 33 637 30 637 25 c 2
 637 1 l 1
 635 0 l 1
 635 0 538 1 499 1 c 0
 463 1 355 0 355 0 c 1
 353 1 l 1
 353 25 l 2
 353 30 356 33 361 33 c 0
 424 33 443 43 432 74 c 2
 307 430 l 1
 296 461 l 1
 284 433 l 1
 154 84 l 2
 138 42 145 33 210 33 c 0
EndSplineSet
EndChar

StartChar: Xi
Encoding: 926 926 701
Width: 648
GlyphClass: 2
Flags: MW
LayerCount: 2
Fore
SplineSet
53 173 m 1
 91 173 l 1
 98 82 116 76 163 76 c 2
 475 76 l 2
 545 76 555 84 562 173 c 1
 601 173 l 1
 593 -4 l 1
 553 -4 l 1
 552 -1 549 0 545 0 c 2
 113 0 l 2
 109 0 106 -2 105 -4 c 1
 60 -4 l 1
 53 173 l 1
601 484 m 1
 562 484 l 1
 554 568 546 570 479 570 c 2
 174 570 l 2
 106 570 98 567 92 484 c 1
 53 484 l 1
 53 485 58 636 60 650 c 1
 97 650 l 1
 97 647 100 646 104 646 c 2
 545 646 l 2
 549 646 552 647 554 650 c 1
 593 650 l 1
 593 640 599 516 601 484 c 1
433 345 m 2
 465 345 479 348 479 382 c 2
 479 389 l 2
 479 394 481 396 485 396 c 2
 513 396 l 1
 513 396 510 349 510 319 c 0
 510 284 513 229 513 229 c 1
 486 229 l 2
 484 229 479 229 479 236 c 2
 479 243 l 2
 479 276 462 279 433 279 c 2
 217 279 l 2
 184 279 171 276 171 243 c 2
 171 236 l 1
 170 229 167 229 164 229 c 2
 137 229 l 1
 137 229 140 284 140 319 c 0
 140 350 137 397 137 397 c 1
 164 397 l 2
 170 397 171 392 171 389 c 2
 171 382 l 2
 171 348 183 345 217 345 c 2
 433 345 l 2
EndSplineSet
EndChar

